<svg width="100" height="121" viewBox="0 0 100 121" fill="none" xmlns="http://www.w3.org/2000/svg">
<path d="M96.7345 120.287C97.4452 120.712 98.3664 120.482 98.7922 119.771C99.218 119.06 98.9871 118.139 98.2765 117.713L96.7345 120.287ZM3.95098 8.60191C4.3155 9.34583 5.21407 9.65339 5.95799 9.28887C6.70191 8.92435 7.00947 8.02578 6.64495 7.28186L3.95098 8.60191ZM13.6929 20.8748C13.2954 20.148 12.384 19.881 11.6572 20.2784C10.9303 20.6759 10.6633 21.5873 11.0607 22.3142L13.6929 20.8748ZM18.7612 35.7076C19.1893 36.4168 20.1113 36.6447 20.8205 36.2166C21.5297 35.7885 21.7576 34.8665 21.3295 34.1572L18.7612 35.7076ZM29.5276 47.1007C29.0692 46.4106 28.1382 46.2229 27.4482 46.6813C26.7581 47.1397 26.5704 48.0707 27.0288 48.7607L29.5276 47.1007ZM35.8692 61.4352C36.3588 62.1034 37.2975 62.2483 37.9658 61.7587C38.634 61.2691 38.7789 60.3305 38.2893 59.6622L35.8692 61.4352ZM47.638 71.7828C47.1154 71.14 46.1706 71.0426 45.5278 71.5652C44.885 72.0878 44.7876 73.0325 45.3102 73.6753L47.638 71.7828ZM55.3964 85.401C55.9546 86.0131 56.9034 86.0568 57.5155 85.4986C58.1276 84.9403 58.1712 83.9916 57.613 83.3795L55.3964 85.401ZM68.2674 94.3367C67.6702 93.7626 66.7206 93.7813 66.1465 94.3786C65.5723 94.9758 65.5911 95.9253 66.1883 96.4995L68.2674 94.3367ZM77.7584 106.811C78.3984 107.337 79.3437 107.245 79.8697 106.605C80.3957 105.965 80.3032 105.019 79.6632 104.493L77.7584 106.811ZM91.8635 113.626C91.1771 113.162 90.2446 113.343 89.7809 114.029C89.3171 114.716 89.4977 115.648 90.1841 116.112L91.8635 113.626ZM0.637216 1.62675C1.68491 3.90481 2.79006 6.23268 3.95098 8.60191L6.64495 7.28186C5.49465 4.93429 4.40004 2.6286 3.36278 0.373248L0.637216 1.62675ZM11.0607 22.3142C13.4666 26.7138 16.0364 31.1937 18.7612 35.7076L21.3295 34.1572C18.6272 29.6806 16.0786 25.2377 13.6929 20.8748L11.0607 22.3142ZM27.0288 48.7607C29.8497 53.0069 32.799 57.2444 35.8692 61.4352L38.2893 59.6622C35.2475 55.5102 32.3244 51.3104 29.5276 47.1007L27.0288 48.7607ZM45.3102 73.6753C48.5638 77.6773 51.9282 81.5981 55.3964 85.401L57.613 83.3795C54.1856 79.6213 50.8581 75.7437 47.638 71.7828L45.3102 73.6753ZM66.1883 96.4995C69.9452 100.111 73.8044 103.562 77.7584 106.811L79.6632 104.493C75.774 101.297 71.9728 97.8989 68.2674 94.3367L66.1883 96.4995ZM90.1841 116.112C92.3439 117.571 94.5277 118.964 96.7345 120.287L98.2765 117.713C96.1183 116.42 93.9802 115.056 91.8635 113.626L90.1841 116.112Z" fill="#0F3C65"/>
</svg>
