<svg width="351" height="204" viewBox="0 0 351 204" fill="none" xmlns="http://www.w3.org/2000/svg">
<path d="M2.93198 177.6C2.28286 177.085 1.33938 177.194 0.824665 177.843C0.309946 178.492 0.4189 179.436 1.06802 179.95L2.93198 177.6ZM7.53583 184.599C8.23007 185.051 9.1593 184.855 9.61133 184.16C10.0634 183.466 9.867 182.537 9.17277 182.085L7.53583 184.599ZM22.734 189.368C21.9754 189.035 21.0905 189.38 20.7575 190.138C20.4245 190.897 20.7695 191.782 21.5281 192.115L22.734 189.368ZM36.4927 197.47C37.2893 197.697 38.1193 197.235 38.3465 196.438C38.5737 195.642 38.1121 194.812 37.3154 194.585L36.4927 197.47ZM52.4159 197.957C51.5987 197.821 50.826 198.373 50.69 199.19C50.5539 200.008 51.1061 200.78 51.9233 200.916L52.4159 197.957ZM67.6735 202.745C68.5 202.802 69.216 202.178 69.2728 201.351C69.3297 200.525 68.7057 199.809 67.8793 199.752L67.6735 202.745ZM83.3837 200.157C82.5553 200.169 81.8936 200.85 81.9057 201.679C81.9178 202.507 82.5991 203.169 83.4274 203.157L83.3837 200.157ZM99.1954 202.331C100.021 202.258 100.63 201.53 100.557 200.704C100.483 199.879 99.7549 199.27 98.9297 199.343L99.1954 202.331ZM114.414 197.432C113.596 197.56 113.037 198.328 113.166 199.146C113.294 199.965 114.062 200.524 114.88 200.395L114.414 197.432ZM130.357 197.462C131.166 197.283 131.676 196.482 131.497 195.673C131.318 194.864 130.517 194.354 129.709 194.533L130.357 197.462ZM144.81 190.72C144.013 190.946 143.55 191.775 143.776 192.572C144.002 193.369 144.831 193.832 145.628 193.607L144.81 190.72ZM160.662 188.89C161.445 188.62 161.862 187.767 161.592 186.983C161.323 186.2 160.469 185.784 159.686 186.053L160.662 188.89ZM174.294 180.582C173.526 180.893 173.156 181.768 173.467 182.536C173.778 183.303 174.652 183.674 175.42 183.363L174.294 180.582ZM189.867 177.066C190.617 176.716 190.942 175.823 190.591 175.072C190.241 174.322 189.348 173.998 188.597 174.348L189.867 177.066ZM202.563 167.385C201.831 167.774 201.553 168.682 201.941 169.413C202.33 170.145 203.238 170.424 203.97 170.035L202.563 167.385ZM217.696 162.299C218.407 161.874 218.64 160.953 218.215 160.242C217.79 159.531 216.869 159.298 216.158 159.723L217.696 162.299ZM229.349 151.388C228.66 151.848 228.475 152.779 228.935 153.468C229.395 154.157 230.326 154.343 231.015 153.883L229.349 151.388ZM243.892 144.812C244.557 144.318 244.696 143.378 244.202 142.713C243.708 142.048 242.769 141.909 242.104 142.403L243.892 144.812ZM254.388 132.793C253.749 133.32 253.657 134.265 254.184 134.905C254.71 135.544 255.656 135.636 256.295 135.109L254.388 132.793ZM268.196 124.793C268.808 124.235 268.851 123.286 268.293 122.674C267.735 122.062 266.786 122.018 266.174 122.577L268.196 124.793ZM277.429 111.777C276.846 112.365 276.85 113.315 277.439 113.898C278.027 114.481 278.977 114.476 279.56 113.888L277.429 111.777ZM290.356 102.417C290.908 101.799 290.855 100.851 290.238 100.299C289.62 99.7465 288.672 99.7995 288.12 100.417L290.356 102.417ZM298.216 88.5246C297.696 89.1697 297.798 90.114 298.443 90.6337C299.088 91.1535 300.032 91.0519 300.552 90.4068L298.216 88.5246ZM310.115 77.892C310.601 77.221 310.45 76.2832 309.779 75.7973C309.108 75.3115 308.171 75.4616 307.685 76.1326L310.115 77.892ZM316.5 63.2726C316.049 63.9678 316.247 64.8966 316.943 65.3472C317.638 65.7978 318.567 65.5995 319.017 64.9044L316.5 63.2726ZM327.237 51.4767C327.652 50.7593 327.406 49.8419 326.688 49.4277C325.971 49.0135 325.053 49.2594 324.639 49.9768L327.237 51.4767ZM332.084 36.2811C331.707 37.0189 332 37.9224 332.737 38.2993C333.475 38.6761 334.379 38.3836 334.756 37.6458L332.084 36.2811ZM341.557 23.4499C341.896 22.6939 341.557 21.8064 340.801 21.4676C340.045 21.1287 339.158 21.4669 338.819 22.2229L341.557 23.4499ZM344.835 7.83979C344.535 8.61183 344.917 9.48122 345.689 9.78161C346.461 10.082 347.331 9.69966 347.631 8.92762L344.835 7.83979ZM1.06802 179.95C3.13156 181.587 5.28938 183.136 7.53583 184.599L9.17277 182.085C7.00202 180.671 4.92015 179.176 2.93198 177.6L1.06802 179.95ZM21.5281 192.115C26.2626 194.193 31.2622 195.978 36.4927 197.47L37.3154 194.585C32.2067 193.128 27.3358 191.388 22.734 189.368L21.5281 192.115ZM51.9233 200.916C57.0177 201.764 62.276 202.374 67.6735 202.745L67.8793 199.752C62.5727 199.387 57.4103 198.788 52.4159 197.957L51.9233 200.916ZM83.4274 203.157C88.5915 203.081 93.8537 202.806 99.1954 202.331L98.9297 199.343C93.6592 199.812 88.4711 200.083 83.3837 200.157L83.4274 203.157ZM114.88 200.395C119.99 199.592 125.154 198.614 130.357 197.462L129.709 194.533C124.565 195.672 119.462 196.638 114.414 197.432L114.88 200.395ZM145.628 193.607C150.622 192.192 155.637 190.62 160.662 188.89L159.686 186.053C154.713 187.765 149.75 189.321 144.81 190.72L145.628 193.607ZM175.42 183.363C180.242 181.409 185.062 179.31 189.867 177.066L188.597 174.348C183.839 176.57 179.068 178.648 174.294 180.582L175.42 183.363ZM203.97 170.035C208.572 167.592 213.151 165.014 217.696 162.299L216.158 159.723C211.656 162.412 207.121 164.966 202.563 167.385L203.97 170.035ZM231.015 153.883C235.352 150.988 239.647 147.964 243.892 144.812L242.104 142.403C237.899 145.525 233.645 148.52 229.349 151.388L231.015 153.883ZM256.295 135.109C260.322 131.793 264.291 128.354 268.196 124.793L266.174 122.577C262.307 126.103 258.376 129.509 254.388 132.793L256.295 135.109ZM279.56 113.888C283.232 110.181 286.833 106.357 290.356 102.417L288.12 100.417C284.631 104.319 281.065 108.105 277.429 111.777L279.56 113.888ZM300.552 90.4068C303.824 86.346 307.014 82.1745 310.115 77.892L307.685 76.1326C304.614 80.373 301.456 84.5036 298.216 88.5246L300.552 90.4068ZM319.017 64.9044C321.851 60.5333 324.593 56.0575 327.237 51.4767L324.639 49.9768C322.021 54.5126 319.305 58.9445 316.5 63.2726L319.017 64.9044ZM334.756 37.6458C337.122 33.0122 339.392 28.2803 341.557 23.4499L338.819 22.2229C336.675 27.0066 334.428 31.6927 332.084 36.2811L334.756 37.6458ZM347.631 8.92762C348.584 6.47809 349.511 4.00514 350.411 1.50876L347.589 0.491241C346.697 2.96407 345.779 5.41357 344.835 7.83979L347.631 8.92762Z" fill="#0F3C65"/>
</svg>
