<svg width="60" height="60" viewBox="0 0 60 60" fill="none" xmlns="http://www.w3.org/2000/svg">
<g clip-path="url(#clip0_2854_528)">
<path d="M10 40C10 42.2125 10.975 44.175 12.5 45.55V50C12.5 51.375 13.625 52.5 15 52.5H17.5C18.163 52.5 18.7989 52.2366 19.2678 51.7678C19.7366 51.2989 20 50.663 20 50V47.5H40V50C40 50.663 40.2634 51.2989 40.7322 51.7678C41.2011 52.2366 41.837 52.5 42.5 52.5H45C46.375 52.5 47.5 51.375 47.5 50V45.55C49.025 44.175 50 42.2125 50 40V15C50 6.25 41.05 5 30 5C18.95 5 10 6.25 10 15V40ZM18.75 42.5C16.675 42.5 15 40.825 15 38.75C15 36.675 16.675 35 18.75 35C20.825 35 22.5 36.675 22.5 38.75C22.5 40.825 20.825 42.5 18.75 42.5ZM41.25 42.5C39.175 42.5 37.5 40.825 37.5 38.75C37.5 36.675 39.175 35 41.25 35C43.325 35 45 36.675 45 38.75C45 40.825 43.325 42.5 41.25 42.5ZM45 27.5H15V15H45V27.5Z" fill="#9D0208"/>
</g>
<defs>
<clipPath id="clip0_2854_528">
<rect width="60" height="60" fill="white"/>
</clipPath>
</defs>
</svg>
