<svg width="20" height="20" viewBox="0 0 20 20" fill="none" xmlns="http://www.w3.org/2000/svg">
<path fill-rule="evenodd" clip-rule="evenodd" d="M10 17.9166C6.64096 17.9166 4.96183 17.9166 3.91842 16.7568C2.875 15.5986 2.875 13.7318 2.875 9.99992C2.875 6.268 2.875 4.40204 3.91842 3.24225C4.96183 2.08325 6.64175 2.08325 10 2.08325C13.359 2.08325 15.0382 2.08325 16.0816 3.24225C17.125 4.40284 17.125 6.268 17.125 9.99992C17.125 13.7318 17.125 15.5978 16.0816 16.7568C15.0382 17.9166 13.3583 17.9166 10 17.9166ZM12.375 5.24992H7.625C7.25688 5.24992 7.07321 5.24992 6.922 5.29029C6.72081 5.34428 6.53736 5.45024 6.39007 5.59753C6.24278 5.74482 6.13682 5.92827 6.08283 6.12946C6.04167 6.28225 6.04167 6.46592 6.04167 6.83325C6.04167 7.20058 6.04167 7.38504 6.08204 7.53625C6.13603 7.73744 6.24198 7.92089 6.38928 8.06818C6.53657 8.21548 6.72002 8.32143 6.92121 8.37542C7.074 8.41658 7.25767 8.41658 7.625 8.41658H12.375C12.7431 8.41658 12.9268 8.41659 13.078 8.37621C13.2792 8.32222 13.4626 8.21627 13.6099 8.06897C13.7572 7.92168 13.8632 7.73823 13.9172 7.53704C13.9583 7.38425 13.9583 7.20058 13.9583 6.83325C13.9583 6.46592 13.9583 6.28146 13.918 6.13025C13.864 5.92906 13.758 5.74562 13.6107 5.59832C13.4634 5.45103 13.28 5.34507 13.0788 5.29109C12.9268 5.24992 12.7423 5.24992 12.375 5.24992ZM7.625 10.7916C7.625 11.0015 7.54159 11.2029 7.39313 11.3514C7.24466 11.4998 7.0433 11.5833 6.83333 11.5833C6.62337 11.5833 6.42201 11.4998 6.27354 11.3514C6.12507 11.2029 6.04167 11.0015 6.04167 10.7916C6.04167 10.5816 6.12507 10.3803 6.27354 10.2318C6.42201 10.0833 6.62337 9.99992 6.83333 9.99992C7.0433 9.99992 7.24466 10.0833 7.39313 10.2318C7.54159 10.3803 7.625 10.5816 7.625 10.7916ZM10 11.5833C10.21 11.5833 10.4113 11.4998 10.5598 11.3514C10.7083 11.2029 10.7917 11.0015 10.7917 10.7916C10.7917 10.5816 10.7083 10.3803 10.5598 10.2318C10.4113 10.0833 10.21 9.99992 10 9.99992C9.79004 9.99992 9.58867 10.0833 9.44021 10.2318C9.29174 10.3803 9.20833 10.5816 9.20833 10.7916C9.20833 11.0015 9.29174 11.2029 9.44021 11.3514C9.58867 11.4998 9.79004 11.5833 10 11.5833ZM13.9583 10.7916C13.9583 11.0015 13.8749 11.2029 13.7265 11.3514C13.578 11.4998 13.3766 11.5833 13.1667 11.5833C12.9567 11.5833 12.7553 11.4998 12.6069 11.3514C12.4584 11.2029 12.375 11.0015 12.375 10.7916C12.375 10.5816 12.4584 10.3803 12.6069 10.2318C12.7553 10.0833 12.9567 9.99992 13.1667 9.99992C13.3766 9.99992 13.578 10.0833 13.7265 10.2318C13.8749 10.3803 13.9583 10.5816 13.9583 10.7916ZM13.1667 14.7499C13.3766 14.7499 13.578 14.6665 13.7265 14.518C13.8749 14.3696 13.9583 14.1682 13.9583 13.9583C13.9583 13.7483 13.8749 13.5469 13.7265 13.3985C13.578 13.25 13.3766 13.1666 13.1667 13.1666C12.9567 13.1666 12.7553 13.25 12.6069 13.3985C12.4584 13.5469 12.375 13.7483 12.375 13.9583C12.375 14.1682 12.4584 14.3696 12.6069 14.518C12.7553 14.6665 12.9567 14.7499 13.1667 14.7499ZM10.7917 13.9583C10.7917 14.1682 10.7083 14.3696 10.5598 14.518C10.4113 14.6665 10.21 14.7499 10 14.7499C9.79004 14.7499 9.58867 14.6665 9.44021 14.518C9.29174 14.3696 9.20833 14.1682 9.20833 13.9583C9.20833 13.7483 9.29174 13.5469 9.44021 13.3985C9.58867 13.25 9.79004 13.1666 10 13.1666C10.21 13.1666 10.4113 13.25 10.5598 13.3985C10.7083 13.5469 10.7917 13.7483 10.7917 13.9583ZM6.83333 14.7499C7.0433 14.7499 7.24466 14.6665 7.39313 14.518C7.54159 14.3696 7.625 14.1682 7.625 13.9583C7.625 13.7483 7.54159 13.5469 7.39313 13.3985C7.24466 13.25 7.0433 13.1666 6.83333 13.1666C6.62337 13.1666 6.42201 13.25 6.27354 13.3985C6.12507 13.5469 6.04167 13.7483 6.04167 13.9583C6.04167 14.1682 6.12507 14.3696 6.27354 14.518C6.42201 14.6665 6.62337 14.7499 6.83333 14.7499Z" fill="white"/>
</svg>
