<svg width="60" height="60" viewBox="0 0 60 60" fill="none" xmlns="http://www.w3.org/2000/svg">
<path d="M54 3H27C23.7 3 21 5.7 21 9V18.5859C21 26.5466 27.4534 33 35.4141 33H41.4175C41.7905 33 42.1482 33.1482 42.4119 33.4119L50.1998 41.1998C50.4951 41.4951 51 41.2859 51 40.8683V34.4062C51 33.6296 51.6296 33 52.4062 33H54C57.3 33 60 30.303 60 27V9C60 5.7 57.3 3 54 3Z" fill="#9D0208"/>
<path d="M17.4 19.4062C17.4 18.6296 16.7704 18 15.9938 18H6C2.7 18 0 20.7 0 24V42C0 45.3 2.7 48 6 48H7.59375C8.3704 48 9 48.6296 9 49.4062V55.8683C9 56.2859 9.50491 56.4951 9.80021 56.1998L17.5881 48.4119C17.8518 48.1482 18.2095 48 18.5825 48H33C36.3 48 39 45.3 39 42V37.9504C39 37.1721 38.3679 36.5418 37.5896 36.5441L31.386 36.5622C23.6683 36.5847 17.4 30.3346 17.4 22.617V19.4062Z" fill="#9D0208"/>
</svg>
