<svg width="61" height="60" viewBox="0 0 61 60" fill="none" xmlns="http://www.w3.org/2000/svg">
<path d="M37.2384 5.825C37.683 5.60272 38.1977 5.56607 38.6693 5.72312C39.1409 5.88016 39.5309 6.21805 39.7534 6.6625L45.2559 17.6675C48.6384 17.9275 50.7609 18.5925 52.1309 20.285C53.2209 21.6325 53.5709 23.3075 53.4434 25.625H7.70843C7.58093 23.3075 7.93343 21.6325 9.02093 20.285C10.3909 18.59 12.5134 17.9275 15.8959 17.6675L21.3984 6.6625C21.6229 6.22158 22.0125 5.88723 22.4823 5.73232C22.9522 5.57741 23.4643 5.61449 23.9069 5.83549C24.3496 6.05649 24.687 6.44349 24.8455 6.91215C25.0041 7.38081 24.971 7.89314 24.7534 8.3375L20.1659 17.5125C21.3734 17.5 22.6909 17.5 24.1309 17.5H37.0209C38.4609 17.5 39.7784 17.5 40.9859 17.5125L36.3984 8.3375C36.1763 7.8926 36.14 7.37769 36.2976 6.90604C36.4551 6.43439 36.7935 6.04713 37.2384 5.825Z" fill="#9D0208"/>
<path fill-rule="evenodd" clip-rule="evenodd" d="M9.4625 35.6425C9.00134 33.5609 8.57627 31.4714 8.1875 29.375H52.9625C52.5734 31.4713 52.1484 33.5608 51.6875 35.6425L50.615 40.6425C49.3975 46.325 48.79 49.165 46.7275 50.8325C44.665 52.5 41.76 52.5 35.95 52.5H25.2C19.39 52.5 16.485 52.5 14.425 50.8325C12.36 49.165 11.75 46.325 10.535 40.6425L9.4625 35.6425ZM25.575 33.125C25.0777 33.125 24.6008 33.3225 24.2492 33.6742C23.8975 34.0258 23.7 34.5027 23.7 35C23.7 35.4973 23.8975 35.9742 24.2492 36.3258C24.6008 36.6775 25.0777 36.875 25.575 36.875H35.575C36.0723 36.875 36.5492 36.6775 36.9008 36.3258C37.2525 35.9742 37.45 35.4973 37.45 35C37.45 34.5027 37.2525 34.0258 36.9008 33.6742C36.5492 33.3225 36.0723 33.125 35.575 33.125H25.575Z" fill="#9D0208"/>
</svg>
