<svg width="61" height="60" viewBox="0 0 61 60" fill="none" xmlns="http://www.w3.org/2000/svg">
<path fill-rule="evenodd" clip-rule="evenodd" d="M37.9743 28.4016L36.5916 29.7842C36.2114 30.1644 36.2114 30.7864 36.5914 31.1667L43.2916 37.8668C43.6718 38.2469 44.2938 38.2469 44.6741 37.8668L46.0568 36.4841C46.437 36.1039 46.437 35.4819 46.0568 35.1016L39.3566 28.4016C38.9764 28.0213 38.3543 28.0213 37.9743 28.4016ZM26.9536 39.4221L25.5709 40.8047C25.1909 41.1848 25.1907 41.8069 25.5709 42.187L32.2711 48.8872C32.6513 49.2674 33.2733 49.2674 33.6536 48.8872L35.0363 47.5046C35.4164 47.1245 35.4164 46.5024 35.0363 46.1222L28.3361 39.422C27.9559 39.0418 27.3339 39.0418 26.9536 39.4221ZM39.6831 39.7448C38.6275 40.6416 37.811 41.458 36.9143 42.5136C36.5175 42.9807 36.105 43.4947 35.649 44.0832L30.3749 38.8091C32.882 36.8669 34.0365 35.7124 35.9786 33.2053L41.2528 38.4794C40.6643 38.9355 40.1503 39.348 39.6831 39.7448ZM38.2102 43.8854L52.2388 58.6036C52.5076 58.8857 52.8334 59.0392 53.2071 59.06C53.5811 59.0809 53.8988 58.9632 54.1516 58.7103L55.8798 56.9821C56.1327 56.7292 56.2504 56.4115 56.2295 56.0376C56.2086 55.6638 56.0551 55.338 55.773 55.0692L41.0549 41.0407C41.0021 41.0849 40.9495 41.1293 40.897 41.1739C39.9768 41.9533 39.1226 42.8074 38.3433 43.7277C38.2986 43.7801 38.2543 43.8327 38.2102 43.8854ZM36.2065 57.6685L35.4598 54.3528C35.3619 53.9183 34.9566 53.6426 34.511 53.6426H23.8359C23.3905 53.6426 22.985 53.9184 22.8873 54.3528L22.1406 57.6685H36.2065ZM6.07172 7.06042L31.3712 7.19272V15.5229C31.3712 15.6513 31.4363 15.7615 31.5487 15.8235C31.6613 15.8855 31.7891 15.8816 31.8977 15.813L35.0316 13.8323C35.0876 13.796 35.1532 13.7771 35.22 13.7781C35.2867 13.7791 35.3517 13.7999 35.4067 13.8378L38.2194 15.7341C38.2707 15.7696 38.3309 15.7902 38.3933 15.7935C38.4556 15.7967 38.5177 15.7825 38.5724 15.7524C38.6279 15.7239 38.6743 15.6804 38.7064 15.6269C38.7386 15.5733 38.7552 15.5119 38.7544 15.4495V7.23128L42.8353 7.2526C43.4632 7.25589 43.9732 7.76846 43.9732 8.39636V30.3664L40.6823 27.0756C39.5704 25.9637 37.7603 25.9637 36.6484 27.0756L35.2657 28.4583C34.3761 29.3478 34.1981 30.6845 34.732 31.7528L34.4964 32.057C33.7325 33.043 32.9457 34.0101 32.0629 34.893C31.18 35.7759 30.2127 36.5628 29.2266 37.3267L28.9223 37.5623C27.8541 37.0284 26.5174 37.2064 25.6279 38.096L24.2452 39.4787C23.1333 40.5906 23.1332 42.4008 24.2452 43.5126L30.9454 50.2128C32.0572 51.3247 33.8674 51.3246 34.9793 50.2128L36.362 48.8303C37.2517 47.9406 37.4296 46.6041 36.8957 45.5357L37.0289 45.3636L43.9733 52.6494V56.5246C43.9733 57.1546 43.4595 57.6684 42.8295 57.6684H38.1284L37.2889 53.9408C36.9969 52.6441 35.8279 51.7676 34.511 51.7676H23.8359C22.5192 51.7676 21.35 52.6442 21.0581 53.9408L20.2187 57.6684H6.06574C5.43574 57.6684 4.92188 57.1546 4.92188 56.5246V8.20429C4.92188 7.88823 5.03496 7.61624 5.25902 7.39335C5.48309 7.17046 5.75566 7.05878 6.07172 7.06042ZM43.9733 40.0264V41.2321L42.5332 39.8594L42.7054 39.7261C43.0992 39.9226 43.5332 40.0253 43.9733 40.0264ZM12.8911 50.8787H22.3622C22.6049 50.8787 22.8377 50.7823 23.0093 50.6107C23.1809 50.4391 23.2773 50.2063 23.2773 49.9636C23.2773 49.7209 23.1809 49.4881 23.0093 49.3165C22.8377 49.1449 22.6049 49.0485 22.3622 49.0485H12.8911C12.6484 49.0485 12.4156 49.1449 12.244 49.3165C12.0724 49.4881 11.976 49.7209 11.976 49.9636C11.976 50.2063 12.0724 50.4391 12.244 50.6107C12.4156 50.7823 12.6484 50.8787 12.8911 50.8787ZM12.8911 23.6328H36.0042C36.2469 23.6328 36.4797 23.5364 36.6513 23.3648C36.8229 23.1932 36.9193 22.9604 36.9193 22.7177C36.9193 22.475 36.8229 22.2423 36.6513 22.0706C36.4797 21.899 36.2469 21.8026 36.0042 21.8026H12.8911C12.6484 21.8026 12.4156 21.899 12.244 22.0706C12.0724 22.2423 11.976 22.475 11.976 22.7177C11.976 22.9604 12.0724 23.1932 12.244 23.3648C12.4156 23.5364 12.6484 23.6328 12.8911 23.6328ZM12.8911 16.8213H22.3622C22.6049 16.8213 22.8377 16.7249 23.0093 16.5533C23.1809 16.3817 23.2773 16.1489 23.2773 15.9062C23.2773 15.6635 23.1809 15.4307 23.0093 15.2591C22.8377 15.0875 22.6049 14.9911 22.3622 14.9911H12.8911C12.6484 14.9911 12.4156 15.0875 12.244 15.2591C12.0724 15.4307 11.976 15.6635 11.976 15.9062C11.976 16.1489 12.0724 16.3817 12.244 16.5533C12.4156 16.7249 12.6484 16.8213 12.8911 16.8213ZM12.8911 30.4444H30.2985C30.5412 30.4444 30.7739 30.3479 30.9456 30.1763C31.1172 30.0047 31.2136 29.772 31.2136 29.5292C31.2136 29.2865 31.1172 29.0538 30.9456 28.8822C30.7739 28.7105 30.5412 28.6141 30.2985 28.6141H12.8911C12.6484 28.6141 12.4156 28.7105 12.244 28.8822C12.0724 29.0538 11.976 29.2865 11.976 29.5292C11.976 29.772 12.0724 30.0047 12.244 30.1763C12.4156 30.3479 12.6484 30.4444 12.8911 30.4444ZM12.8911 37.2558H22.3622C22.6049 37.2558 22.8377 37.1594 23.0093 36.9877C23.1809 36.8161 23.2773 36.5834 23.2773 36.3407C23.2773 36.0979 23.1809 35.8652 23.0093 35.6936C22.8377 35.5219 22.6049 35.4255 22.3622 35.4255H12.8911C12.6484 35.4255 12.4156 35.5219 12.244 35.6936C12.0724 35.8652 11.976 36.0979 11.976 36.3407C11.976 36.5834 12.0724 36.8161 12.244 36.9877C12.4156 37.1594 12.6484 37.2558 12.8911 37.2558ZM12.8911 44.0673H22.3622C22.6049 44.0673 22.8377 43.9709 23.0093 43.7993C23.1809 43.6276 23.2773 43.3949 23.2773 43.1522C23.2773 42.9095 23.1809 42.6767 23.0093 42.5051C22.8377 42.3335 22.6049 42.2371 22.3622 42.2371H12.8911C12.6484 42.2371 12.4156 42.3335 12.244 42.5051C12.0724 42.6767 11.976 42.9095 11.976 43.1522C11.976 43.3949 12.0724 43.6276 12.244 43.7993C12.4156 43.9709 12.6484 44.0673 12.8911 44.0673ZM12.1946 0.937487L48.9584 1.12979C49.5863 1.13307 50.0963 1.64577 50.0963 2.27366V47.0681L45.8483 43.0193V39.3335C45.9001 39.2887 45.9507 39.2419 46 39.1926L47.3827 37.8099C48.4945 36.698 48.4945 34.8878 47.3827 33.7759L45.8483 32.2416V8.39647C45.8483 6.73757 44.5042 5.38639 42.8453 5.37772L11.0448 5.21132V2.08135C11.0448 1.7653 11.1579 1.49331 11.382 1.27042C11.606 1.04753 11.8786 0.935847 12.1946 0.937487Z" fill="#9D0208"/>
</svg>
