<svg width="61" height="60" viewBox="0 0 61 60" fill="none" xmlns="http://www.w3.org/2000/svg">
<path d="M49.3263 33.75C47.3372 33.75 45.4296 34.5402 44.023 35.9467C42.6165 37.3532 41.8263 39.2609 41.8263 41.25C41.8263 46.3125 48.3888 52.0312 48.717 52.275C48.8868 52.4202 49.1029 52.5001 49.3263 52.5001C49.5498 52.5001 49.7659 52.4202 49.9357 52.275C50.2638 52.0312 56.8263 46.3125 56.8263 41.25C56.8263 39.2609 56.0362 37.3532 54.6296 35.9467C53.2231 34.5402 51.3155 33.75 49.3263 33.75ZM49.3263 44.0625C48.7701 44.0625 48.2263 43.8976 47.7638 43.5885C47.3013 43.2795 46.9408 42.8402 46.7279 42.3263C46.515 41.8124 46.4594 41.2469 46.5679 40.7013C46.6764 40.1557 46.9443 39.6546 47.3376 39.2613C47.7309 38.8679 48.2321 38.6001 48.7776 38.4915C49.3232 38.383 49.8887 38.4387 50.4026 38.6516C50.9165 38.8645 51.3558 39.2249 51.6648 39.6875C51.9739 40.15 52.1388 40.6937 52.1388 41.25C52.1388 41.9959 51.8425 42.7113 51.3151 43.2387C50.7876 43.7662 50.0723 44.0625 49.3263 44.0625ZM29.6388 16.875H25.8888C25.6402 16.875 25.4017 16.9738 25.2259 17.1496C25.0501 17.3254 24.9513 17.5639 24.9513 17.8125C24.9513 18.0611 25.0501 18.2996 25.2259 18.4754C25.4017 18.6512 25.6402 18.75 25.8888 18.75H29.6388C29.8875 18.75 30.1259 18.6512 30.3017 18.4754C30.4776 18.2996 30.5763 18.0611 30.5763 17.8125C30.5763 17.5639 30.4776 17.3254 30.3017 17.1496C30.1259 16.9738 29.8875 16.875 29.6388 16.875ZM36.5763 30.675C36.6665 30.6882 36.7581 30.6882 36.8482 30.675C38.2397 30.2524 39.4652 29.407 40.3545 28.2563C40.4302 28.159 40.486 28.0478 40.5187 27.9289C40.5515 27.8101 40.5605 27.686 40.5452 27.5637C40.53 27.4414 40.4908 27.3233 40.4299 27.2161C40.369 27.1089 40.2877 27.0148 40.1904 26.9391C40.0931 26.8634 39.9819 26.8075 39.8631 26.7748C39.7442 26.7421 39.6201 26.7331 39.4978 26.7483C39.3755 26.7635 39.2574 26.8027 39.1502 26.8636C39.043 26.9245 38.9489 27.0059 38.8732 27.1031C38.2214 27.9458 37.3237 28.565 36.3045 28.875C36.0558 28.9111 35.8317 29.0444 35.6814 29.2457C35.531 29.447 35.4668 29.6998 35.5029 29.9484C35.5389 30.1971 35.6723 30.4212 35.8736 30.5715C36.0749 30.7219 36.3277 30.7861 36.5763 30.75V30.675ZM21.4076 32.4188C21.5832 32.5934 21.8208 32.6914 22.0685 32.6914C22.3162 32.6914 22.5538 32.5934 22.7295 32.4188C23.4937 31.6597 24.4779 31.161 25.542 30.9938C25.7906 30.9527 26.0128 30.8146 26.1596 30.6098C26.3064 30.405 26.3658 30.1502 26.3248 29.9016C26.2837 29.6529 26.1456 29.4308 25.9408 29.284C25.736 29.1372 25.4812 29.0777 25.2326 29.1188C23.8123 29.3632 22.5024 30.0411 21.4826 31.0594C21.3854 31.1418 21.306 31.2431 21.2493 31.3572C21.1925 31.4713 21.1597 31.5957 21.1526 31.7229C21.1456 31.8502 21.1646 31.9775 21.2084 32.0971C21.2523 32.2167 21.32 32.3262 21.4076 32.4188ZM26.3576 41.25C25.4674 41.2516 24.592 41.0222 23.817 40.5844C23.7098 40.5228 23.5917 40.483 23.4691 40.4671C23.3466 40.4512 23.2222 40.4596 23.1029 40.4918C22.9837 40.524 22.8719 40.5794 22.774 40.6548C22.6762 40.7302 22.5941 40.8241 22.5326 40.9313C22.471 41.0384 22.4312 41.1565 22.4153 41.2791C22.3994 41.4016 22.4078 41.526 22.44 41.6453C22.4722 41.7645 22.5276 41.8763 22.603 41.9742C22.6784 42.072 22.7723 42.1541 22.8795 42.2156C23.9347 42.8241 25.1302 43.1472 26.3482 43.1531H26.9576C27.2062 43.1531 27.4447 43.0544 27.6205 42.8785C27.7963 42.7027 27.8951 42.4643 27.8951 42.2156C27.8951 41.967 27.7963 41.7285 27.6205 41.5527C27.4447 41.3769 27.2062 41.2781 26.9576 41.2781L26.3576 41.25ZM37.0826 19.1906C37.3018 19.1934 37.5151 19.1193 37.6853 18.9811C37.8555 18.8429 37.9719 18.6494 38.0143 18.4343C38.0566 18.2192 38.0222 17.996 37.9171 17.8036C37.812 17.6113 37.6427 17.4618 37.4388 17.3813C36.5987 17.0429 35.7008 16.871 34.7951 16.875H33.3888C33.1402 16.875 32.9017 16.9738 32.7259 17.1496C32.5501 17.3254 32.4513 17.5639 32.4513 17.8125C32.4513 18.0611 32.5501 18.2996 32.7259 18.4754C32.9017 18.6512 33.1402 18.75 33.3888 18.75H34.7951C35.457 18.7492 36.1128 18.8765 36.7263 19.125C36.8397 19.1698 36.9607 19.1921 37.0826 19.1906ZM28.167 30C28.167 30.2486 28.2657 30.4871 28.4415 30.6629C28.6174 30.8387 28.8558 30.9375 29.1045 30.9375H32.8545C33.1031 30.9375 33.3416 30.8387 33.5174 30.6629C33.6932 30.4871 33.792 30.2486 33.792 30C33.792 29.7514 33.6932 29.5129 33.5174 29.3371C33.3416 29.1613 33.1031 29.0625 32.8545 29.0625H29.1045C28.8558 29.0625 28.6174 29.1613 28.4415 29.3371C28.2657 29.5129 28.167 29.7514 28.167 30ZM40.8888 25.1156C41.1375 25.1156 41.3759 25.0169 41.5517 24.841C41.7276 24.6652 41.8263 24.4268 41.8263 24.1781V23.8688C41.829 22.519 41.4416 21.1972 40.7107 20.0625C40.5704 19.8677 40.3607 19.7342 40.1249 19.6894C39.889 19.6447 39.645 19.6921 39.4431 19.8219C39.2411 19.9517 39.0967 20.154 39.0395 20.3872C38.9823 20.6203 39.0168 20.8665 39.1357 21.075C39.6747 21.9135 39.9581 22.8907 39.9513 23.8875V24.1219C39.9513 24.3705 40.0501 24.609 40.2259 24.7848C40.4017 24.9606 40.6402 25.0594 40.8888 25.0594V25.1156ZM20.517 34.1063C20.3957 34.0847 20.2713 34.0872 20.151 34.1136C20.0307 34.1401 19.9168 34.1901 19.8158 34.2606C19.7148 34.3311 19.6287 34.4208 19.5624 34.5247C19.4961 34.6285 19.451 34.7443 19.4295 34.8656C19.1785 36.2963 19.3749 37.7695 19.992 39.0844C20.0428 39.1981 20.1158 39.3006 20.2067 39.3858C20.2976 39.471 20.4046 39.5372 20.5214 39.5806C20.6381 39.624 20.7624 39.6437 20.8869 39.6385C21.0114 39.6333 21.1336 39.6034 21.2464 39.5504C21.3591 39.4974 21.4602 39.4225 21.5437 39.3301C21.6272 39.2376 21.6914 39.1294 21.7326 39.0118C21.7738 38.8942 21.7912 38.7696 21.7836 38.6452C21.7761 38.5209 21.7439 38.3993 21.6888 38.2875C21.2374 37.3229 21.0934 36.2429 21.2763 35.1938C21.2979 35.0725 21.2954 34.9481 21.2689 34.8278C21.2425 34.7075 21.1925 34.5936 21.122 34.4926C21.0515 34.3916 20.9617 34.3055 20.8579 34.2392C20.7541 34.1729 20.6382 34.1278 20.517 34.1063ZM34.4576 41.25H30.7076C30.4589 41.25 30.2205 41.3488 30.0447 41.5246C29.8689 41.7004 29.7701 41.9389 29.7701 42.1875C29.7701 42.4361 29.8689 42.6746 30.0447 42.8504C30.2205 43.0262 30.4589 43.125 30.7076 43.125H34.4576C34.7062 43.125 34.9447 43.0262 35.1205 42.8504C35.2963 42.6746 35.3951 42.4361 35.3951 42.1875C35.3951 41.9389 35.2963 41.7004 35.1205 41.5246C34.9447 41.3488 34.7062 41.25 34.4576 41.25ZM13.7013 16.7438L22.1388 12.0563L14.1607 7.62188C14.0182 7.5396 13.8565 7.49628 13.692 7.49628C13.5274 7.49628 13.3657 7.5396 13.2232 7.62188L5.26383 12.0563L13.7013 16.7438ZM14.6388 27.7406L22.5982 23.325C22.6311 23.3022 22.6624 23.2771 22.692 23.25C22.7465 23.2117 22.7968 23.1677 22.842 23.1188C22.9132 23.0263 22.973 22.9255 23.0201 22.8188C23.0263 22.7564 23.0263 22.6936 23.0201 22.6313C23.0423 22.5891 23.0612 22.5452 23.0763 22.5V13.6781L14.6388 18.3656V27.7406ZM4.39195 22.8094C4.43898 22.9162 4.49879 23.0169 4.57008 23.1094C4.61527 23.1583 4.66556 23.2023 4.72008 23.2406C4.74959 23.2677 4.78091 23.2928 4.81383 23.3156L12.7638 27.7406V18.3656L4.32633 13.6781V22.5C4.32352 22.5406 4.32352 22.5813 4.32633 22.6219C4.3415 22.6865 4.3635 22.7494 4.39195 22.8094Z" fill="#9D0208"/>
</svg>
