<svg width="60" height="60" viewBox="0 0 60 60" fill="none" xmlns="http://www.w3.org/2000/svg">
<path fill-rule="evenodd" clip-rule="evenodd" d="M15.8654 35.3388L7.91177 47.2685C7.34979 48.1114 7.02713 49.0911 6.97821 50.103C6.92929 51.1149 7.15593 52.1211 7.63397 53.0143C8.11202 53.9075 8.82353 54.6542 9.69264 55.1748C10.5617 55.6954 11.5558 55.9703 12.5689 55.9703H38.9336L25.1792 35.3388C24.6682 34.572 23.9757 33.9433 23.1633 33.5085C22.3509 33.0737 21.4437 32.8462 20.5223 32.8462C19.6008 32.8462 18.6937 33.0737 17.8813 33.5085C17.0689 33.9433 16.3764 34.572 15.8654 35.3388ZM33.5819 27.5692C32.4411 27.9727 31.4617 28.7349 30.7906 29.7418L28.3615 33.3852L43.4183 55.9703H47.1321C48.1452 55.9705 49.1394 55.6956 50.0086 55.1751C50.8778 54.6545 51.5894 53.9078 52.0675 53.0145C52.5455 52.1213 52.7722 51.115 52.7232 50.103C52.6742 49.0911 52.3514 48.1114 51.7892 47.2685L40.1045 29.7418C39.4333 28.7349 38.4539 27.9727 37.3131 27.5692V5.59714C37.3131 5.28841 37.2365 4.98451 37.0901 4.71268C36.9437 4.44085 36.7322 4.20959 36.4745 4.03963C36.2167 3.86967 35.9208 3.76632 35.6133 3.73885C35.3058 3.71137 34.9963 3.76064 34.7125 3.88222L25.6543 7.76431C24.9833 8.05216 24.4114 8.53054 24.0095 9.14019C23.6077 9.74984 23.3935 10.464 23.3935 11.1942C23.3935 11.9243 23.6077 12.6385 24.0095 13.2481C24.4114 13.8578 24.9833 14.3362 25.6543 14.624L33.5819 18.0216V27.5692Z" fill="#9D0208"/>
</svg>
