<svg width="64" height="60" viewBox="0 0 64 60" fill="none" xmlns="http://www.w3.org/2000/svg">
<g clip-path="url(#clip0_2751_6059)">
<path d="M18.564 7.03242C19.2801 3.94998 17.3676 0.869198 14.2923 0.151316C11.217 -0.566566 8.14352 1.35029 7.42744 4.43274C6.71136 7.51519 8.62386 10.596 11.6991 11.3138C14.7744 12.0317 17.8479 10.1149 18.564 7.03242Z" fill="#9D0208"/>
<path d="M8.88215 23.6867C6.55356 21.016 5.56083 18.4891 5.3115 17.7783L5.31048 17.7745L5.3026 17.7515C4.85885 16.4188 5.57989 14.973 6.90887 14.5284C7.16939 14.441 7.44006 14.397 7.71252 14.397C8.80641 14.397 9.77449 15.0955 10.1229 16.1353L10.1374 16.1743C10.1532 16.2188 10.1829 16.2955 10.2256 16.3982C10.3103 16.6035 10.4541 16.9312 10.6638 17.3363C10.8127 17.6239 11.0064 17.9709 11.2445 18.3536C11.2679 18.2374 11.2918 18.1182 11.3139 18.005C12.0431 15.4693 11.089 12.4344 8.91976 11.8925C6.75003 11.3501 3.60484 12.5315 2.32516 16.2619C0.595623 21.4017 0.223792 24.7471 0.881041 30.4066C1.41375 33.1554 2.84923 34.2504 4.43898 34.6651C5.11046 36.9838 5.87903 40.5517 5.87293 44.7088C5.87242 48.0889 5.3758 51.8501 3.95049 55.7078C3.34128 57.3572 4.18127 59.1898 5.82693 59.8005C6.19088 59.9353 6.56348 59.9992 6.92997 59.9995C8.22109 59.9995 9.43468 59.2046 9.90996 57.9198C11.6364 53.2444 12.2271 48.7118 12.2266 44.7088C12.218 38.54 10.8473 33.614 9.96892 31.0802C9.96867 31.0751 9.96841 31.0706 9.96841 31.0655C9.70536 29.0986 9.81058 26.984 10.0683 24.9275C9.60421 24.4852 9.20823 24.0633 8.88215 23.6867ZM63.1187 51.7217C63.1187 51.1591 62.6637 50.7031 62.1026 50.7031L28.2883 50.7026L29.0388 47.2239C29.0673 47.0912 29.0696 46.9633 29.0462 46.8295L25.7421 28.2314C25.6865 27.9193 25.487 27.6482 25.2064 27.504C25.135 27.4671 25.0597 27.4398 24.983 27.4209C24.9942 27.5511 24.9987 27.6823 24.9898 27.8153C24.9009 29.1486 23.7887 30.1931 22.4567 30.1931H22.4556C22.4005 30.1931 22.3448 30.1916 22.2894 30.1883C21.2858 30.1233 20.3403 29.9911 19.4472 29.8084L18.9663 30.0377C18.4595 30.2795 18.2438 30.8881 18.4855 31.3964C18.7272 31.9044 19.3338 32.1202 19.8409 31.8787V31.8779L23.974 29.9052L24.4724 32.7105L21.4454 33.1724C21.1678 33.2147 20.9772 33.4751 21.0189 33.7531C21.0573 34.005 21.2743 34.1859 21.5214 34.1859C21.547 34.1859 21.5724 34.1839 21.5986 34.1801L24.6508 33.7141L27.0091 46.9898L26.0349 51.5069C25.9696 51.8091 26.0436 52.1212 26.2375 52.3619C26.4312 52.6027 26.7199 52.741 27.0284 52.741H62.1026C62.6637 52.7408 63.1187 52.2842 63.1187 51.7217Z" fill="#9D0208"/>
<path d="M22.4565 29.6836C23.5176 29.6838 24.4112 28.8581 24.4831 27.7815C24.5573 26.6582 23.71 25.6867 22.5896 25.6123C17.4633 25.2554 14.3389 22.9426 12.324 20.6651C11.3285 19.5268 10.6412 18.3984 10.2132 17.5707C9.99897 17.1569 9.84876 16.8188 9.7565 16.5944C9.70999 16.4823 9.67797 16.3985 9.65942 16.3478C9.65027 16.3225 9.64366 16.3055 9.64137 16.2976C9.28453 15.2311 8.13422 14.6561 7.07007 15.0115C6.0054 15.3671 5.42949 16.5218 5.78454 17.5898V17.5893C5.84224 17.7505 6.74932 20.4654 9.26598 23.352C11.7628 26.234 16.0093 29.2714 22.319 29.6787C22.3655 29.6823 22.411 29.6836 22.4565 29.6836Z" fill="#9D0208"/>
<path d="M29.2418 59.5226C30.7453 59.5226 31.9641 58.3008 31.9641 56.7937C31.9641 55.2866 30.7453 54.0648 29.2418 54.0648C27.7383 54.0648 26.5195 55.2866 26.5195 56.7937C26.5195 58.3008 27.7383 59.5226 29.2418 59.5226Z" fill="#9D0208"/>
<path d="M58.7457 59.5226C60.2492 59.5226 61.468 58.3008 61.468 56.7937C61.468 55.2866 60.2492 54.0648 58.7457 54.0648C57.2422 54.0648 56.0234 55.2866 56.0234 56.7937C56.0234 58.3008 57.2422 59.5226 58.7457 59.5226Z" fill="#9D0208"/>
<path d="M40.0786 23.9321H53.1192C53.7452 23.9321 54.253 23.423 54.253 22.7955V18.2489C54.253 17.6211 53.7452 17.1121 53.1192 17.1121H40.0786C39.4527 17.1121 38.9448 17.6211 38.9448 18.2489V19.5281H35.8263V21.5171H38.9448V22.796C38.9448 23.423 39.4527 23.9321 40.0786 23.9321ZM59.6477 37.8465H32.1988C31.3565 37.8465 30.6738 38.5313 30.6738 39.3751V47.2731C30.6738 48.1174 31.3565 48.8017 32.1988 48.8017H59.6477C60.4897 48.8017 61.1726 48.1174 61.1726 47.2731V39.3751C61.1726 38.5313 60.4897 37.8465 59.6477 37.8465ZM48.3799 46.254H43.4663C42.3429 46.2535 41.4333 45.3416 41.4333 44.2155V42.6872H42.4494L42.4499 44.2155C42.4507 44.7786 42.9046 45.2336 43.4663 45.2346H48.3799C48.9411 45.2336 49.395 44.7786 49.3963 44.2155V42.6872H49.3968H50.4124L50.4132 44.2155C50.4124 45.3416 49.5028 46.2535 48.3799 46.254ZM59.8383 41.0311H56.8837V42.8782H55.5494V41.0311H36.297V42.8782H34.9627V41.0311H32.0082V40.5216H59.8383V41.0311ZM61.1726 27.146C61.1726 26.3022 60.4895 25.6174 59.6477 25.6174H32.1988C31.3565 25.6174 30.6738 26.3022 30.6738 27.146V35.044C30.6738 35.8886 31.3565 36.5726 32.1988 36.5726H59.6477C60.4897 36.5726 61.1726 35.8886 61.1726 35.044V27.146ZM50.4132 31.9867C50.4132 33.1123 49.503 34.0244 48.3797 34.0249H43.4663C42.3429 34.0244 41.4328 33.1123 41.4328 31.9867L41.4336 30.4578H42.4494L42.4499 31.9867C42.4509 32.5493 42.9046 33.0045 43.4663 33.0055H48.3797C48.9413 33.0045 49.395 32.5493 49.3965 31.9867V30.4578H50.4132V31.9867ZM59.8383 28.8021H56.8837V30.6492H55.5494V28.8021H36.297V30.6492H34.9627V28.8021H32.0082V28.2925H59.8383V28.8021ZM54.9016 56.7937C54.9016 56.3715 54.56 56.0294 54.1391 56.0294H33.9758C33.5544 56.0294 33.2134 56.3715 33.2134 56.7937C33.2134 57.2158 33.5544 57.558 33.9758 57.558H54.1391C54.5602 57.558 54.9016 57.2158 54.9016 56.7937Z" fill="#9D0208"/>
</g>
<defs>
<clipPath id="clip0_2751_6059">
<rect width="62.5424" height="60" fill="white" transform="translate(0.576172)"/>
</clipPath>
</defs>
</svg>
