<svg width="29" height="28" viewBox="0 0 29 28" fill="none" xmlns="http://www.w3.org/2000/svg">
<path d="M21.0722 3.84207C20.8534 3.62336 20.5568 3.50049 20.2474 3.50049C19.938 3.50049 19.6413 3.62336 19.4226 3.84207L16.5059 6.75874C16.2934 6.97878 16.1758 7.27348 16.1784 7.57937C16.1811 7.88527 16.3038 8.17788 16.5201 8.39419C16.7364 8.6105 17.029 8.7332 17.3349 8.73586C17.6408 8.73852 17.9355 8.62092 18.1556 8.40841L20.2474 6.31657L22.3392 8.40841C22.4468 8.51983 22.5756 8.60871 22.7179 8.66986C22.8603 8.731 23.0134 8.76319 23.1683 8.76453C23.3232 8.76588 23.4768 8.73636 23.6202 8.6777C23.7636 8.61904 23.8938 8.53241 24.0034 8.42287C24.1129 8.31332 24.1995 8.18306 24.2582 8.03969C24.3168 7.89631 24.3464 7.74268 24.345 7.58777C24.3437 7.43286 24.3115 7.27977 24.2503 7.13743C24.1892 6.9951 24.1003 6.86636 23.9889 6.75874L21.0722 3.84207ZM8.58073 4.65874C7.80718 4.65874 7.06532 4.96603 6.51833 5.51301C5.97135 6.05999 5.66406 6.80186 5.66406 7.57541V20.4087C5.66406 21.1823 5.97135 21.9242 6.51833 22.4711C7.06532 23.0181 7.80718 23.3254 8.58073 23.3254H13.2474C13.5568 23.3254 13.8536 23.2025 14.0724 22.9837C14.2911 22.7649 14.4141 22.4682 14.4141 22.1587C14.4141 21.8493 14.2911 21.5526 14.0724 21.3338C13.8536 21.115 13.5568 20.9921 13.2474 20.9921H8.58073C8.42602 20.9921 8.27765 20.9306 8.16825 20.8212C8.05885 20.7118 7.9974 20.5634 7.9974 20.4087V7.57541C7.9974 7.4207 8.05885 7.27232 8.16825 7.16293C8.27765 7.05353 8.42602 6.99207 8.58073 6.99207H13.2474C13.5568 6.99207 13.8536 6.86916 14.0724 6.65036C14.2911 6.43157 14.4141 6.13482 14.4141 5.82541C14.4141 5.51599 14.2911 5.21924 14.0724 5.00045C13.8536 4.78166 13.5568 4.65874 13.2474 4.65874H8.58073ZM21.0722 24.1584L23.9889 21.2417C24.2014 21.0217 24.319 20.727 24.3163 20.4211C24.3137 20.1152 24.191 19.8226 23.9747 19.6063C23.7584 19.39 23.4658 19.2673 23.1599 19.2646C22.854 19.262 22.5593 19.3796 22.3392 19.5921L20.2474 21.6839L18.1556 19.5921C17.9355 19.3796 17.6408 19.262 17.3349 19.2646C17.029 19.2673 16.7364 19.39 16.5201 19.6063C16.3038 19.8226 16.1811 20.1152 16.1784 20.4211C16.1758 20.727 16.2934 21.0217 16.5059 21.2417L19.4226 24.1584C19.6413 24.3771 19.938 24.5 20.2474 24.5C20.5568 24.5 20.8534 24.3771 21.0722 24.1584ZM21.4141 14.0002C21.4141 13.6908 21.2911 13.3941 21.0724 13.1753C20.8536 12.9565 20.5568 12.8336 20.2474 12.8336C19.938 12.8336 19.6412 12.9565 19.4224 13.1753C19.2036 13.3941 19.0807 13.6908 19.0807 14.0002C19.0807 14.3097 19.2036 14.6064 19.4224 14.8252C19.6412 15.044 19.938 15.1669 20.2474 15.1669C20.5568 15.1669 20.8536 15.044 21.0724 14.8252C21.2911 14.6064 21.4141 14.3097 21.4141 14.0002ZM20.2474 16.3336C20.5568 16.3336 20.8536 16.4565 21.0724 16.6753C21.2911 16.8941 21.4141 17.1908 21.4141 17.5002V18.6669C21.4141 18.9763 21.2911 19.2731 21.0724 19.4919C20.8536 19.7107 20.5568 19.8336 20.2474 19.8336C19.938 19.8336 19.6412 19.7107 19.4224 19.4919C19.2036 19.2731 19.0807 18.9763 19.0807 18.6669V17.5002C19.0807 17.1908 19.2036 16.8941 19.4224 16.6753C19.6412 16.4565 19.938 16.3336 20.2474 16.3336ZM20.2474 8.16691C19.938 8.16691 19.6412 8.28982 19.4224 8.50861C19.2036 8.72741 19.0807 9.02415 19.0807 9.33357V10.5002C19.0807 10.8097 19.2036 11.1064 19.4224 11.3252C19.6412 11.544 19.938 11.6669 20.2474 11.6669C20.5568 11.6669 20.8536 11.544 21.0724 11.3252C21.2911 11.1064 21.4141 10.8097 21.4141 10.5002V9.33357C21.4141 9.02415 21.2911 8.72741 21.0724 8.50861C20.8536 8.28982 20.5568 8.16691 20.2474 8.16691Z" fill="white"/>
</svg>
