<svg width="19" height="19" viewBox="0 0 19 19" fill="none" xmlns="http://www.w3.org/2000/svg">
<path d="M9.49614 1.78174C8.62996 1.78174 7.79294 2.04877 7.17584 2.63895C6.55649 3.23137 6.19745 4.12448 6.19745 5.21956C6.19745 6.46498 6.93797 7.82709 7.63362 8.98051C8.3315 10.1362 9.02939 11.0383 9.02939 11.0383C9.08493 11.1102 9.15631 11.1684 9.23801 11.2084C9.31972 11.2485 9.40956 11.2693 9.50063 11.2693C9.5917 11.2693 9.68154 11.2485 9.76325 11.2084C9.84495 11.1684 9.91633 11.1102 9.97187 11.0383C9.97187 11.0383 10.6675 10.1362 11.3632 8.98051C12.0588 7.82709 12.7993 6.46722 12.7993 5.21956C12.7993 4.12448 12.4403 3.23137 11.8232 2.63895C11.2061 2.04877 10.3668 1.78174 9.49614 1.78174ZM9.49839 4.13121C9.60938 4.13121 9.71929 4.15253 9.82181 4.19394C9.92433 4.23536 10.0174 4.29606 10.0958 4.37256C10.1742 4.44906 10.2363 4.53987 10.2786 4.63977C10.3208 4.73968 10.3424 4.84672 10.3421 4.95476C10.3424 5.06281 10.3208 5.16985 10.2786 5.26975C10.2363 5.36966 10.1742 5.46046 10.0958 5.53697C10.0174 5.61347 9.92433 5.67417 9.82181 5.71558C9.71929 5.757 9.60938 5.77831 9.49839 5.77831C9.38739 5.77831 9.27748 5.757 9.17496 5.71558C9.07245 5.67417 8.97933 5.61347 8.90095 5.53697C8.82257 5.46046 8.76047 5.36966 8.7182 5.26975C8.67594 5.16985 8.65434 5.06281 8.65464 4.95476C8.65434 4.84672 8.67594 4.73968 8.7182 4.63977C8.76047 4.53987 8.82257 4.44906 8.90095 4.37256C8.97933 4.29606 9.07245 4.23536 9.17496 4.19394C9.27748 4.15253 9.38739 4.13121 9.49839 4.13121ZM4.70295 7.58474C4.56887 7.5814 4.43759 7.62331 4.33044 7.70367C2.73271 8.86158 1.78125 10.5468 1.78125 12.3353C1.78125 14.1956 2.81349 15.9369 4.52343 17.0993C4.58796 17.1458 4.66121 17.179 4.73884 17.1967C4.81647 17.2145 4.89689 17.2165 4.97533 17.2028C5.05377 17.189 5.12863 17.1596 5.19546 17.1165C5.2623 17.0733 5.31975 17.0172 5.36441 16.9515C5.40907 16.8858 5.44002 16.8118 5.45543 16.734C5.47083 16.6561 5.47039 16.576 5.45411 16.4983C5.43783 16.4206 5.40606 16.347 5.36067 16.2818C5.31528 16.2166 5.25721 16.1611 5.18989 16.1187C3.74924 15.1403 2.96833 13.7602 2.96833 12.3353C2.96833 10.9665 3.6909 9.638 5.03281 8.6641C5.13735 8.59298 5.21638 8.49048 5.2584 8.37152C5.30042 8.25255 5.30323 8.12333 5.26643 8.00267C5.22963 7.882 5.15513 7.77618 5.05379 7.70061C4.95244 7.62504 4.82953 7.5859 4.70295 7.58474ZM14.2736 7.64084C14.1501 7.64771 14.0319 7.69277 13.9353 7.76975C13.8387 7.84673 13.7686 7.95179 13.7348 8.07031C13.701 8.18883 13.7051 8.31491 13.7466 8.43099C13.788 8.54708 13.8648 8.64739 13.9662 8.71796C15.3081 9.6941 16.0307 11.0203 16.0307 12.3892C16.0307 13.7894 15.2767 15.147 13.8787 16.1232C13.8145 16.1677 13.7597 16.2243 13.7175 16.2899C13.6753 16.3554 13.6465 16.4286 13.6326 16.5053C13.6188 16.582 13.6203 16.6606 13.637 16.7367C13.6536 16.8128 13.6852 16.8849 13.7299 16.9488C13.7745 17.0128 13.8314 17.0673 13.8972 17.1094C13.963 17.1514 14.0365 17.1802 14.1134 17.1939C14.1904 17.2077 14.2693 17.2062 14.3457 17.1896C14.4221 17.173 14.4944 17.1416 14.5586 17.0971C16.2192 15.9347 17.2178 14.218 17.2178 12.3892C17.2178 10.6029 16.2596 8.92217 14.6618 7.76201C14.5508 7.67741 14.4133 7.63451 14.2736 7.64084ZM6.39044 9.27896C6.27761 9.2789 6.16709 9.3108 6.07179 9.37097C4.90715 10.0689 4.15541 11.146 4.15541 12.3375C4.15541 13.6032 5.0014 14.7319 6.28721 15.4253C6.35626 15.4661 6.43288 15.4925 6.51246 15.503C6.59204 15.5135 6.67293 15.5079 6.75025 15.4864C6.82758 15.4649 6.89974 15.4281 6.96239 15.3781C7.02504 15.3281 7.07687 15.266 7.11477 15.1955C7.15267 15.125 7.17586 15.0476 7.18292 14.9679C7.18999 14.8882 7.18079 14.808 7.15588 14.7319C7.13097 14.6559 7.09087 14.5857 7.038 14.5255C6.98512 14.4654 6.92056 14.4165 6.84822 14.3818C5.84066 13.8365 5.34473 13.0736 5.34473 12.3375C5.34473 11.6419 5.77782 10.9283 6.67991 10.3875C6.79425 10.3233 6.88406 10.2233 6.93535 10.1029C6.98665 9.9826 6.99655 9.84875 6.96351 9.72222C6.93047 9.5957 6.85634 9.48362 6.75269 9.40344C6.64903 9.32326 6.52167 9.2795 6.39044 9.27896ZM12.5861 9.33731C12.4578 9.34316 12.3349 9.39024 12.2357 9.4715C12.1364 9.55276 12.0663 9.66385 12.0357 9.78813C12.0052 9.91241 12.0158 10.0432 12.0661 10.161C12.1164 10.2787 12.2036 10.3771 12.3146 10.4414C13.2167 10.9822 13.6543 11.698 13.6543 12.3892C13.6543 13.1072 13.183 13.8522 12.2226 14.3953C12.1547 14.4338 12.0951 14.4852 12.0472 14.5466C11.9992 14.608 11.9639 14.6782 11.9432 14.7532C11.9225 14.8282 11.9168 14.9066 11.9265 14.9838C11.9362 15.061 11.961 15.1355 11.9996 15.2032C12.0382 15.2708 12.0898 15.3302 12.1515 15.3779C12.2131 15.4257 12.2836 15.4609 12.3589 15.4815C12.4342 15.5022 12.5128 15.5078 12.5903 15.4982C12.6678 15.4885 12.7427 15.4638 12.8105 15.4253C14.0403 14.7297 14.8414 13.6234 14.8414 12.3892C14.8414 11.1998 14.0919 10.1227 12.9272 9.42482C12.8253 9.36122 12.7063 9.33217 12.5861 9.33731ZM7.66503 10.5715C7.59105 10.573 7.51799 10.5882 7.44961 10.6164C7.05823 10.7586 6.70171 10.9828 6.4039 11.2739C6.11661 11.5545 5.94999 11.9361 5.93939 12.3375C5.93939 12.7886 6.17277 13.1903 6.49142 13.482C6.81007 13.776 7.22072 13.9891 7.70318 14.1462C7.77743 14.1704 7.85574 14.1798 7.93363 14.1739C8.01153 14.168 8.0875 14.1468 8.15719 14.1117C8.22688 14.0765 8.28893 14.028 8.33981 13.9689C8.39068 13.9098 8.42938 13.8414 8.45369 13.7674C8.478 13.6934 8.48745 13.6154 8.4815 13.5378C8.47555 13.4602 8.45431 13.3845 8.419 13.3151C8.38369 13.2457 8.335 13.1839 8.27571 13.1332C8.21642 13.0825 8.14769 13.0439 8.07344 13.0197C7.78782 12.9365 7.52212 12.796 7.29253 12.6068C7.14442 12.4722 7.12647 12.3869 7.12647 12.3375C7.12647 12.2927 7.13769 12.2186 7.25438 12.0997C7.43665 11.9335 7.65026 11.8053 7.8827 11.7227C8.01696 11.6759 8.12992 11.5826 8.20108 11.4599C8.27225 11.3372 8.2969 11.1932 8.27056 11.0539C8.24423 10.9146 8.16866 10.7894 8.05756 10.7009C7.94646 10.6124 7.80719 10.5665 7.66503 10.5715ZM11.316 10.6231C11.1741 10.6205 11.036 10.6684 10.9265 10.7584C10.817 10.8484 10.7434 10.9744 10.719 11.1136C10.6946 11.2529 10.7211 11.3963 10.7935 11.5179C10.8659 11.6394 10.9797 11.7312 11.1141 11.7765C11.3459 11.858 11.5588 11.9855 11.7401 12.1513C11.8568 12.2702 11.8725 12.3443 11.8725 12.3892C11.8725 12.4385 11.8568 12.5193 11.7222 12.6472C11.5132 12.8254 11.2705 12.9597 11.0086 13.0422C10.8598 13.0945 10.7379 13.2039 10.6698 13.3461C10.6016 13.4883 10.5927 13.6518 10.6451 13.8006C10.6974 13.9494 10.8068 14.0713 10.949 14.1395C11.0913 14.2077 11.2548 14.2165 11.4035 14.1642C11.8568 14.0026 12.2473 13.7894 12.548 13.5022C12.7037 13.3606 12.8292 13.189 12.9171 12.9978C13.005 12.8065 13.0535 12.5995 13.0596 12.3892C13.0486 11.9878 12.882 11.6064 12.5951 11.3255C12.2962 11.0364 11.9389 10.8145 11.5472 10.6747C11.4744 10.6423 11.3958 10.6247 11.316 10.6231Z" fill="#9D0208"/>
</svg>
