<svg width="29" height="28" viewBox="0 0 29 28" fill="none" xmlns="http://www.w3.org/2000/svg">
<path d="M11.043 2.3335C10.6493 2.3335 10.3301 2.6527 10.3301 3.04646V5.89831C10.3301 6.29207 10.6493 6.61127 11.043 6.61127H22.4504C22.8442 6.61127 23.1634 6.29207 23.1634 5.89831V3.04646C23.1634 2.6527 22.8442 2.3335 22.4504 2.3335H11.043ZM21.7375 4.47239C21.7375 4.86614 21.4183 5.18535 21.0245 5.18535H12.469C12.0752 5.18535 11.756 4.86614 11.756 4.47239C11.756 4.07863 12.0752 3.75942 12.469 3.75942H21.0245C21.4183 3.75942 21.7375 4.07863 21.7375 4.47239ZM21.0245 8.0372C21.0245 7.64344 21.3437 7.32424 21.7375 7.32424C22.1312 7.32424 22.4504 7.64344 22.4504 8.0372V14.4539C22.4504 14.8476 22.1312 15.1668 21.7375 15.1668H11.756C11.3622 15.1668 11.043 14.8476 11.043 14.4539V8.0372C11.043 7.64344 11.3622 7.32424 11.756 7.32424C12.1498 7.32424 12.469 7.64344 12.469 8.0372V13.7409H21.0245V8.0372ZM18.8856 8.39368C18.8856 8.98432 18.4068 9.46313 17.8162 9.46313H15.6773C15.0867 9.46313 14.6079 8.98432 14.6079 8.39368C14.6079 8.19405 14.7647 8.0372 14.9643 8.0372H18.5292C18.7288 8.0372 18.8856 8.19405 18.8856 8.39368Z" fill="white"/>
<path d="M26.3225 21.256L23.4061 24.1727C23.1861 24.3852 22.8902 24.5028 22.5844 24.5001C22.2785 24.4975 21.9859 24.3748 21.7696 24.1585C21.5533 23.9421 21.4306 23.6495 21.428 23.3436C21.4253 23.0377 21.5429 22.743 21.7554 22.523L23.8471 20.4312L21.7554 18.3393C21.5367 18.1204 21.4138 17.8236 21.414 17.5141C21.4141 17.2046 21.5371 16.9078 21.756 16.6891C21.9749 16.4703 22.2717 16.3475 22.5812 16.3476C22.8906 16.3477 23.1874 16.4708 23.4061 16.6897L26.3225 19.6063C26.5412 19.8251 26.6641 20.1218 26.6641 20.4312C26.6641 20.7405 26.5412 21.0372 26.3225 21.256Z" fill="white"/>
<path d="M5.66406 20.4312C5.66406 20.1218 5.78692 19.8251 6.00562 19.6063L8.9232 16.6897C9.03081 16.5782 9.15953 16.4894 9.30186 16.4282C9.44418 16.3671 9.59726 16.3349 9.75215 16.3335C9.90705 16.3322 10.0607 16.3617 10.204 16.4204C10.3474 16.479 10.4776 16.5657 10.5872 16.6752C10.6967 16.7847 10.7833 16.915 10.842 17.0584C10.9006 17.2018 10.9302 17.3554 10.9288 17.5103C10.9275 17.6652 10.8953 17.8183 10.8341 17.9606C10.773 18.103 10.6841 18.2317 10.5727 18.3393L8.48107 20.4312L10.5716 22.523C10.7841 22.743 10.9016 23.0377 10.899 23.3436C10.8963 23.6495 10.7736 23.9421 10.5573 24.1585C10.3411 24.3748 10.0485 24.4975 9.74259 24.5001C9.43672 24.5028 9.14205 24.3852 8.92203 24.1727L6.00562 21.256C5.78692 21.0372 5.66406 20.7405 5.66406 20.4312Z" fill="white"/>
<path d="M16.9889 19.6062C17.2077 19.825 17.3306 20.1217 17.3306 20.4312C17.3306 20.7406 17.2077 21.0373 16.9889 21.2561C16.7702 21.4749 16.4735 21.5978 16.1641 21.5978C15.8547 21.5978 15.558 21.4749 15.3392 21.2561C15.1204 21.0373 14.9975 20.7406 14.9975 20.4312C14.9975 20.1217 15.1204 19.825 15.3392 19.6062C15.558 19.3874 15.8547 19.2645 16.1641 19.2645C16.4735 19.2645 16.7702 19.3874 16.9889 19.6062Z" fill="white"/>
<path d="M13.4893 19.6062C13.2705 19.3874 12.9738 19.2645 12.6644 19.2645H11.4978C11.1884 19.2645 10.8917 19.3874 10.6729 19.6062C10.4541 19.825 10.3312 20.1217 10.3312 20.4312C10.3312 20.7406 10.4541 21.0373 10.6729 21.2561C10.8917 21.4749 11.1884 21.5978 11.4978 21.5978H12.6644C12.9738 21.5978 13.2705 21.4749 13.4893 21.2561C13.708 21.0373 13.8309 20.7406 13.8309 20.4312C13.8309 20.1217 13.708 19.825 13.4893 19.6062Z" fill="white"/>
<path d="M21.6552 19.6062C21.874 19.825 21.9969 20.1217 21.9969 20.4312C21.9969 20.7406 21.874 21.0373 21.6552 21.2561C21.4364 21.4749 21.1397 21.5978 20.8303 21.5978H19.6638C19.3544 21.5978 19.0576 21.4749 18.8389 21.2561C18.6201 21.0373 18.4972 20.7406 18.4972 20.4312C18.4972 20.1217 18.6201 19.825 18.8389 19.6062C19.0576 19.3874 19.3544 19.2645 19.6638 19.2645H20.8303C21.1397 19.2645 21.4364 19.3874 21.6552 19.6062Z" fill="white"/>
</svg>
