<svg width="19" height="19" viewBox="0 0 19 19" fill="none" xmlns="http://www.w3.org/2000/svg">
<path fill-rule="evenodd" clip-rule="evenodd" d="M15.2246 5.62514C15.2821 5.60683 15.3577 5.64346 15.4333 5.74418C15.4333 5.74418 15.4333 5.74418 18.8504 9.11991C19.05 9.32135 19.05 9.62657 18.8504 9.77613C18.8504 9.77613 18.8504 9.77613 15.4333 13.2038C15.3577 13.3045 15.2821 13.3289 15.2246 13.2984C15.1671 13.2678 15.1309 13.1793 15.1309 13.0511V5.8449C15.1309 5.71976 15.1671 5.64346 15.2246 5.62514Z" fill="#9D0208"/>
<path fill-rule="evenodd" clip-rule="evenodd" d="M9.37951 0H9.62143L9.85428 0.0976707C9.85428 0.0976707 9.85428 0.0976705 13.3712 3.62601C13.5224 3.82746 13.471 3.98007 13.22 3.98007C13.22 3.98007 13.22 3.98007 11.7624 3.98007C11.5115 3.98007 11.3119 4.18151 11.3119 4.43484C11.3119 4.43484 11.3119 4.43484 11.3119 7.05363C11.3119 7.30696 11.1093 7.50841 10.8069 7.50841C10.8069 7.50841 10.8069 7.50841 8.2455 7.50841C7.9945 7.50841 7.79189 7.30696 7.79189 7.05363C7.79189 7.05363 7.79189 7.05363 7.79189 4.43484C7.79189 4.18151 7.59231 3.98007 7.33829 3.98007H5.78091C5.52991 3.98007 5.47851 3.82746 5.62971 3.62601C5.62971 3.62601 5.62971 3.62601 9.14968 0.0976707L9.37951 0Z" fill="#9D0208"/>
<path fill-rule="evenodd" clip-rule="evenodd" d="M3.86925 5.54891C3.93276 5.57944 3.97207 5.66795 3.97207 5.79614V13.1519C3.97207 13.2801 3.93276 13.3564 3.86925 13.3809C3.80877 13.4053 3.72107 13.3809 3.61826 13.3046C3.61826 13.3046 3.61826 13.3046 0.14969 9.77621C-0.0498966 9.62665 -0.0498966 9.32143 0.14969 9.11999C0.14969 9.11999 0.14969 9.11999 3.61826 5.64353C3.72107 5.54281 3.80877 5.51839 3.86925 5.54891Z" fill="#9D0208"/>
<path fill-rule="evenodd" clip-rule="evenodd" d="M8.24438 11.3389C8.24438 11.3389 8.24438 11.3389 10.8057 11.3389C11.1081 11.3389 11.3107 11.5403 11.3107 11.7936C11.3107 11.7936 11.3107 11.7936 11.3107 14.565C11.3107 14.8672 11.5103 15.0687 11.7613 15.0687H13.1191C13.3701 15.0687 13.4699 15.2182 13.2703 15.3708C13.2703 15.3708 13.2703 15.3708 9.85316 18.8473C9.75035 18.948 9.62636 18.9999 9.49935 18.9999C9.37537 18.9999 9.24836 18.948 9.14857 18.8473C9.14857 18.8473 9.14857 18.8473 5.73141 15.3708C5.5288 15.2182 5.62859 15.0687 5.87958 15.0687C5.87958 15.0687 5.87958 15.0687 7.33717 15.0687C7.59119 15.0687 7.79077 14.8672 7.79077 14.565C7.79077 14.565 7.79077 14.565 7.79077 11.7936C7.79077 11.5403 7.99338 11.3389 8.24438 11.3389Z" fill="#9D0208"/>
</svg>
