<svg width="68" height="80" viewBox="0 0 68 80" fill="none" xmlns="http://www.w3.org/2000/svg">
<g clip-path="url(#clip0_2749_7681)">
<path fill-rule="evenodd" clip-rule="evenodd" d="M46.6864 12.7798C46.8175 12.7382 46.9899 12.8214 47.1623 13.0503C47.1623 13.0503 47.1623 13.0503 54.9552 20.7195C55.4103 21.1772 55.4103 21.8706 54.9552 22.2104C54.9552 22.2104 54.9552 22.2104 47.1623 29.9975C46.9899 30.2263 46.8175 30.2818 46.6864 30.2124C46.5554 30.1431 46.4727 29.942 46.4727 29.6508V13.2791C46.4727 12.9948 46.5554 12.8214 46.6864 12.7798Z" fill="#9D0208"/>
<path fill-rule="evenodd" clip-rule="evenodd" d="M33.3562 0H33.9079L34.4389 0.221896C34.4389 0.221896 34.4389 0.221895 42.4593 8.23784C42.8041 8.6955 42.6869 9.04221 42.1145 9.04221C42.1145 9.04221 42.1145 9.04221 38.7905 9.04221C38.2181 9.04221 37.7629 9.49987 37.7629 10.0754C37.7629 10.0754 37.7629 10.0754 37.7629 16.025C37.7629 16.6005 37.3009 17.0582 36.6112 17.0582C36.6112 17.0582 36.6112 17.0582 30.77 17.0582C30.1976 17.0582 29.7356 16.6005 29.7356 16.025C29.7356 16.025 29.7356 16.025 29.7356 10.0754C29.7356 9.49987 29.2804 9.04221 28.7011 9.04221H25.1495C24.5771 9.04221 24.4599 8.6955 24.8047 8.23784C24.8047 8.23784 24.8047 8.23784 32.832 0.221896L33.3562 0Z" fill="#9D0208"/>
<path fill-rule="evenodd" clip-rule="evenodd" d="M20.7907 12.6065C20.9355 12.6759 21.0251 12.877 21.0251 13.1682V29.8797C21.0251 30.1709 20.9355 30.3443 20.7907 30.3997C20.6527 30.4552 20.4528 30.3997 20.2183 30.2264C20.2183 30.2264 20.2183 30.2264 12.3082 22.2104C11.853 21.8706 11.853 21.1772 12.3082 20.7196C12.3082 20.7196 12.3082 20.7196 20.2183 12.8215C20.4528 12.5927 20.6527 12.5372 20.7907 12.6065Z" fill="#9D0208"/>
<path fill-rule="evenodd" clip-rule="evenodd" d="M30.7709 25.7607C30.7709 25.7607 30.7709 25.7607 36.6122 25.7607C37.3018 25.7607 37.7638 26.2184 37.7638 26.7939C37.7638 26.7939 37.7638 26.7939 37.7638 33.0902C37.7638 33.7767 38.219 34.2343 38.7914 34.2343H41.8879C42.4603 34.2343 42.6878 34.5741 42.2327 34.9208C42.2327 34.9208 42.2327 34.9208 34.4398 42.8189C34.2053 43.0477 33.9226 43.1656 33.6329 43.1656C33.3502 43.1656 33.0605 43.0477 32.833 42.8189C32.833 42.8189 32.833 42.8189 25.0401 34.9208C24.578 34.5741 24.8056 34.2343 25.378 34.2343C25.378 34.2343 25.378 34.2343 28.702 34.2343C29.2813 34.2343 29.7365 33.7767 29.7365 33.0902C29.7365 33.0902 29.7365 33.0902 29.7365 26.7939C29.7365 26.2184 30.1986 25.7607 30.7709 25.7607Z" fill="#9D0208"/>
<path fill-rule="evenodd" clip-rule="evenodd" d="M10.2578 50.3008C10.2578 50.3008 10.2578 50.3008 12.775 50.3008C13.6922 50.3008 14.1542 50.7584 14.1542 51.7916C14.1542 51.7916 14.1542 51.7916 14.1542 55.4529C14.1542 55.4529 14.1542 55.4529 19.0851 55.4529C19.0851 55.4529 19.0851 55.4529 19.0851 51.7916C19.0851 50.7584 19.5403 50.3008 20.5747 50.3008C20.5747 50.3008 20.5747 50.3008 22.9816 50.3008C22.9816 50.3008 22.9816 50.3008 22.9816 52.707C22.9816 52.707 22.9816 52.707 21.954 52.707L21.8368 52.8248C21.8368 52.8248 21.8368 52.8248 21.8368 63.1291C21.8368 63.1291 21.8368 63.1291 19.0851 63.1291C19.0851 63.1291 19.0851 63.1291 19.0851 57.977C19.0851 57.977 19.0851 57.977 14.1542 57.977C14.1542 57.977 14.1542 57.977 14.1542 63.1291C14.1542 63.1291 14.1542 63.1291 11.4026 63.1291C11.4026 63.1291 11.4026 63.1291 11.4026 52.8248C11.4026 52.8248 11.4026 52.707 11.2854 52.707C11.2854 52.707 11.2854 52.707 10.2578 52.707C10.2578 52.707 10.2578 52.707 10.2578 50.3008Z" fill="#9D0208"/>
<path fill-rule="evenodd" clip-rule="evenodd" d="M30.2028 50.072L30.2648 50.079V52.7209L30.2028 52.707C28.1408 52.707 26.5339 54.4267 26.5339 56.604C26.5339 58.8923 28.1408 60.723 30.2028 60.723L30.2648 60.7091V63.351L30.2028 63.358C26.5339 63.358 23.5547 60.3832 23.5547 56.604C23.5547 52.9359 26.5339 50.072 30.2028 50.072Z" fill="#9D0208"/>
<path fill-rule="evenodd" clip-rule="evenodd" d="M30.2637 50.0791L31.5395 50.2039C34.567 50.8003 36.8497 53.3937 36.8497 56.6042C36.8497 59.9049 34.567 62.6023 31.5395 63.2194L30.2637 63.3512V60.7093L31.6636 60.4041C33.0153 59.7801 33.9877 58.3169 33.9877 56.6042C33.9877 54.9677 33.0153 53.5948 31.6636 53.0123L30.2637 52.721V50.0791Z" fill="#9D0208"/>
<path fill-rule="evenodd" clip-rule="evenodd" d="M37.4219 50.3008C37.4219 50.3008 37.4219 50.3008 41.2631 50.3008H43.0976V52.707H42.9252C42.6976 52.707 42.2355 52.707 41.3183 52.707C41.3183 52.707 41.3183 52.707 41.3183 55.342C41.3183 55.342 41.3183 55.342 42.0976 55.342H43.0976V57.6302H42.5114C42.2217 57.6302 41.8355 57.6302 41.3183 57.6302C41.3183 57.6302 41.3183 57.6302 41.3183 60.4941C41.3183 60.612 41.3183 60.612 41.4355 60.612C41.4355 60.612 41.4356 60.612 42.2562 60.612H43.0976V63.1291H42.8562C42.4424 63.1291 41.608 63.1291 39.9459 63.1291C39.0287 63.1291 38.5736 62.6714 38.5736 61.6382V52.707C38.5736 52.707 38.5736 52.707 37.4219 52.707C37.4219 52.707 37.4219 52.707 37.4219 50.3008Z" fill="#9D0208"/>
<path fill-rule="evenodd" clip-rule="evenodd" d="M43.0977 50.3008H43.1528C45.6769 50.3008 47.1665 51.6738 47.1665 53.7402C47.1665 54.9952 46.5941 55.7996 46.0217 56.3752C47.0562 56.8328 47.7389 57.977 47.7389 59.232C47.7389 61.6382 45.9045 63.1291 43.2701 63.1291C43.2701 63.1291 43.2701 63.1291 43.2218 63.1291H43.0977V60.612H43.3804C44.2976 60.612 44.8769 60.0364 44.8769 59.1211C44.8769 58.2058 44.2976 57.6302 43.3804 57.6302C43.3804 57.6302 43.3804 57.6302 43.1252 57.6302H43.0977V55.342H43.1528C43.9597 55.342 44.4149 54.7664 44.4149 53.969C44.4149 53.1646 43.9597 52.707 43.1528 52.707C43.1528 52.707 43.1528 52.707 43.1252 52.707H43.0977V50.3008Z" fill="#9D0208"/>
<path fill-rule="evenodd" clip-rule="evenodd" d="M53.0158 50.3008C53.0158 50.3008 53.0158 50.3008 54.1743 50.3008H54.3881V53.969C54.2778 54.1978 54.1606 54.5376 54.1606 54.8843C54.1606 54.8843 54.1606 54.8843 53.2433 57.5193C53.2433 57.5193 53.2433 57.5193 54.2157 57.5193H54.3881V59.9185H53.7675C53.4157 59.9185 53.0158 59.9185 52.5606 59.9185C52.5606 59.9185 52.5606 59.9185 51.7537 61.9849C51.5261 62.7824 51.071 63.1291 50.1538 63.1291C50.1538 63.1291 50.1538 63.1291 48.4297 63.1291C48.4297 63.1291 48.4297 63.1291 48.4297 60.612C48.4297 60.612 48.4297 60.612 49.0021 60.612C49.2366 60.612 49.2366 60.612 49.3469 60.4941C49.3469 60.4941 49.3469 60.4941 53.0158 50.3008Z" fill="#9D0208"/>
<path fill-rule="evenodd" clip-rule="evenodd" d="M54.3887 50.3008H55.7679C55.7679 50.3008 55.7679 50.3008 59.4368 60.4941C59.5471 60.612 59.5471 60.612 59.7747 60.612C59.7747 60.612 59.7747 60.612 60.2368 60.612C60.2368 60.612 60.2368 60.612 60.2368 63.1291C60.2368 63.1291 60.2368 63.1291 58.6299 63.1291C57.7127 63.1291 57.2576 62.7824 57.0231 61.867C57.0231 61.867 57.0231 61.867 56.2231 59.9185C56.2231 59.9185 56.2231 59.9185 54.6783 59.9185H54.3887V57.5193H55.5335C55.5335 57.5193 55.5335 57.5193 54.6231 54.8843C54.6231 54.5376 54.5059 54.1978 54.3887 53.969V50.3008Z" fill="#9D0208"/>
<path fill-rule="evenodd" clip-rule="evenodd" d="M0 66.7905C0 66.7905 -1.0523e-06 66.7905 9.97212 66.7905C10.8893 66.7905 11.4617 67.2482 11.4617 68.2814C11.4617 68.2814 11.4617 68.2814 11.4617 76.9838C11.4617 77.0948 11.4617 77.0948 11.579 77.0948C11.579 77.0948 11.579 77.0948 12.4962 77.0948C12.4962 77.0948 12.4962 77.0948 12.4962 79.6188C12.4962 79.6188 12.4962 79.6188 10.0894 79.6188C9.0549 79.6188 8.59974 79.1612 8.59974 78.128C8.59974 78.128 8.59974 78.128 8.59974 69.3146C8.59974 69.3146 8.59974 69.1967 8.48251 69.1967C8.48251 69.1967 8.48251 69.1967 3.89644 69.1967C3.89644 69.1967 3.89644 69.1967 3.89644 79.6188C3.89644 79.6188 3.89644 79.6188 1.14479 79.6188C1.14479 79.6188 1.14479 79.6188 1.14479 69.1967C1.14479 69.1967 1.14479 69.1967 0 69.1967C0 69.1967 0 69.1967 0 66.7905Z" fill="#9D0208"/>
<path fill-rule="evenodd" clip-rule="evenodd" d="M19.7155 66.5615L19.7706 66.5685V69.2104L19.7155 69.1965C17.6466 69.1965 16.0466 70.9162 16.0466 73.0936C16.0466 75.3818 17.6466 77.2125 19.7155 77.2125L19.7706 77.1986V79.8405L19.7155 79.8475C16.0466 79.8475 13.1777 76.8658 13.1777 73.0936C13.1777 69.4254 16.0466 66.5615 19.7155 66.5615Z" fill="#9D0208"/>
<path fill-rule="evenodd" clip-rule="evenodd" d="M19.7715 66.5686L21.0887 66.6934C24.1714 67.2898 26.3644 69.8832 26.3644 73.0937C26.3644 76.3944 24.1714 79.0918 21.0887 79.7089L19.7715 79.8407V77.1988L21.2266 76.8936C22.599 76.2696 23.5024 74.8064 23.5024 73.0937C23.5024 71.4572 22.599 70.0843 21.2266 69.5018L19.7715 69.2105V66.5686Z" fill="#9D0208"/>
<path fill-rule="evenodd" clip-rule="evenodd" d="M26.9375 66.7905C26.9375 66.7905 26.9375 66.7905 29.4616 66.7905C30.3788 66.7905 30.8339 67.2482 30.8339 68.2814C30.8339 68.2814 30.8339 68.2814 30.8339 76.9838C30.8339 77.0948 30.8339 77.0948 30.9512 77.0948C30.9512 77.0948 30.9512 77.0948 34.2752 77.0948C34.2752 77.0948 34.2752 77.0948 34.2752 66.7905C34.2752 66.7905 34.2752 66.7905 37.0269 66.7905C37.0269 66.7905 37.0269 66.7905 37.0269 77.0948C37.0269 77.0948 37.0269 77.0948 40.3509 77.0948C40.4681 77.0948 40.4681 77.0948 40.4681 76.9838C40.4681 76.9838 40.4681 76.9838 40.4681 68.2814C40.4681 67.2482 40.9233 66.7905 41.8405 66.7905C41.8405 66.7905 41.8405 66.7905 44.3646 66.7905C44.3646 66.7905 44.3646 66.7905 44.3646 69.1967C44.3646 69.1967 44.3646 69.1967 43.3301 69.1967C43.2129 69.1967 43.2129 69.3146 43.2129 69.3146C43.2129 69.3146 43.2129 69.3146 43.2129 78.128C43.2129 79.1612 42.7577 79.6188 41.8405 79.6188C41.8405 79.6188 41.8405 79.6188 29.5719 79.6188C28.5443 79.6188 28.0823 79.1612 28.0823 78.128C28.0823 78.128 28.0823 78.128 28.0823 69.3146C28.0823 69.3146 28.0823 69.1967 27.972 69.1967C27.972 69.1967 27.972 69.1967 26.9375 69.1967C26.9375 69.1967 26.9375 69.1967 26.9375 66.7905Z" fill="#9D0208"/>
<path fill-rule="evenodd" clip-rule="evenodd" d="M46.5374 66.7905C46.5374 66.7905 46.5374 66.7905 55.1372 66.7905C56.1716 66.7905 56.5164 67.2482 56.5164 68.1635C56.5164 68.1635 56.5164 68.1635 56.5164 70.3408H53.9924C53.9924 70.3408 53.9924 70.3408 53.9924 69.3146C53.9924 69.1967 53.9924 69.1967 53.8751 69.1967C53.8751 69.1967 53.8751 69.1967 52.2752 69.1967C52.2752 69.1967 52.2752 69.1967 52.2752 79.6188C52.2752 79.6188 52.2752 79.6188 49.5166 79.6188C49.5166 79.6188 49.5166 79.6188 49.5166 69.1967C49.5166 69.1967 49.5166 69.1967 47.9167 69.1967C47.7994 69.1967 47.7995 69.1967 47.7995 69.3146C47.7995 69.3146 47.7995 69.3146 47.7995 70.3408C47.7995 70.3408 47.7995 70.3408 45.2754 70.3408C45.2754 70.3408 45.2754 70.3408 45.2754 68.1635C45.2754 67.2482 45.6202 66.7905 46.5374 66.7905Z" fill="#9D0208"/>
<path fill-rule="evenodd" clip-rule="evenodd" d="M60.0665 66.7905C60.0665 66.7905 60.0665 66.7905 61.2251 66.7905H61.4389V70.4587C61.3217 70.6876 61.2113 71.0273 61.2113 71.374C61.2113 71.374 61.2113 71.374 60.2941 74.009C60.2941 74.009 60.2941 74.009 61.2596 74.009H61.4389V76.4083H60.8182C60.4665 76.4083 60.0665 76.4083 59.6045 76.4083C59.6045 76.4083 59.6045 76.4083 58.8045 78.3568C58.5769 79.2721 58.1149 79.6188 57.1977 79.6188C57.1977 79.6188 57.1977 79.6188 55.4805 79.6188C55.4805 79.6188 55.4805 79.6188 55.4805 77.0948C55.4805 77.0948 55.4805 77.0948 56.0529 77.0948C56.2873 77.0948 56.2873 77.0948 56.3977 76.9838C56.3977 76.9838 56.3977 76.9838 60.0665 66.7905Z" fill="#9D0208"/>
<path fill-rule="evenodd" clip-rule="evenodd" d="M61.4395 66.7905H62.8118C62.8118 66.7905 62.8118 66.7905 66.4876 76.9838C66.5979 77.0948 66.5979 77.0948 66.8324 77.0948H67.2876C67.2876 77.0948 67.2876 77.0948 67.2876 79.6188C67.2876 79.6188 67.2876 79.6188 65.6807 79.6188C64.7635 79.6188 64.3083 79.2721 64.0739 78.3568C64.0739 78.3568 64.0739 78.3568 63.2739 76.4083C63.2739 76.4083 63.2739 76.4083 61.7291 76.4083H61.4395V74.009H62.5842C62.5842 74.009 62.5842 74.009 61.667 71.374C61.667 71.0273 61.5567 70.6876 61.4395 70.4587V66.7905Z" fill="#9D0208"/>
</g>
<defs>
<clipPath id="clip0_2749_7681">
<rect width="67.2464" height="80" fill="white"/>
</clipPath>
</defs>
</svg>
