<svg width="60" height="60" viewBox="0 0 60 60" fill="none" xmlns="http://www.w3.org/2000/svg">
<path d="M55.195 5.99976H4.79805C3.80205 5.99976 2.99805 6.80076 2.99805 7.79976V14.9998H56.998V7.79976C56.998 7.56313 56.9514 7.32882 56.8607 7.11023C56.7701 6.89165 56.6372 6.69309 56.4698 6.5259C56.3023 6.35872 56.1035 6.22619 55.8848 6.13591C55.6661 6.04563 55.4317 5.99936 55.195 5.99976ZM5.99805 49.7998C5.99805 52.1098 7.88505 53.9998 10.195 53.9998H49.795C52.105 53.9998 53.995 52.1068 53.995 49.7998V17.9998H5.99805V49.7998ZM20.998 23.9998H38.998V29.9998H20.998V23.9998Z" fill="#9D0208"/>
</svg>
