<svg width="24" height="24" viewBox="0 0 24 24" fill="none" xmlns="http://www.w3.org/2000/svg">
<path d="M22.078 2.3999H1.91922C1.52082 2.3999 1.19922 2.7203 1.19922 3.1199V5.9999H22.7992V3.1199C22.7992 3.02525 22.7806 2.93153 22.7443 2.84409C22.708 2.75666 22.6549 2.67724 22.5879 2.61036C22.5209 2.54349 22.4414 2.49048 22.3539 2.45437C22.2664 2.41825 22.1727 2.39975 22.078 2.3999ZM2.39922 19.9199C2.39922 20.8439 3.15402 21.5999 4.07802 21.5999H19.918C20.842 21.5999 21.598 20.8427 21.598 19.9199V7.1999H2.39922V19.9199ZM8.39922 9.5999H15.5992V11.9999H8.39922V9.5999Z" fill="white"/>
</svg>
