<svg width="24" height="24" viewBox="0 0 24 24" fill="none" xmlns="http://www.w3.org/2000/svg">
<path d="M17.25 5.24998H15.675C15.5029 4.40226 15.043 3.64012 14.3732 3.09269C13.7034 2.54526 12.865 2.24622 12 2.24622C11.135 2.24622 10.2966 2.54526 9.62681 3.09269C8.95705 3.64012 8.49714 4.40226 8.325 5.24998H6.75C6.35218 5.24998 5.97064 5.40801 5.68934 5.68931C5.40804 5.97062 5.25 6.35215 5.25 6.74998V18C5.25 18.3978 5.40804 18.7793 5.68934 19.0606C5.97064 19.3419 6.35218 19.5 6.75 19.5V21C6.75 21.1989 6.82902 21.3897 6.96967 21.5303C7.11032 21.671 7.30109 21.75 7.5 21.75C7.69891 21.75 7.88968 21.671 8.03033 21.5303C8.17098 21.3897 8.25 21.1989 8.25 21V19.5H15.75V21C15.75 21.1989 15.829 21.3897 15.9697 21.5303C16.1103 21.671 16.3011 21.75 16.5 21.75C16.6989 21.75 16.8897 21.671 17.0303 21.5303C17.171 21.3897 17.25 21.1989 17.25 21V19.5C17.6478 19.5 18.0294 19.3419 18.3107 19.0606C18.592 18.7793 18.75 18.3978 18.75 18V6.74998C18.75 6.35215 18.592 5.97062 18.3107 5.68931C18.0294 5.40801 17.6478 5.24998 17.25 5.24998ZM12 3.74998C12.4642 3.75128 12.9166 3.89613 13.2953 4.16468C13.6739 4.43322 13.9603 4.81231 14.115 5.24998H9.885C10.0397 4.81231 10.3261 4.43322 10.7047 4.16468C11.0833 3.89613 11.5358 3.75128 12 3.74998ZM13.5 8.99998H10.5C10.3011 8.99998 10.1103 8.92096 9.96967 8.7803C9.82902 8.63965 9.75 8.44889 9.75 8.24998C9.75 8.05106 9.82902 7.8603 9.96967 7.71965C10.1103 7.57899 10.3011 7.49998 10.5 7.49998H13.5C13.6989 7.49998 13.8897 7.57899 14.0303 7.71965C14.171 7.8603 14.25 8.05106 14.25 8.24998C14.25 8.44889 14.171 8.63965 14.0303 8.7803C13.8897 8.92096 13.6989 8.99998 13.5 8.99998Z" fill="white"/>
</svg>
