<svg width="25" height="24" viewBox="0 0 25 24" fill="none" xmlns="http://www.w3.org/2000/svg">
<path d="M17.0569 12.906L16.6019 13.359C16.6019 13.359 15.5189 14.435 12.5639 11.497C9.60886 8.559 10.6919 7.483 10.6919 7.483L10.9779 7.197C11.6849 6.495 11.7519 5.367 11.1349 4.543L9.87486 2.86C9.11086 1.84 7.63586 1.705 6.76086 2.575L5.19086 4.135C4.75786 4.567 4.46786 5.125 4.50286 5.745C4.59286 7.332 5.31086 10.745 9.31486 14.727C13.5619 18.949 17.5469 19.117 19.1759 18.965C19.6919 18.917 20.1399 18.655 20.5009 18.295L21.9209 16.883C22.8809 15.93 22.6109 14.295 21.3829 13.628L19.4729 12.589C18.6669 12.151 17.6869 12.28 17.0569 12.906Z" fill="white"/>
</svg>
