<svg width="61" height="60" viewBox="0 0 61 60" fill="none" xmlns="http://www.w3.org/2000/svg">
<path d="M38.9301 5.38125C36.6677 3.17238 33.6311 1.93585 30.4692 1.93585C27.3072 1.93585 24.2707 3.17238 22.0082 5.38125C19.7807 7.63203 18.5313 10.6708 18.5312 13.8375C18.5313 17.0042 19.7807 20.043 22.0082 22.2937C26.1051 26.3906 34.3457 34.5469 38.4051 38.6812C40.6478 40.924 43.6896 42.1839 46.8614 42.1839C50.0331 42.1839 53.0749 40.924 55.3176 38.6812C57.5603 36.4385 58.8203 33.3967 58.8203 30.225C58.8203 27.0533 57.5603 24.0115 55.3176 21.7687C55.3176 21.7687 42.9801 9.51562 38.9301 5.38125ZM30.8676 28.5C30.8676 28.5 25.2239 22.8469 23.3395 20.9719C21.4589 19.0736 20.4039 16.5096 20.4039 13.8375C20.4039 11.1654 21.4589 8.60141 23.3395 6.70312C25.2458 4.84151 27.8047 3.79934 30.4692 3.79934C33.1337 3.79934 35.6925 4.84151 37.5989 6.70312C39.4645 8.60625 45.1364 14.2406 45.1364 14.2406L30.8676 28.5Z" fill="#9D0208"/>
<path d="M33.8574 8.4375C34.3752 8.4375 34.7949 8.01777 34.7949 7.5C34.7949 6.98223 34.3752 6.5625 33.8574 6.5625C33.3397 6.5625 32.9199 6.98223 32.9199 7.5C32.9199 8.01777 33.3397 8.4375 33.8574 8.4375Z" fill="#9D0208"/>
<path d="M30.4684 5.62497C29.3897 5.62195 28.3211 5.83293 27.3245 6.2457C26.3279 6.65847 25.4231 7.26482 24.6624 8.02966C24.4917 8.20647 24.3972 8.44329 24.3993 8.6891C24.4014 8.93491 24.5 9.17004 24.6738 9.34386C24.8477 9.51768 25.0828 9.61628 25.3286 9.61842C25.5744 9.62055 25.8112 9.52606 25.9881 9.35528C26.5751 8.76515 27.2733 8.29731 28.0424 7.97885C28.8114 7.66038 29.636 7.49762 30.4684 7.49997C30.717 7.49997 30.9555 7.4012 31.1313 7.22538C31.3071 7.04957 31.4059 6.81111 31.4059 6.56247C31.4059 6.31383 31.3071 6.07537 31.1313 5.89956C30.9555 5.72374 30.717 5.62497 30.4684 5.62497ZM31.5137 43.5937C31.5137 40.7197 30.6614 37.9102 29.0647 35.5206C27.468 33.1309 25.1985 31.2684 22.5433 30.1686C19.8881 29.0688 16.9663 28.781 14.1475 29.3417C11.3287 29.9024 8.73951 31.2863 6.70728 33.3186C4.67505 35.3508 3.29108 37.94 2.73039 40.7588C2.1697 43.5776 2.45747 46.4994 3.5573 49.1546C4.65714 51.8098 6.51965 54.0793 8.9093 55.676C11.299 57.2727 14.1084 58.125 16.9824 58.125C20.8354 58.1217 24.5296 56.5897 27.254 53.8653C29.9784 51.1409 31.5105 47.4467 31.5137 43.5937ZM4.37305 44.5312C4.31681 43.9075 4.31681 43.28 4.37305 42.6562H29.5918C29.6481 43.28 29.6481 43.9075 29.5918 44.5312H4.37305Z" fill="#9D0208"/>
</svg>
