<svg width="60" height="60" viewBox="0 0 60 60" fill="none" xmlns="http://www.w3.org/2000/svg">
<path fill-rule="evenodd" clip-rule="evenodd" d="M54.175 23.675C52.7683 18.336 49.6338 13.6128 45.2605 10.2425C40.8872 6.87219 35.5213 5.04443 30 5.04443C24.4787 5.04443 19.1128 6.87219 14.7395 10.2425C10.3662 13.6128 7.23169 18.336 5.825 23.675C5.56911 23.9059 5.36373 24.1872 5.22176 24.5013C5.07978 24.8154 5.00428 25.1554 5 25.5V34.5C5 35.1631 5.26339 35.799 5.73223 36.2678C6.20107 36.7366 6.83696 37 7.5 37H13.15C14.5346 40.3282 16.8738 43.1718 19.8726 45.1722C22.8713 47.1725 26.3953 48.24 30 48.24C33.6047 48.24 37.1287 47.1725 40.1274 45.1722C43.1262 43.1718 45.4654 40.3282 46.85 37H48.725C47.2992 40.816 44.7421 44.1057 41.3959 46.4289C38.0496 48.752 34.0737 49.998 30 50C29.337 50 28.7011 50.2634 28.2322 50.7323C27.7634 51.2011 27.5 51.837 27.5 52.5C27.5 53.1631 27.7634 53.799 28.2322 54.2678C28.7011 54.7366 29.337 55 30 55C35.5271 54.9974 40.8976 53.1633 45.2716 49.7844C49.6456 46.4055 52.7766 41.6723 54.175 36.325C54.4309 36.0941 54.6363 35.8128 54.7782 35.4987C54.9202 35.1847 54.9957 34.8447 55 34.5V25.5C54.9957 25.1554 54.9202 24.8154 54.7782 24.5013C54.6363 24.1872 54.4309 23.9059 54.175 23.675ZM30 11.75C26.3949 11.7541 22.8715 12.8244 19.8733 14.8262C16.875 16.828 14.5358 19.6719 13.15 23H11.275C12.6957 19.1725 15.2538 15.8714 18.6056 13.5403C21.9574 11.2092 25.9423 9.95973 30.025 9.95973C34.1077 9.95973 38.0926 11.2092 41.4444 13.5403C44.7962 15.8714 47.3543 19.1725 48.775 23H46.9C45.5109 19.6641 43.164 16.8148 40.1559 14.8124C37.1478 12.8099 33.6136 11.7443 30 11.75ZM27.6563 27.3633C27.6563 30.1139 25.4265 32.3438 22.6759 32.3438C19.9252 32.3438 17.6954 30.1139 17.6954 27.3633C17.6954 24.6127 19.9252 22.3828 22.6759 22.3828C25.4265 22.3828 27.6563 24.6127 27.6563 27.3633ZM37.5587 32.3438C40.3093 32.3438 42.5391 30.1139 42.5391 27.3633C42.5391 24.6127 40.3093 22.3828 37.5587 22.3828C34.808 22.3828 32.5782 24.6127 32.5782 27.3633C32.5782 30.1139 34.808 32.3438 37.5587 32.3438Z" fill="#9D0208"/>
</svg>
