<svg width="60" height="60" viewBox="0 0 60 60" fill="none" xmlns="http://www.w3.org/2000/svg">
<g clip-path="url(#clip0_2754_10148)">
<path d="M37.5 10C38.8261 10 40.0979 10.5268 41.0355 11.4645C41.9732 12.4021 42.5 13.6739 42.5 15V17.5H46.3C47.0494 17.5001 47.7892 17.6686 48.4647 17.9932C49.1402 18.3177 49.7341 18.79 50.2025 19.375L53.9025 24.0025C54.6127 24.8892 54.9998 25.9914 55 27.1275V37.5C55 38.8261 54.4732 40.0979 53.5355 41.0355C52.5979 41.9732 51.3261 42.5 50 42.5H47.5C47.5 44.4891 46.7098 46.3968 45.3033 47.8033C43.8968 49.2098 41.9891 50 40 50C38.0109 50 36.1032 49.2098 34.6967 47.8033C33.2902 46.3968 32.5 44.4891 32.5 42.5H25C25 43.4849 24.806 44.4602 24.4291 45.3701C24.0522 46.2801 23.4997 47.1069 22.8033 47.8033C22.1069 48.4997 21.2801 49.0522 20.3701 49.4291C19.4602 49.806 18.4849 50 17.5 50C16.5151 50 15.5398 49.806 14.6299 49.4291C13.7199 49.0522 12.8931 48.4997 12.1967 47.8033C11.5003 47.1069 10.9478 46.2801 10.5709 45.3701C10.194 44.4602 10 43.4849 10 42.5C8.67392 42.5 7.40215 41.9732 6.46447 41.0355C5.52678 40.0979 5 38.8261 5 37.5V15C5 13.6739 5.52678 12.4021 6.46447 11.4645C7.40215 10.5268 8.67392 10 10 10H37.5ZM17.5 40C16.837 40 16.2011 40.2634 15.7322 40.7322C15.2634 41.2011 15 41.837 15 42.5C15 43.163 15.2634 43.7989 15.7322 44.2678C16.2011 44.7366 16.837 45 17.5 45C18.163 45 18.7989 44.7366 19.2678 44.2678C19.7366 43.7989 20 43.163 20 42.5C20 41.837 19.7366 41.2011 19.2678 40.7322C18.7989 40.2634 18.163 40 17.5 40ZM40 40C39.337 40 38.7011 40.2634 38.2322 40.7322C37.7634 41.2011 37.5 41.837 37.5 42.5C37.5 43.163 37.7634 43.7989 38.2322 44.2678C38.7011 44.7366 39.337 45 40 45C40.663 45 41.2989 44.7366 41.7678 44.2678C42.2366 43.7989 42.5 43.163 42.5 42.5C42.5 41.837 42.2366 41.2011 41.7678 40.7322C41.2989 40.2634 40.663 40 40 40ZM46.3 22.5H42.5V32.5H50V27.125L46.3 22.5Z" fill="#9D0208"/>
</g>
<defs>
<clipPath id="clip0_2754_10148">
<rect width="60" height="60" fill="white"/>
</clipPath>
</defs>
</svg>
