<svg width="24" height="24" viewBox="0 0 24 24" fill="none" xmlns="http://www.w3.org/2000/svg">
<g clip-path="url(#clip0_2749_7482)">
<path fill-rule="evenodd" clip-rule="evenodd" d="M12 0C18.6274 0 24 5.37258 24 12C24 18.6274 18.6274 24 12 24C5.37258 24 0 18.6274 0 12C0 5.37258 5.37258 0 12 0ZM12.2917 4.54289C15.8738 4.5589 17.4808 5.72734 17.8778 6.09224C19.1966 7.23829 19.9297 9.77679 19.4367 13.7847C18.9598 17.6805 16.0243 18.055 15.5057 18.2247C15.2816 18.2983 13.3065 18.7913 10.7391 18.5768C10.4542 18.9065 10.0797 19.3355 9.80764 19.63C9.31144 20.1646 9.00414 20.6608 8.48555 20.5007C8.05659 20.3695 8.07899 19.7164 8.07899 19.7164L8.08219 18.1062H8.07899C4.32402 17.0499 4.37844 13.154 4.42005 11.0765C4.46167 8.99574 4.86501 7.32149 6.01104 6.17549C8.06939 4.2868 12.2917 4.54289 12.2917 4.54289Z" fill="#9D0208"/>
<path fill-rule="evenodd" clip-rule="evenodd" d="M18.3131 13.503C17.9098 16.7553 15.5313 16.9602 15.0927 17.1011C14.9071 17.1619 13.172 17.5941 10.9888 17.45C10.9888 17.45 9.36264 19.4123 8.85689 19.9213C8.77684 20.0013 8.68399 20.0333 8.62319 20.0173C8.53674 19.9949 8.51114 19.8925 8.51434 19.742C8.51434 19.5244 8.52714 17.0627 8.52714 17.0627C5.34839 16.1823 5.53404 12.8659 5.56929 11.1309C5.60449 9.39589 5.93099 7.97134 6.90094 7.01419C8.63919 5.43924 12.2277 5.67289 12.2277 5.67289C15.256 5.68569 16.7061 6.59804 17.0423 6.90214C18.1595 7.86249 18.7293 10.1513 18.3131 13.503ZM13.5643 10.9996C13.5707 11.1085 13.6603 11.1917 13.766 11.1917C13.7692 11.1917 13.7724 11.1917 13.7788 11.1885C13.8908 11.1853 13.9772 11.0893 13.9708 10.9772C13.926 10.0809 13.4394 9.58154 12.5687 9.53354C12.4567 9.52714 12.3606 9.61354 12.3542 9.72559C12.3478 9.83764 12.4343 9.93369 12.5463 9.94009C13.2058 9.97529 13.5291 10.3114 13.5643 10.9996ZM14.8006 11.5375H14.8038C14.9127 11.5375 15.0055 11.4511 15.0087 11.339C15.0247 10.5483 14.7878 9.8793 14.298 9.3447C13.8115 8.8133 13.1296 8.5124 12.2653 8.4484C12.1533 8.4388 12.0572 8.522 12.0476 8.63405C12.038 8.7461 12.1212 8.84215 12.2333 8.85175C12.9984 8.90615 13.5778 9.15585 13.9971 9.6168C14.4197 10.0778 14.6182 10.638 14.6022 11.3294C14.599 11.4415 14.6886 11.5343 14.8006 11.5375ZM15.6664 11.752C15.6664 11.864 15.7561 11.9537 15.8681 11.9537C15.9833 11.9537 16.073 11.8608 16.0698 11.7456C16.057 10.4139 15.6504 9.34472 14.8565 8.57002C14.0658 7.79532 13.0671 7.40157 11.8923 7.39197C11.7834 7.39197 11.6906 7.48162 11.6906 7.59367C11.6906 7.70572 11.7802 7.79852 11.8923 7.79852C12.9582 7.80812 13.8642 8.16347 14.578 8.86132C15.3015 9.56877 15.6568 10.5131 15.6664 11.752ZM13.0351 13.535C12.8814 13.7239 12.5965 13.6982 12.5965 13.6982C10.5158 13.1701 9.96193 11.0637 9.96193 11.0637C9.96193 11.0637 9.93633 10.7788 10.1252 10.6251L10.4997 10.3274C10.6854 10.1834 10.8039 9.83442 10.615 9.49512C10.5093 9.30622 10.2981 8.96692 10.1412 8.75242C9.97478 8.52517 9.58743 8.06097 9.58743 8.06097C9.39853 7.84012 9.12642 7.78887 8.83833 7.93932H8.83193C8.55982 8.09297 8.30373 8.29787 8.06687 8.56037C8.06687 8.56357 8.06368 8.56357 8.06368 8.56677C7.88758 8.78122 7.78518 8.98932 7.75953 9.19742C7.75313 9.22302 7.75313 9.25182 7.75313 9.29022C7.75313 9.37987 7.76592 9.46952 7.79478 9.55912L7.80438 9.56552C7.89398 9.88247 8.11808 10.4138 8.60788 11.3006C8.92478 11.8768 9.24808 12.357 9.57143 12.7603C9.74108 12.9748 9.93313 13.1925 10.154 13.4165L10.1764 13.439L10.1988 13.4614L10.2212 13.4838L10.2437 13.5062C10.4677 13.7303 10.6854 13.9191 10.8999 14.0888C11.3064 14.4121 11.7834 14.7354 12.3596 15.0523C13.2431 15.5421 13.7745 15.7662 14.0947 15.8558L14.1011 15.8654C14.1907 15.8943 14.2803 15.9071 14.37 15.9071C14.4084 15.9071 14.4372 15.9071 14.4628 15.9007C14.6677 15.8782 14.8789 15.7758 15.0934 15.5965C15.0966 15.5965 15.0966 15.5933 15.0998 15.5933C15.3591 15.3565 15.5672 15.1004 15.7209 14.8283V14.8219C15.8713 14.5306 15.8201 14.2585 15.5992 14.0728C15.596 14.0696 15.135 13.6854 14.9078 13.519C14.6965 13.3621 14.354 13.1508 14.1651 13.0452C13.8258 12.8563 13.4768 12.9748 13.3328 13.1605L13.0351 13.535Z" fill="#9D0208"/>
</g>
<defs>
<clipPath id="clip0_2749_7482">
<rect width="24" height="24" fill="white"/>
</clipPath>
</defs>
</svg>
