<svg width="24" height="24" viewBox="0 0 24 24" fill="none" xmlns="http://www.w3.org/2000/svg">
<g clip-path="url(#clip0_2749_7488)">
<path fill-rule="evenodd" clip-rule="evenodd" d="M12 0C18.6274 0 24 5.37258 24 12C24 18.6274 18.6274 24 12 24C5.37258 24 0 18.6274 0 12C0 5.37258 5.37258 0 12 0ZM12.4938 4.56251C14.31 4.56251 16.0884 5.28141 17.3749 6.60576C18.6614 7.89226 19.3803 9.63276 19.3803 11.4868C19.3803 15.3085 16.2775 18.449 12.4559 18.449C11.3208 18.449 10.1856 18.1841 9.16405 17.6166L5.49375 18.5625L6.47755 14.9679C5.91 13.9085 5.56945 12.7355 5.56945 11.5247C5.5316 7.70306 8.6343 4.56251 12.4938 4.56251Z" fill="#9D0208"/>
<path fill-rule="evenodd" clip-rule="evenodd" d="M12.4938 17.276C11.4722 17.276 10.4505 17.0112 9.58025 16.4814L9.3532 16.3679L7.15865 16.9355L7.7262 14.7787L7.57485 14.5517C5.91 11.8652 6.70455 8.30846 9.4289 6.64361C12.1532 4.97873 15.6722 5.77331 17.337 8.49766C19.0019 11.222 18.2073 14.7409 15.483 16.4058C14.6127 16.9733 13.5532 17.276 12.4938 17.276ZM15.4073 12.8868L15.8235 13.076C15.8991 13.1139 15.937 13.1517 15.937 13.1517V13.4166C15.8992 13.6058 15.8614 13.795 15.7857 13.9463C15.7478 14.022 15.6721 14.0977 15.5964 14.1733C15.5208 14.249 15.4451 14.2868 15.3695 14.3625L15.2937 14.4382C15.2181 14.5139 15.1424 14.5139 15.0289 14.5896C14.8776 14.6652 14.6505 14.7409 14.4614 14.7409H14.083C13.9695 14.7031 13.8181 14.7031 13.7045 14.6652C12.683 14.4004 11.7749 13.9085 10.9803 13.2274C10.9046 13.1139 10.7911 13.0382 10.6776 12.9247L10.5262 12.7733C9.9208 12.2058 9.46675 11.5625 9.1262 10.8436L9.08835 10.7301C8.97485 10.4652 8.89915 10.1625 8.89915 9.85981C8.89915 9.44361 9.0505 9.02736 9.3154 8.68681C9.39105 8.61116 9.4289 8.53546 9.50455 8.45981C9.58025 8.42196 9.6559 8.34631 9.7316 8.30846L9.76945 8.27061C9.8451 8.27061 9.9208 8.23276 9.99645 8.23276H10.2992H10.4127C10.5262 8.27061 10.6019 8.30846 10.6776 8.42196C10.7911 8.64901 11.2451 9.67061 11.283 9.85981C11.3208 9.97331 11.283 10.1247 11.2073 10.2382C11.1316 10.3139 11.0938 10.4274 11.0181 10.5031C10.9046 10.6166 10.7532 10.8058 10.7532 10.8058C10.7154 10.8436 10.7154 10.9193 10.7154 10.995C10.7532 11.0706 10.7532 11.1085 10.791 11.1463L10.8289 11.222C11.0181 11.5625 11.2829 11.8652 11.5478 12.1301C11.6235 12.2058 11.737 12.2814 11.8127 12.3571C12.1154 12.6598 12.4938 12.8868 12.91 13.076L13.0992 13.1517C13.137 13.1896 13.2127 13.2274 13.2505 13.2274H13.2884C13.364 13.2274 13.4397 13.1896 13.4776 13.1139C14.0073 12.5085 14.0451 12.4706 14.0451 12.4706C14.1208 12.4328 14.1964 12.395 14.31 12.395C14.3478 12.395 14.3857 12.4328 14.4235 12.4328C14.8019 12.622 15.4073 12.8868 15.4073 12.8868Z" fill="#9D0208"/>
</g>
<defs>
<clipPath id="clip0_2749_7488">
<rect width="24" height="24" fill="white"/>
</clipPath>
</defs>
</svg>
