<svg width="19" height="19" viewBox="0 0 19 19" fill="none" xmlns="http://www.w3.org/2000/svg">
<g clip-path="url(#clip0_2854_500)">
<path fill-rule="evenodd" clip-rule="evenodd" d="M5.54167 5.54151C5.54182 4.79257 5.75444 4.05904 6.15484 3.42612C6.55524 2.79319 7.12698 2.28685 7.80366 1.96589C8.48034 1.64493 9.2342 1.52254 9.97766 1.61291C10.7211 1.70329 11.4237 2.00273 12.0038 2.47646C12.5839 2.95019 13.0176 3.57877 13.2547 4.28919C13.4918 4.99961 13.5225 5.76272 13.3432 6.48988C13.164 7.21705 12.7821 7.87843 12.2419 8.39721C11.7017 8.916 11.0255 9.27089 10.2917 9.42068V13.4582C10.2917 13.6681 10.2083 13.8695 10.0598 14.018C9.91133 14.1664 9.70996 14.2498 9.5 14.2498C9.29004 14.2498 9.08867 14.1664 8.94021 14.018C8.79174 13.8695 8.70833 13.6681 8.70833 13.4582V9.42068C7.81439 9.2379 7.01099 8.75202 6.43399 8.04519C5.85699 7.33836 5.54178 6.45395 5.54167 5.54151ZM7.51213 12.7457C7.52787 12.8485 7.5232 12.9534 7.49838 13.0544C7.47355 13.1555 7.42906 13.2506 7.36745 13.3344C7.30584 13.4182 7.22831 13.4891 7.13931 13.5429C7.0503 13.5968 6.95155 13.6325 6.84871 13.6482C5.83696 13.8026 5.03342 14.0353 4.50538 14.2934C4.24017 14.4232 4.08262 14.5412 4.00108 14.6275C3.9954 14.6334 3.98986 14.6395 3.98446 14.6457C4.01058 14.6766 4.05571 14.7217 4.13488 14.7795C4.35654 14.9433 4.72783 15.1238 5.25746 15.2893C6.308 15.6178 7.80821 15.8332 9.5 15.8332C11.1918 15.8332 12.692 15.6178 13.7425 15.2893C14.273 15.1238 14.6435 14.9433 14.8651 14.7795C14.9443 14.7217 14.9894 14.6766 15.0155 14.6457C15.0101 14.6395 15.0046 14.6334 14.9989 14.6275C14.9174 14.5412 14.7598 14.4232 14.4946 14.2934C13.9666 14.0353 13.163 13.8026 12.1513 13.6482C12.0473 13.6339 11.9472 13.5991 11.8568 13.5458C11.7664 13.4925 11.6875 13.4218 11.6247 13.3377C11.5619 13.2536 11.5164 13.1579 11.4909 13.0561C11.4654 12.9543 11.4605 12.8485 11.4762 12.7447C11.492 12.641 11.5283 12.5414 11.5829 12.4518C11.6376 12.3622 11.7095 12.2843 11.7945 12.2227C11.8794 12.1612 11.9758 12.1171 12.078 12.0931C12.1802 12.0692 12.2861 12.0657 12.3896 12.0831C13.4884 12.2493 14.4653 12.5161 15.1913 12.8716C15.5531 13.0489 15.8911 13.2674 16.1476 13.5381C16.4089 13.8128 16.625 14.1873 16.625 14.6457C16.625 15.2877 16.2102 15.754 15.8064 16.0525C15.3868 16.3628 14.8303 16.6082 14.2152 16.8006C12.9722 17.1885 11.3058 17.4165 9.5 17.4165C7.69342 17.4165 6.02696 17.1885 4.78563 16.8006C4.16971 16.6082 3.61396 16.3628 3.19437 16.0525C2.78983 15.754 2.375 15.2877 2.375 14.6457C2.375 14.1865 2.59112 13.8128 2.85237 13.5373C3.10967 13.2666 3.44692 13.0489 3.80871 12.8723C4.53467 12.5161 5.51238 12.2501 6.60962 12.0831C6.71245 12.0673 6.81737 12.072 6.91839 12.0968C7.01941 12.1216 7.11455 12.1661 7.19836 12.2277C7.28218 12.2893 7.35303 12.3669 7.40687 12.4559C7.4607 12.5449 7.49647 12.6428 7.51213 12.7457Z" fill="#9D0208"/>
</g>
<defs>
<clipPath id="clip0_2854_500">
<rect width="19" height="19" fill="white"/>
</clipPath>
</defs>
</svg>
