<svg width="29" height="28" viewBox="0 0 29 28" fill="none" xmlns="http://www.w3.org/2000/svg">
<path d="M24.3397 7.58341C24.3397 6.80987 24.0324 6.068 23.4854 5.52102C22.9384 4.97404 22.1966 4.66675 21.423 4.66675H8.58968C7.81613 4.66675 7.07426 4.97404 6.52728 5.52102C5.9803 6.068 5.67301 6.80987 5.67301 7.58341V12.2501C5.67301 12.5595 5.79593 12.8562 6.01472 13.075C6.23351 13.2938 6.53026 13.4167 6.83968 13.4167C7.1491 13.4167 7.44584 13.2938 7.66464 13.075C7.88343 12.8562 8.00634 12.5595 8.00634 12.2501V7.58341C8.00634 7.4287 8.0678 7.28033 8.1772 7.17094C8.2866 7.06154 8.43497 7.00008 8.58968 7.00008H21.423C21.5777 7.00008 21.7261 7.06154 21.8355 7.17094C21.9449 7.28033 22.0063 7.4287 22.0063 7.58341V12.2501C22.0063 12.5595 22.1293 12.8562 22.3481 13.075C22.5668 13.2938 22.8636 13.4167 23.173 13.4167C23.4824 13.4167 23.7792 13.2938 23.998 13.075C24.2168 12.8562 24.3397 12.5595 24.3397 12.2501V7.58341ZM22.2397 22.9916L25.1563 20.0749C25.3751 19.8561 25.4979 19.5594 25.4979 19.2501C25.4979 18.9407 25.3751 18.644 25.1563 18.4252L22.2397 15.5086C22.0209 15.2897 21.7242 15.1666 21.4147 15.1665C21.1052 15.1664 20.8083 15.2892 20.5894 15.508C20.3705 15.7268 20.2475 16.0235 20.2474 16.333C20.2472 16.6425 20.3701 16.9393 20.5888 17.1582L22.6807 19.2501L20.5888 21.3419C20.3763 21.5619 20.2587 21.8567 20.2614 22.1625C20.264 22.4684 20.3867 22.7611 20.6031 22.9774C20.8194 23.1937 21.112 23.3164 21.4179 23.319C21.7238 23.3217 22.0196 23.2041 22.2397 22.9916ZM4.83768 18.4252C4.61896 18.644 4.49609 18.9407 4.49609 19.2501C4.49609 19.5594 4.61896 19.8561 4.83768 20.0749L7.75434 22.9916C7.97438 23.2041 8.26908 23.3217 8.57498 23.319C8.88088 23.3164 9.17349 23.1937 9.3898 22.9774C9.60611 22.7611 9.72881 22.4684 9.73146 22.1625C9.73412 21.8567 9.61653 21.5619 9.40401 21.3419L7.31334 19.2501L9.40518 17.1582C9.51661 17.0506 9.60549 16.9219 9.66663 16.7796C9.72777 16.6372 9.75996 16.4841 9.7613 16.3292C9.76265 16.1743 9.73313 16.0207 9.67447 15.8773C9.61581 15.7339 9.52918 15.6037 9.41964 15.4941C9.3101 15.3846 9.17984 15.298 9.03646 15.2393C8.89308 15.1806 8.73945 15.1511 8.58454 15.1525C8.42963 15.1538 8.27654 15.186 8.13421 15.2471C7.99187 15.3083 7.86313 15.3972 7.75551 15.5086L4.83768 18.4252ZM16.1637 19.2501C16.1637 18.9407 16.0408 18.6439 15.822 18.4251C15.6032 18.2063 15.3064 18.0834 14.997 18.0834C14.6876 18.0834 14.3908 18.2063 14.1721 18.4251C13.9533 18.6439 13.8303 18.9407 13.8303 19.2501C13.8303 19.5595 13.9533 19.8562 14.1721 20.075C14.3908 20.2938 14.6876 20.4167 14.997 20.4167C15.3064 20.4167 15.6032 20.2938 15.822 20.075C16.0408 19.8562 16.1637 19.5595 16.1637 19.2501ZM11.497 18.0834C11.8064 18.0834 12.1032 18.2063 12.322 18.4251C12.5408 18.6439 12.6637 18.9407 12.6637 19.2501C12.6637 19.5595 12.5408 19.8562 12.322 20.075C12.1032 20.2938 11.8064 20.4167 11.497 20.4167H10.3303C10.0209 20.4167 9.72418 20.2938 9.50539 20.075C9.28659 19.8562 9.16368 19.5595 9.16368 19.2501C9.16368 18.9407 9.28659 18.6439 9.50539 18.4251C9.72418 18.2063 10.0209 18.0834 10.3303 18.0834H11.497ZM20.8303 19.2501C20.8303 18.9407 20.7074 18.6439 20.4886 18.4251C20.2698 18.2063 19.9731 18.0834 19.6637 18.0834H18.497C18.1876 18.0834 17.8908 18.2063 17.6721 18.4251C17.4533 18.6439 17.3303 18.9407 17.3303 19.2501C17.3303 19.5595 17.4533 19.8562 17.6721 20.075C17.8908 20.2938 18.1876 20.4167 18.497 20.4167H19.6637C19.9731 20.4167 20.2698 20.2938 20.4886 20.075C20.7074 19.8562 20.8303 19.5595 20.8303 19.2501Z" fill="white"/>
</svg>
