<svg width="61" height="60" viewBox="0 0 61 60" fill="none" xmlns="http://www.w3.org/2000/svg">
<path d="M49.0402 7.19063C48.5762 6.94688 48.0184 6.98438 47.5871 7.27969C45.5089 8.72211 43.7532 10.5808 42.4314 12.7377C41.1097 14.8947 40.2507 17.3028 39.909 19.8094L38.5637 29.7516L38.5543 29.7938C38.3855 30.5531 38.8637 31.3031 39.623 31.4719C40.9309 31.7625 41.8543 32.9438 41.8215 34.2891C41.7887 35.7984 40.4527 37.0312 38.8496 37.0312H37.4434C37.209 37.0312 36.9746 37.0453 36.7449 37.0688C36.7027 36.9844 36.6652 36.8953 36.623 36.8062L35.4605 34.5469C33.1783 30.1014 31.9861 25.1768 31.9824 20.1797V1.875C31.9824 1.09688 31.3543 0.46875 30.5762 0.46875C29.798 0.46875 29.1699 1.09688 29.1699 1.875V20.1797C29.1699 25.1531 27.9699 30.1219 25.6918 34.5422L24.5293 36.8016C24.4871 36.8859 24.4496 36.975 24.4074 37.0641C24.1777 37.0453 23.9434 37.0312 23.709 37.0312H22.3027C20.6996 37.0312 19.3637 35.7984 19.3262 34.2891C19.3116 33.638 19.5224 33.0019 19.9231 32.4885C20.3237 31.9751 20.8895 31.6159 21.5246 31.4719C21.705 31.432 21.8758 31.3569 22.0272 31.251C22.1786 31.145 22.3076 31.0103 22.4069 30.8544C22.5062 30.6985 22.5737 30.5246 22.6057 30.3426C22.6377 30.1606 22.6335 29.9741 22.5934 29.7938L21.2387 19.8094C20.5543 14.7516 17.7559 10.1812 13.5605 7.27969C13.1293 6.98438 12.5715 6.94688 12.1074 7.19063C11.8809 7.31071 11.6914 7.49024 11.5593 7.70992C11.4272 7.92961 11.3574 8.18114 11.3574 8.4375V45.4688C11.3574 46.2469 11.9855 46.875 12.7637 46.875H18.3887C19.1668 46.875 19.7949 46.2469 19.7949 45.4688C19.7949 44.6906 19.1668 44.0625 18.3887 44.0625H14.1699V11.4516C16.5044 13.8248 18.0075 16.8902 18.4543 20.1891L19.6684 29.1656C18.7023 29.6395 17.892 30.3799 17.333 31.2993C16.774 32.2188 16.4897 33.2789 16.5137 34.3547C16.5887 37.3828 19.1855 39.8438 22.3027 39.8438H23.3668C22.2699 43.9313 22.8746 48.3797 25.148 52.0406L29.3855 58.8703C29.6387 59.2781 30.0887 59.5312 30.5762 59.5312C31.0637 59.5312 31.5137 59.2781 31.7715 58.8656L36.009 52.0359C38.2777 48.3797 38.8824 43.9312 37.7902 39.8391H38.8543C41.9668 39.8438 44.5637 37.3828 44.6387 34.3547C44.6902 32.1234 43.4199 30.1125 41.484 29.1656L42.698 20.1891C43.1434 16.875 44.6668 13.8094 46.9824 11.4516V44.0625H42.2949C41.5168 44.0625 40.8887 44.6906 40.8887 45.4688C40.8887 46.2469 41.5168 46.875 42.2949 46.875H48.3887C49.1668 46.875 49.7949 46.2469 49.7949 45.4688V8.4375C49.795 8.18055 49.7248 7.92848 49.5917 7.70866C49.4587 7.48884 49.2679 7.30968 49.0402 7.19063ZM28.1949 35.8313C29.1746 33.9281 29.9715 31.9313 30.5762 29.8781C31.1809 31.9313 31.9777 33.9281 32.9574 35.8313L33.9699 37.8047C32.5918 38.4469 31.4152 39.4453 30.5715 40.6969C29.7277 39.4453 28.5512 38.4469 27.173 37.8047L28.1949 35.8313ZM33.6184 50.5547L30.5762 55.4578L27.534 50.5547C25.6449 47.5125 25.1621 43.8 26.1184 40.4109C27.923 41.3016 29.1699 43.1578 29.1699 45.3047V48.1172C29.1699 48.8953 29.798 49.5234 30.5762 49.5234C31.3543 49.5234 31.9824 48.8953 31.9824 48.1172V45.3047C31.9824 43.1578 33.2293 41.3062 35.034 40.4109C35.9902 43.8 35.5074 47.5125 33.6184 50.5547Z" fill="#9D0208"/>
</svg>
