<svg width="125" height="67" viewBox="0 0 125 67" fill="none" xmlns="http://www.w3.org/2000/svg">
<path d="M46.3436 27.7241H18.6194V26.5959L31.717 13.8621H46.3436V27.7241ZM46.3436 32.3448V48.5161C44.236 45.711 40.881 43.8966 37.1022 43.8966C32.3652 43.8966 28.2942 46.7477 26.5117 50.8276H18.6194V32.3448H46.3436ZM50.9642 50.8276V9.24138V4.62069H106.413V50.8276H103.141C101.358 46.7477 97.2874 43.8966 92.5504 43.8966C87.8135 43.8966 83.7425 46.7477 81.9599 50.8276H50.9642ZM46.3436 9.24138H29.8411L13.9987 24.6437V50.8276C13.9987 53.3795 16.0675 55.4483 18.6194 55.4483H25.5504C25.5504 61.8281 30.7223 67 37.1022 67C43.482 67 48.6539 61.8281 48.6539 55.4483H80.9987C80.9987 61.8281 86.1706 67 92.5504 67C98.9303 67 104.102 61.8281 104.102 55.4483H106.413C108.964 55.4483 111.033 53.3795 111.033 50.8276V4.62069C111.033 2.06875 108.964 0 106.413 0H50.9642C48.4123 0 46.3436 2.06875 46.3436 4.62069V9.24138ZM92.5504 62.3793C88.7225 62.3793 85.6194 59.2762 85.6194 55.4483C85.6194 51.6204 88.7225 48.5172 92.5504 48.5172C96.3784 48.5172 99.4815 51.6204 99.4815 55.4483C99.4815 59.2762 96.3784 62.3793 92.5504 62.3793ZM37.1022 62.3793C33.2743 62.3793 30.1711 59.2762 30.1711 55.4483C30.1711 51.6204 33.2743 48.5172 37.1022 48.5172C40.9301 48.5172 44.0332 51.6204 44.0332 55.4483C44.0332 59.2762 40.9301 62.3793 37.1022 62.3793Z" fill="white"/>
</svg>
