<svg width="145" height="27" viewBox="0 0 145 27" fill="none" xmlns="http://www.w3.org/2000/svg">
<path d="M144.738 10.9735H133.805V10.5286L138.97 5.50714H144.738V10.9735ZM144.738 12.7956V19.1726C143.907 18.0664 142.584 17.3509 141.093 17.3509C139.226 17.3509 137.62 18.4753 136.917 20.0841H133.805V12.7956H144.738ZM146.56 20.0841V3.68502V1.86289H168.425V20.0841H167.135C166.432 18.4753 164.827 17.3509 162.959 17.3509C161.091 17.3509 159.486 18.4753 158.783 20.0841H146.56ZM144.738 3.68502H138.23L131.983 9.75876V20.0841C131.983 21.0904 132.799 21.9062 133.805 21.9062H136.538C136.538 24.4221 138.578 26.4615 141.093 26.4615C143.609 26.4615 145.649 24.4221 145.649 21.9062H158.404C158.404 24.4221 160.443 26.4615 162.959 26.4615C165.475 26.4615 167.514 24.4221 167.514 21.9062H168.425C169.432 21.9062 170.247 21.0904 170.247 20.0841V1.86289C170.247 0.856563 169.432 0.0407715 168.425 0.0407715H146.56C145.554 0.0407715 144.738 0.856563 144.738 1.86289V3.68502ZM162.959 24.6394C161.449 24.6394 160.226 23.4157 160.226 21.9062C160.226 20.3967 161.449 19.1731 162.959 19.1731C164.468 19.1731 165.692 20.3967 165.692 21.9062C165.692 23.4157 164.468 24.6394 162.959 24.6394ZM141.093 24.6394C139.584 24.6394 138.36 23.4157 138.36 21.9062C138.36 20.3967 139.584 19.1731 141.093 19.1731C142.603 19.1731 143.827 20.3967 143.827 21.9062C143.827 23.4157 142.603 24.6394 141.093 24.6394Z" fill="#2D9CDB"/>
<path d="M100.779 10.9735H89.8464V10.5286L95.0113 5.50714H100.779V10.9735ZM100.779 12.7956V19.1726C99.948 18.0664 98.625 17.3509 97.1349 17.3509C95.2669 17.3509 93.6615 18.4753 92.9586 20.0841H89.8464V12.7956H100.779ZM102.601 20.0841V3.68502V1.86289H124.467V20.0841H123.177C122.474 18.4753 120.868 17.3509 119 17.3509C117.132 17.3509 115.527 18.4753 114.824 20.0841H102.601ZM100.779 3.68502H94.2715L88.0243 9.75876V20.0841C88.0243 21.0904 88.84 21.9062 89.8464 21.9062H92.5796C92.5796 24.4221 94.619 26.4615 97.1349 26.4615C99.6507 26.4615 101.69 24.4221 101.69 21.9062H114.445C114.445 24.4221 116.485 26.4615 119 26.4615C121.516 26.4615 123.556 24.4221 123.556 21.9062H124.467C125.473 21.9062 126.289 21.0904 126.289 20.0841V1.86289C126.289 0.856563 125.473 0.0407715 124.467 0.0407715H102.601C101.595 0.0407715 100.779 0.856563 100.779 1.86289V3.68502ZM119 24.6394C117.491 24.6394 116.267 23.4157 116.267 21.9062C116.267 20.3967 117.491 19.1731 119 19.1731C120.51 19.1731 121.734 20.3967 121.734 21.9062C121.734 23.4157 120.51 24.6394 119 24.6394ZM97.1349 24.6394C95.6254 24.6394 94.4017 23.4157 94.4017 21.9062C94.4017 20.3967 95.6254 19.1731 97.1349 19.1731C98.6444 19.1731 99.868 20.3967 99.868 21.9062C99.868 23.4157 98.6444 24.6394 97.1349 24.6394Z" fill="#2D9CDB"/>
<path d="M56.821 10.9735H45.8882V10.5286L51.0532 5.50714H56.821V10.9735ZM56.821 12.7956V19.1726C55.9899 18.0664 54.6669 17.3509 53.1767 17.3509C51.3088 17.3509 49.7034 18.4753 49.0005 20.0841H45.8882V12.7956H56.821ZM58.6431 20.0841V3.68502V1.86289H80.5086V20.0841H79.2185C78.5155 18.4753 76.9102 17.3509 75.0422 17.3509C73.1742 17.3509 71.5689 18.4753 70.8659 20.0841H58.6431ZM56.821 3.68502H50.3134L44.0661 9.75876V20.0841C44.0661 21.0904 44.8819 21.9062 45.8882 21.9062H48.6214C48.6214 24.4221 50.6609 26.4615 53.1767 26.4615C55.6926 26.4615 57.732 24.4221 57.732 21.9062H70.4869C70.4869 24.4221 72.5264 26.4615 75.0422 26.4615C77.558 26.4615 79.5975 24.4221 79.5975 21.9062H80.5086C81.5149 21.9062 82.3307 21.0904 82.3307 20.0841V1.86289C82.3307 0.856563 81.5149 0.0407715 80.5086 0.0407715H58.6431C57.6368 0.0407715 56.821 0.856563 56.821 1.86289V3.68502ZM75.0422 24.6394C73.5327 24.6394 72.309 23.4157 72.309 21.9062C72.309 20.3967 73.5327 19.1731 75.0422 19.1731C76.5517 19.1731 77.7754 20.3967 77.7754 21.9062C77.7754 23.4157 76.5517 24.6394 75.0422 24.6394ZM53.1767 24.6394C51.6672 24.6394 50.4435 23.4157 50.4435 21.9062C50.4435 20.3967 51.6672 19.1731 53.1767 19.1731C54.6862 19.1731 55.9099 20.3967 55.9099 21.9062C55.9099 23.4157 54.6862 24.6394 53.1767 24.6394Z" fill="#2D9CDB"/>
<path d="M12.8624 10.9735H1.92962V10.5286L7.09454 5.50714H12.8624V10.9735ZM12.8624 12.7956V19.1726C12.0313 18.0664 10.7082 17.3509 9.21811 17.3509C7.35015 17.3509 5.74478 18.4753 5.04185 20.0841H1.92962V12.7956H12.8624ZM14.6845 20.0841V3.68502V1.86289H36.5499V20.0841H35.2598C34.5569 18.4753 32.9515 17.3509 31.0836 17.3509C29.2156 17.3509 27.6103 18.4753 26.9073 20.0841H14.6845ZM12.8624 3.68502H6.35478L0.107502 9.75876V20.0841C0.107502 21.0904 0.923294 21.9062 1.92962 21.9062H4.66281C4.66281 24.4221 6.70229 26.4615 9.21811 26.4615C11.7339 26.4615 13.7734 24.4221 13.7734 21.9062H26.5283C26.5283 24.4221 28.5678 26.4615 31.0836 26.4615C33.5994 26.4615 35.6389 24.4221 35.6389 21.9062H36.5499C37.5563 21.9062 38.3721 21.0904 38.3721 20.0841V1.86289C38.3721 0.856563 37.5563 0.0407715 36.5499 0.0407715H14.6845C13.6782 0.0407715 12.8624 0.856563 12.8624 1.86289V3.68502ZM31.0836 24.6394C29.5741 24.6394 28.3504 23.4157 28.3504 21.9062C28.3504 20.3967 29.5741 19.1731 31.0836 19.1731C32.5931 19.1731 33.8168 20.3967 33.8168 21.9062C33.8168 23.4157 32.5931 24.6394 31.0836 24.6394ZM9.21811 24.6394C7.70862 24.6394 6.48493 23.4157 6.48493 21.9062C6.48493 20.3967 7.70862 19.1731 9.21811 19.1731C10.7276 19.1731 11.9513 20.3967 11.9513 21.9062C11.9513 23.4157 10.7276 24.6394 9.21811 24.6394Z" fill="#2D9CDB"/>
</svg>
