<svg width="98" height="67" viewBox="0 0 98 67" fill="none" xmlns="http://www.w3.org/2000/svg">
<path d="M32.345 27.7241H4.62088V26.5959L17.7185 13.8621H32.345V27.7241ZM32.345 32.3448V48.5161C30.2374 45.711 26.8824 43.8966 23.1036 43.8966C18.3667 43.8966 14.2957 46.7477 12.5131 50.8276H4.62088V32.3448H32.345ZM36.9657 50.8276V9.24138V4.62069H92.414V50.8276H89.1424C87.3599 46.7477 83.2889 43.8966 78.5519 43.8966C73.815 43.8966 69.744 46.7477 67.9614 50.8276H36.9657ZM32.345 9.24138H15.8426L0.000190735 24.6437V50.8276C0.000190735 53.3795 2.06895 55.4483 4.62088 55.4483H11.5519C11.5519 61.8281 16.7238 67 23.1036 67C29.4835 67 34.6554 61.8281 34.6554 55.4483H67.0002C67.0002 61.8281 72.1721 67 78.5519 67C84.9318 67 90.1036 61.8281 90.1036 55.4483H92.414C94.9659 55.4483 97.0347 53.3795 97.0347 50.8276V4.62069C97.0347 2.06875 94.9659 0 92.414 0H36.9657C34.4138 0 32.345 2.06875 32.345 4.62069V9.24138ZM78.5519 62.3793C74.724 62.3793 71.6209 59.2762 71.6209 55.4483C71.6209 51.6204 74.724 48.5172 78.5519 48.5172C82.3798 48.5172 85.4829 51.6204 85.4829 55.4483C85.4829 59.2762 82.3798 62.3793 78.5519 62.3793ZM23.1036 62.3793C19.2757 62.3793 16.1726 59.2762 16.1726 55.4483C16.1726 51.6204 19.2757 48.5172 23.1036 48.5172C26.9315 48.5172 30.0347 51.6204 30.0347 55.4483C30.0347 59.2762 26.9315 62.3793 23.1036 62.3793Z" fill="#2D9CDB"/>
</svg>
