<svg width="145" height="27" viewBox="0 0 145 27" fill="none" xmlns="http://www.w3.org/2000/svg">
<path d="M25.6171 11.4075H36.5499V10.9625L31.385 5.9411H25.6171V11.4075ZM25.6171 13.2296V19.6066C26.4482 18.5004 27.7712 17.7849 29.2614 17.7849C31.1293 17.7849 32.7347 18.9092 33.4376 20.5181H36.5499V13.2296H25.6171ZM23.795 20.5181V4.11898V2.29685H1.92954V20.5181H3.21965C3.92258 18.9092 5.52795 17.7849 7.39591 17.7849C9.26388 17.7849 10.8692 18.9092 11.5722 20.5181H23.795ZM25.6171 4.11898H32.1247L38.372 10.1927V20.5181C38.372 21.5244 37.5562 22.3402 36.5499 22.3402H33.8167C33.8167 24.856 31.7772 26.8955 29.2614 26.8955C26.7456 26.8955 24.7061 24.856 24.7061 22.3402H11.9512C11.9512 24.856 9.91174 26.8955 7.39591 26.8955C4.88009 26.8955 2.84061 24.856 2.84061 22.3402H1.92954C0.923214 22.3402 0.107422 21.5244 0.107422 20.5181V2.29685C0.107422 1.29052 0.923214 0.474731 1.92954 0.474731H23.795C24.8013 0.474731 25.6171 1.29052 25.6171 2.29685V4.11898ZM7.39591 25.0734C8.90541 25.0734 10.1291 23.8497 10.1291 22.3402C10.1291 20.8307 8.90541 19.607 7.39591 19.607C5.88642 19.607 4.66273 20.8307 4.66273 22.3402C4.66273 23.8497 5.88642 25.0734 7.39591 25.0734ZM29.2614 25.0734C30.7709 25.0734 31.9946 23.8497 31.9946 22.3402C31.9946 20.8307 30.7709 19.607 29.2614 19.607C27.7519 19.607 26.5282 20.8307 26.5282 22.3402C26.5282 23.8497 27.7519 25.0734 29.2614 25.0734Z" fill="#F2C94C"/>
<path d="M69.5754 11.4075H80.5081V10.9625L75.3432 5.9411H69.5754V11.4075ZM69.5754 13.2296V19.6066C70.4065 18.5004 71.7295 17.7849 73.2196 17.7849C75.0876 17.7849 76.693 18.9092 77.3959 20.5181H80.5081V13.2296H69.5754ZM67.7533 20.5181V4.11898V2.29685H45.8878V20.5181H47.1779C47.8808 18.9092 49.4862 17.7849 51.3542 17.7849C53.2221 17.7849 54.8275 18.9092 55.5304 20.5181H67.7533ZM69.5754 4.11898H76.083L82.3302 10.1927V20.5181C82.3302 21.5244 81.5145 22.3402 80.5081 22.3402H77.7749C77.7749 24.856 75.7355 26.8955 73.2196 26.8955C70.7038 26.8955 68.6643 24.856 68.6643 22.3402H55.9095C55.9095 24.856 53.87 26.8955 51.3542 26.8955C48.8383 26.8955 46.7989 24.856 46.7989 22.3402H45.8878C44.8815 22.3402 44.0657 21.5244 44.0657 20.5181V2.29685C44.0657 1.29052 44.8815 0.474731 45.8878 0.474731H67.7533C68.7596 0.474731 69.5754 1.29052 69.5754 2.29685V4.11898ZM51.3542 25.0734C52.8637 25.0734 54.0873 23.8497 54.0873 22.3402C54.0873 20.8307 52.8637 19.607 51.3542 19.607C49.8447 19.607 48.621 20.8307 48.621 22.3402C48.621 23.8497 49.8447 25.0734 51.3542 25.0734ZM73.2196 25.0734C74.7291 25.0734 75.9528 23.8497 75.9528 22.3402C75.9528 20.8307 74.7291 19.607 73.2196 19.607C71.7101 19.607 70.4864 20.8307 70.4864 22.3402C70.4864 23.8497 71.7101 25.0734 73.2196 25.0734Z" fill="#F2C94C"/>
<path d="M113.535 11.4075H124.468V10.9625L119.303 5.9411H113.535V11.4075ZM113.535 13.2296V19.6066C114.366 18.5004 115.689 17.7849 117.179 17.7849C119.047 17.7849 120.653 18.9092 121.355 20.5181H124.468V13.2296H113.535ZM111.713 20.5181V4.11898V2.29685H89.8474V20.5181H91.1375C91.8404 18.9092 93.4458 17.7849 95.3138 17.7849C97.1817 17.7849 98.7871 18.9092 99.49 20.5181H111.713ZM113.535 4.11898H120.043L126.29 10.1927V20.5181C126.29 21.5244 125.474 22.3402 124.468 22.3402H121.735C121.735 24.856 119.695 26.8955 117.179 26.8955C114.663 26.8955 112.624 24.856 112.624 22.3402H99.8691C99.8691 24.856 97.8296 26.8955 95.3138 26.8955C92.7979 26.8955 90.7585 24.856 90.7585 22.3402H89.8474C88.8411 22.3402 88.0253 21.5244 88.0253 20.5181V2.29685C88.0253 1.29052 88.8411 0.474731 89.8474 0.474731H111.713C112.719 0.474731 113.535 1.29052 113.535 2.29685V4.11898ZM95.3138 25.0734C96.8233 25.0734 98.0469 23.8497 98.0469 22.3402C98.0469 20.8307 96.8233 19.607 95.3138 19.607C93.8043 19.607 92.5806 20.8307 92.5806 22.3402C92.5806 23.8497 93.8043 25.0734 95.3138 25.0734ZM117.179 25.0734C118.689 25.0734 119.912 23.8497 119.912 22.3402C119.912 20.8307 118.689 19.607 117.179 19.607C115.67 19.607 114.446 20.8307 114.446 22.3402C114.446 23.8497 115.67 25.0734 117.179 25.0734Z" fill="#F2C94C"/>
<path d="M157.493 11.4075H168.426V10.9625L163.261 5.9411H157.493V11.4075ZM157.493 13.2296V19.6066C158.324 18.5004 159.647 17.7849 161.137 17.7849C163.005 17.7849 164.611 18.9092 165.313 20.5181H168.426V13.2296H157.493ZM155.671 20.5181V4.11898V2.29685H133.805V20.5181H135.096C135.798 18.9092 137.404 17.7849 139.272 17.7849C141.14 17.7849 142.745 18.9092 143.448 20.5181H155.671ZM157.493 4.11898H164.001L170.248 10.1927V20.5181C170.248 21.5244 169.432 22.3402 168.426 22.3402H165.693C165.693 24.856 163.653 26.8955 161.137 26.8955C158.621 26.8955 156.582 24.856 156.582 22.3402H143.827C143.827 24.856 141.788 26.8955 139.272 26.8955C136.756 26.8955 134.716 24.856 134.716 22.3402H133.805C132.799 22.3402 131.983 21.5244 131.983 20.5181V2.29685C131.983 1.29052 132.799 0.474731 133.805 0.474731H155.671C156.677 0.474731 157.493 1.29052 157.493 2.29685V4.11898ZM139.272 25.0734C140.781 25.0734 142.005 23.8497 142.005 22.3402C142.005 20.8307 140.781 19.607 139.272 19.607C137.762 19.607 136.539 20.8307 136.539 22.3402C136.539 23.8497 137.762 25.0734 139.272 25.0734ZM161.137 25.0734C162.647 25.0734 163.87 23.8497 163.87 22.3402C163.87 20.8307 162.647 19.607 161.137 19.607C159.628 19.607 158.404 20.8307 158.404 22.3402C158.404 23.8497 159.628 25.0734 161.137 25.0734Z" fill="#F2C94C"/>
</svg>
