<svg width="98" height="67" viewBox="0 0 98 67" fill="none" xmlns="http://www.w3.org/2000/svg">
<path d="M64.6897 27.7241H92.4138V26.5959L79.3162 13.8621H64.6897V27.7241ZM64.6897 32.3448V48.5161C66.7972 45.711 70.1522 43.8966 73.931 43.8966C78.668 43.8966 82.739 46.7477 84.5216 50.8276H92.4138V32.3448H64.6897ZM60.069 50.8276V9.24138V4.62069H4.62069V50.8276H7.89224C9.6748 46.7477 13.7458 43.8966 18.4828 43.8966C23.2197 43.8966 27.2907 46.7477 29.0733 50.8276H60.069ZM64.6897 9.24138H81.1921L97.0345 24.6437V50.8276C97.0345 53.3795 94.9657 55.4483 92.4138 55.4483H85.4828C85.4828 61.8281 80.3109 67 73.931 67C67.5512 67 62.3793 61.8281 62.3793 55.4483H30.0345C30.0345 61.8281 24.8626 67 18.4828 67C12.1029 67 6.93103 61.8281 6.93103 55.4483H4.62069C2.06875 55.4483 0 53.3795 0 50.8276V4.62069C0 2.06875 2.06875 0 4.62069 0H60.069C62.6209 0 64.6897 2.06875 64.6897 4.62069V9.24138ZM18.4828 62.3793C22.3107 62.3793 25.4138 59.2762 25.4138 55.4483C25.4138 51.6204 22.3107 48.5172 18.4828 48.5172C14.6549 48.5172 11.5517 51.6204 11.5517 55.4483C11.5517 59.2762 14.6549 62.3793 18.4828 62.3793ZM73.931 62.3793C77.7589 62.3793 80.8621 59.2762 80.8621 55.4483C80.8621 51.6204 77.7589 48.5172 73.931 48.5172C70.1031 48.5172 67 51.6204 67 55.4483C67 59.2762 70.1031 62.3793 73.931 62.3793Z" fill="#F2C94C"/>
</svg>
