<svg width="19" height="19" viewBox="0 0 19 19" fill="none" xmlns="http://www.w3.org/2000/svg">
<path d="M13.6223 2.60703C13.4738 2.45862 13.2725 2.37524 13.0626 2.37524C12.8527 2.37524 12.6513 2.45862 12.5029 2.60703L10.5237 4.5862C10.3795 4.73551 10.2997 4.93549 10.3015 5.14306C10.3033 5.35063 10.3866 5.54919 10.5334 5.69597C10.6801 5.84275 10.8787 5.92601 11.0863 5.92782C11.2938 5.92962 11.4938 5.84983 11.6431 5.70562L13.0626 4.28616L14.482 5.70562C14.5551 5.78123 14.6424 5.84154 14.739 5.88303C14.8356 5.92452 14.9395 5.94636 15.0446 5.94727C15.1497 5.94819 15.254 5.92816 15.3513 5.88835C15.4485 5.84855 15.5369 5.78976 15.6113 5.71543C15.6856 5.6411 15.7444 5.55271 15.7842 5.45541C15.824 5.35812 15.844 5.25387 15.8431 5.14876C15.8422 5.04364 15.8204 4.93976 15.7789 4.84317C15.7374 4.74659 15.6771 4.65923 15.6015 4.5862L13.6223 2.60703ZM5.14591 3.1612C4.62101 3.1612 4.1176 3.36972 3.74643 3.74088C3.37527 4.11205 3.16675 4.61546 3.16675 5.14037V13.8487C3.16675 14.3736 3.37527 14.877 3.74643 15.2482C4.1176 15.6193 4.62101 15.8279 5.14591 15.8279H8.31258C8.52254 15.8279 8.72391 15.7445 8.87237 15.596C9.02084 15.4475 9.10425 15.2462 9.10425 15.0362C9.10425 14.8262 9.02084 14.6249 8.87237 14.4764C8.72391 14.3279 8.52254 14.2445 8.31258 14.2445H5.14591C5.04093 14.2445 4.94025 14.2028 4.86602 14.1286C4.79179 14.0544 4.75008 13.9537 4.75008 13.8487V5.14037C4.75008 5.03539 4.79179 4.9347 4.86602 4.86047C4.94025 4.78624 5.04093 4.74453 5.14591 4.74453H8.31258C8.52254 4.74453 8.72391 4.66113 8.87237 4.51266C9.02084 4.36419 9.10425 4.16283 9.10425 3.95287C9.10425 3.7429 9.02084 3.54154 8.87237 3.39307C8.72391 3.24461 8.52254 3.1612 8.31258 3.1612H5.14591ZM13.6223 16.3931L15.6015 14.414C15.7457 14.2646 15.8255 14.0647 15.8237 13.8571C15.8219 13.6495 15.7386 13.451 15.5918 13.3042C15.445 13.1574 15.2465 13.0741 15.0389 13.0723C14.8313 13.0705 14.6313 13.1503 14.482 13.2945L13.0626 14.714L11.6431 13.2945C11.4938 13.1503 11.2938 13.0705 11.0863 13.0723C10.8787 13.0741 10.6801 13.1574 10.5334 13.3042C10.3866 13.451 10.3033 13.6495 10.3015 13.8571C10.2997 14.0647 10.3795 14.2646 10.5237 14.414L12.5029 16.3931C12.6513 16.5415 12.8527 16.6249 13.0626 16.6249C13.2725 16.6249 13.4738 16.5415 13.6223 16.3931ZM13.8542 9.50008C13.8542 9.29011 13.7708 9.08875 13.6224 8.94028C13.4739 8.79182 13.2725 8.70841 13.0626 8.70841C12.8526 8.70841 12.6513 8.79182 12.5028 8.94028C12.3543 9.08875 12.2709 9.29011 12.2709 9.50008C12.2709 9.71004 12.3543 9.9114 12.5028 10.0599C12.6513 10.2083 12.8526 10.2917 13.0626 10.2917C13.2725 10.2917 13.4739 10.2083 13.6224 10.0599C13.7708 9.9114 13.8542 9.71004 13.8542 9.50008ZM13.0626 11.0834C13.2725 11.0834 13.4739 11.1668 13.6224 11.3153C13.7708 11.4637 13.8542 11.6651 13.8542 11.8751V12.6667C13.8542 12.8767 13.7708 13.0781 13.6224 13.2265C13.4739 13.375 13.2725 13.4584 13.0626 13.4584C12.8526 13.4584 12.6513 13.375 12.5028 13.2265C12.3543 13.0781 12.2709 12.8767 12.2709 12.6667V11.8751C12.2709 11.6651 12.3543 11.4637 12.5028 11.3153C12.6513 11.1668 12.8526 11.0834 13.0626 11.0834ZM13.0626 5.54174C12.8526 5.54174 12.6513 5.62515 12.5028 5.77362C12.3543 5.92208 12.2709 6.12345 12.2709 6.33341V7.12508C12.2709 7.33504 12.3543 7.5364 12.5028 7.68487C12.6513 7.83333 12.8526 7.91674 13.0626 7.91674C13.2725 7.91674 13.4739 7.83333 13.6224 7.68487C13.7708 7.5364 13.8542 7.33504 13.8542 7.12508V6.33341C13.8542 6.12345 13.7708 5.92208 13.6224 5.77362C13.4739 5.62515 13.2725 5.54174 13.0626 5.54174Z" fill="white"/>
</svg>
