<svg width="19" height="19" viewBox="0 0 19 19" fill="none" xmlns="http://www.w3.org/2000/svg">
<path d="M6.81754 1.5835C6.55034 1.5835 6.33374 1.8001 6.33374 2.06729V4.00248C6.33374 4.26967 6.55034 4.48627 6.81754 4.48627H14.5583C14.8255 4.48627 15.0421 4.26967 15.0421 4.00248V2.06729C15.0421 1.8001 14.8255 1.5835 14.5583 1.5835H6.81754ZM14.0745 3.03488C14.0745 3.30208 13.8579 3.51868 13.5907 3.51868H7.78513C7.51794 3.51868 7.30133 3.30208 7.30133 3.03488C7.30133 2.76769 7.51794 2.55109 7.78513 2.55109H13.5907C13.8579 2.55109 14.0745 2.76769 14.0745 3.03488ZM13.5907 5.45387C13.5907 5.18667 13.8073 4.97007 14.0745 4.97007C14.3417 4.97007 14.5583 5.18667 14.5583 5.45387V9.80803C14.5583 10.0752 14.3417 10.2918 14.0745 10.2918H7.30133C7.03414 10.2918 6.81754 10.0752 6.81754 9.80803V5.45387C6.81754 5.18667 7.03414 4.97007 7.30133 4.97007C7.56853 4.97007 7.78513 5.18667 7.78513 5.45387V9.32424H13.5907V5.45387ZM12.1393 5.69576C12.1393 6.09655 11.8144 6.42146 11.4136 6.42146H9.96221C9.56142 6.42146 9.23652 6.09655 9.23652 5.69576C9.23652 5.5603 9.34295 5.45387 9.47842 5.45387H11.8974C12.0329 5.45387 12.1393 5.5603 12.1393 5.69576Z" fill="white"/>
<path d="M17.185 14.4235L15.206 16.4027C15.0567 16.5469 14.8559 16.6267 14.6484 16.6249C14.4408 16.6231 14.2423 16.5398 14.0955 16.393C13.9488 16.2463 13.8655 16.0477 13.8637 15.8401C13.8619 15.6326 13.9417 15.4326 14.0859 15.2833L15.5052 13.8638L14.0859 12.4444C13.9374 12.2958 13.8541 12.0944 13.8542 11.8844C13.8542 11.6744 13.9377 11.473 14.0863 11.3245C14.2348 11.1761 14.4362 11.0927 14.6462 11.0928C14.8562 11.0929 15.0576 11.1764 15.206 11.3249L17.185 13.3041C17.3334 13.4526 17.4167 13.6539 17.4167 13.8638C17.4167 14.0737 17.3334 14.2751 17.185 14.4235Z" fill="white"/>
<path d="M3.16675 13.8638C3.16675 13.6539 3.25012 13.4526 3.39852 13.3041L5.3783 11.3249C5.45133 11.2493 5.53867 11.189 5.63525 11.1475C5.73183 11.106 5.8357 11.0842 5.94081 11.0833C6.04592 11.0824 6.15016 11.1024 6.24744 11.1422C6.34472 11.182 6.43311 11.2408 6.50743 11.3151C6.58176 11.3895 6.64054 11.4778 6.68034 11.5751C6.72014 11.6724 6.74017 11.7767 6.73926 11.8818C6.73834 11.9869 6.71651 12.0908 6.67502 12.1874C6.63353 12.284 6.57323 12.3713 6.49762 12.4444L5.07829 13.8638L6.49683 15.2833C6.64103 15.4326 6.72081 15.6326 6.71901 15.8401C6.71721 16.0477 6.63396 16.2463 6.48719 16.393C6.34042 16.5398 6.14188 16.6231 5.93432 16.6249C5.72677 16.6267 5.52681 16.5469 5.37751 16.4027L3.39852 14.4235C3.25012 14.2751 3.16675 14.0737 3.16675 13.8638Z" fill="white"/>
<path d="M10.8515 13.304C10.9999 13.4525 11.0833 13.6539 11.0833 13.8638C11.0833 14.0738 10.9999 14.2751 10.8515 14.4236C10.703 14.5721 10.5017 14.6555 10.2917 14.6555C10.0818 14.6555 9.88046 14.5721 9.73201 14.4236C9.58355 14.2751 9.50015 14.0738 9.50015 13.8638C9.50015 13.6539 9.58355 13.4525 9.73201 13.304C9.88046 13.1556 10.0818 13.0721 10.2917 13.0721C10.5017 13.0721 10.703 13.1556 10.8515 13.304Z" fill="white"/>
<path d="M8.4767 13.304C8.32825 13.1556 8.1269 13.0721 7.91696 13.0721H7.12536C6.91541 13.0721 6.71407 13.1556 6.56561 13.304C6.41716 13.4525 6.33376 13.6539 6.33376 13.8638C6.33376 14.0738 6.41716 14.2751 6.56561 14.4236C6.71407 14.5721 6.91541 14.6555 7.12536 14.6555H7.91696C8.1269 14.6555 8.32825 14.5721 8.4767 14.4236C8.62515 14.2751 8.70855 14.0738 8.70855 13.8638C8.70855 13.6539 8.62515 13.4525 8.4767 13.304Z" fill="white"/>
<path d="M14.0179 13.304C14.1663 13.4525 14.2497 13.6539 14.2497 13.8638C14.2497 14.0738 14.1663 14.2751 14.0179 14.4236C13.8694 14.5721 13.6681 14.6555 13.4581 14.6555H12.6665C12.4566 14.6555 12.2553 14.5721 12.1068 14.4236C11.9583 14.2751 11.8749 14.0738 11.8749 13.8638C11.8749 13.6539 11.9583 13.4525 12.1068 13.304C12.2553 13.1556 12.4566 13.0721 12.6665 13.0721H13.4581C13.6681 13.0721 13.8694 13.1556 14.0179 13.304Z" fill="white"/>
</svg>
