<svg width="26" height="26" viewBox="0 0 26 26" fill="none" xmlns="http://www.w3.org/2000/svg">
<path d="M7.75756 17.0769H8.77675C8.77675 17.3657 8.87459 17.6076 9.07027 17.8026C9.26528 17.9983 9.50716 18.0961 9.79593 18.0961C10.0847 18.0961 10.3269 17.9983 10.5226 17.8026C10.7176 17.6076 10.8151 17.3657 10.8151 17.0769H11.8343C12.1231 17.0769 12.3653 16.9791 12.561 16.7834C12.756 16.5884 12.8535 16.3465 12.8535 16.0577V13.0002C12.8535 12.7114 12.756 12.4692 12.561 12.2735C12.3653 12.0785 12.1231 11.981 11.8343 11.981H8.77675V10.9618H11.8598C12.1486 10.9618 12.3864 10.864 12.5732 10.6683C12.7601 10.4733 12.8535 10.2314 12.8535 9.94262C12.8535 9.65385 12.756 9.41162 12.561 9.21594C12.3653 9.02093 12.1231 8.92343 11.8343 8.92343H10.8151C10.8151 8.63466 10.7176 8.39243 10.5226 8.19675C10.3269 8.00175 10.0847 7.90424 9.79593 7.90424C9.50716 7.90424 9.26528 8.00175 9.07027 8.19675C8.87459 8.39243 8.77675 8.63466 8.77675 8.92343H7.75756C7.46879 8.92343 7.22656 9.02093 7.03088 9.21594C6.83587 9.41162 6.73837 9.65385 6.73837 9.94262V13.0002C6.73837 13.289 6.83587 13.5308 7.03088 13.7258C7.22656 13.9215 7.46879 14.0194 7.75756 14.0194H10.8151V15.0386H7.73208C7.44331 15.0386 7.2055 15.1361 7.01865 15.3311C6.8318 15.5267 6.73837 15.769 6.73837 16.0577C6.73837 16.3465 6.83587 16.5884 7.03088 16.7834C7.22656 16.9791 7.46879 17.0769 7.75756 17.0769ZM16.5735 16.975C16.6754 17.0769 16.7944 17.1279 16.9302 17.1279C17.0661 17.1279 17.185 17.0769 17.287 16.975L18.9686 15.2934H14.8919L16.5735 16.975ZM14.8919 10.9618H18.9686L17.287 9.28015C17.185 9.17823 17.0661 9.12727 16.9302 9.12727C16.7944 9.12727 16.6754 9.17823 16.5735 9.28015L14.8919 10.9618ZM4.7 21.1537C4.13944 21.1537 3.65975 20.9543 3.2609 20.5554C2.86138 20.1559 2.66162 19.6759 2.66162 19.1153V6.88506C2.66162 6.3245 2.86138 5.8448 3.2609 5.44596C3.65975 5.04644 4.13944 4.84668 4.7 4.84668H21.007C21.5676 4.84668 22.0476 5.04644 22.4471 5.44596C22.846 5.8448 23.0454 6.3245 23.0454 6.88506V19.1153C23.0454 19.6759 22.846 20.1559 22.4471 20.5554C22.0476 20.9543 21.5676 21.1537 21.007 21.1537H4.7ZM4.7 19.1153H21.007V6.88506H4.7V19.1153Z" fill="white"/>
</svg>
