<svg width="19" height="19" viewBox="0 0 19 19" fill="none" xmlns="http://www.w3.org/2000/svg">
<path d="M15.8398 5.14591C15.8398 4.62101 15.6313 4.1176 15.2601 3.74643C14.889 3.37527 14.3855 3.16675 13.8606 3.16675H5.1523C4.62739 3.16675 4.12398 3.37527 3.75282 3.74643C3.38165 4.1176 3.17313 4.62101 3.17313 5.14591V8.31258C3.17313 8.52254 3.25654 8.72391 3.40501 8.87237C3.55347 9.02084 3.75484 9.10425 3.9648 9.10425C4.17476 9.10425 4.37613 9.02084 4.52459 8.87237C4.67306 8.72391 4.75647 8.52254 4.75647 8.31258V5.14591C4.75647 5.04093 4.79817 4.94025 4.8724 4.86602C4.94664 4.79179 5.04732 4.75008 5.1523 4.75008H13.8606C13.9656 4.75008 14.0663 4.79179 14.1405 4.86602C14.2148 4.94025 14.2565 5.04093 14.2565 5.14591V8.31258C14.2565 8.52254 14.3399 8.72391 14.4883 8.87237C14.6368 9.02084 14.8382 9.10425 15.0481 9.10425C15.2581 9.10425 15.4595 9.02084 15.6079 8.87237C15.7564 8.72391 15.8398 8.52254 15.8398 8.31258V5.14591ZM14.4148 15.6015L16.394 13.6223C16.5424 13.4738 16.6258 13.2725 16.6258 13.0626C16.6258 12.8527 16.5424 12.6513 16.394 12.5029L14.4148 10.5237C14.2664 10.3752 14.065 10.2917 13.855 10.2916C13.645 10.2915 13.4435 10.3749 13.295 10.5233C13.1464 10.6718 13.0629 10.8731 13.0629 11.0831C13.0628 11.2931 13.1461 11.4946 13.2946 11.6431L14.7141 13.0626L13.2946 14.482C13.1504 14.6313 13.0706 14.8313 13.0724 15.0389C13.0742 15.2465 13.1575 15.445 13.3042 15.5918C13.451 15.7386 13.6496 15.8219 13.8572 15.8237C14.0647 15.8255 14.2655 15.7457 14.4148 15.6015ZM2.6063 12.5029C2.45789 12.6513 2.37451 12.8527 2.37451 13.0626C2.37451 13.2725 2.45789 13.4738 2.6063 13.6223L4.58547 15.6015C4.73478 15.7457 4.93475 15.8255 5.14233 15.8237C5.3499 15.8219 5.54846 15.7386 5.69524 15.5918C5.84202 15.445 5.92528 15.2465 5.92708 15.0389C5.92889 14.8313 5.84909 14.6313 5.70488 14.482L4.28622 13.0626L5.70568 11.6431C5.78129 11.5701 5.8416 11.4827 5.88309 11.3862C5.92458 11.2896 5.94642 11.1857 5.94733 11.0806C5.94825 10.9754 5.92822 10.8712 5.88841 10.7739C5.8486 10.6766 5.78982 10.5882 5.71549 10.5139C5.64116 10.4396 5.55277 10.3808 5.45547 10.341C5.35818 10.3012 5.25393 10.2811 5.14882 10.282C5.0437 10.283 4.93982 10.3048 4.84323 10.3463C4.74664 10.3878 4.65929 10.4481 4.58626 10.5237L2.6063 12.5029ZM10.2918 13.0626C10.2918 12.8526 10.2084 12.6513 10.0599 12.5028C9.91146 12.3543 9.7101 12.2709 9.50013 12.2709C9.29017 12.2709 9.08881 12.3543 8.94034 12.5028C8.79188 12.6513 8.70847 12.8526 8.70847 13.0626C8.70847 13.2725 8.79188 13.4739 8.94034 13.6224C9.08881 13.7708 9.29017 13.8542 9.50013 13.8542C9.7101 13.8542 9.91146 13.7708 10.0599 13.6224C10.2084 13.4739 10.2918 13.2725 10.2918 13.0626ZM7.12513 12.2709C7.3351 12.2709 7.53646 12.3543 7.68493 12.5028C7.83339 12.6513 7.9168 12.8526 7.9168 13.0626C7.9168 13.2725 7.83339 13.4739 7.68493 13.6224C7.53646 13.7708 7.3351 13.8542 7.12513 13.8542H6.33347C6.1235 13.8542 5.92214 13.7708 5.77368 13.6224C5.62521 13.4739 5.5418 13.2725 5.5418 13.0626C5.5418 12.8526 5.62521 12.6513 5.77368 12.5028C5.92214 12.3543 6.1235 12.2709 6.33347 12.2709H7.12513ZM13.4585 13.0626C13.4585 12.8526 13.3751 12.6513 13.2266 12.5028C13.0781 12.3543 12.8768 12.2709 12.6668 12.2709H11.8751C11.6652 12.2709 11.4638 12.3543 11.3153 12.5028C11.1669 12.6513 11.0835 12.8526 11.0835 13.0626C11.0835 13.2725 11.1669 13.4739 11.3153 13.6224C11.4638 13.7708 11.6652 13.8542 11.8751 13.8542H12.6668C12.8768 13.8542 13.0781 13.7708 13.2266 13.6224C13.3751 13.4739 13.4585 13.2725 13.4585 13.0626Z" fill="white"/>
</svg>
