<svg width="80" height="80" viewBox="0 0 80 80" fill="none" xmlns="http://www.w3.org/2000/svg">
<path d="M40 15C39.2583 15 38.5333 14.7801 37.9166 14.368C37.2999 13.956 36.8193 13.3703 36.5355 12.6851C36.2516 11.9998 36.1774 11.2458 36.3221 10.5184C36.4668 9.79098 36.8239 9.1228 37.3484 8.59835C37.8728 8.0739 38.541 7.71675 39.2684 7.57206C39.9958 7.42736 40.7498 7.50162 41.4351 7.78545C42.1203 8.06928 42.706 8.54993 43.118 9.16661C43.5301 9.7833 43.75 10.5083 43.75 11.25C43.749 12.2443 43.3536 13.1975 42.6506 13.9006C41.9475 14.6036 40.9943 14.999 40 15ZM40 10C39.7528 10 39.5111 10.0733 39.3055 10.2107C39.1 10.348 38.9398 10.5432 38.8452 10.7716C38.7505 11.0001 38.7258 11.2514 38.774 11.4939C38.8223 11.7363 38.9413 11.9591 39.1161 12.1339C39.2909 12.3087 39.5137 12.4278 39.7561 12.476C39.9986 12.5242 40.2499 12.4995 40.4784 12.4049C40.7068 12.3102 40.902 12.15 41.0393 11.9445C41.1767 11.7389 41.25 11.4972 41.25 11.25C41.2497 10.9186 41.1179 10.6008 40.8835 10.3665C40.6492 10.1321 40.3314 10.0003 40 10Z" fill="#E8653C"/>
<path d="M62.5 48.7375H57.27C57.0132 48.0084 56.5369 47.3766 55.9067 46.929C55.2764 46.4814 54.523 46.2398 53.75 46.2375C51.9975 46.2388 49.6213 45.9525 48.4375 47.5338C47.8613 47.4775 46.8425 47.4863 46.25 47.4875V43.9375C48.6824 42.8502 50.7135 41.0289 52.0585 38.7289C53.4036 36.4289 53.995 33.7656 53.75 31.1125C55.0423 30.8368 56.2144 30.1593 57.0984 29.1771C57.9824 28.1949 58.5332 26.9583 58.6719 25.6442C58.8106 24.33 58.5301 23.0057 57.8706 21.8606C57.2111 20.7155 56.2063 19.8083 55 19.2688V14.9875C54.9967 12.0049 53.8104 9.14532 51.7013 7.03625C49.5922 4.92718 46.7327 3.74086 43.75 3.73755H41.25C41.25 3.40603 41.1183 3.08809 40.8839 2.85367C40.6495 2.61924 40.3315 2.48755 40 2.48755C39.6685 2.48755 39.3505 2.61924 39.1161 2.85367C38.8817 3.08809 38.75 3.40603 38.75 3.73755H36.25C33.2673 3.74086 30.4078 4.92718 28.2987 7.03625C26.1896 9.14532 25.0033 12.0049 25 14.9875V19.2675C23.7932 19.8068 22.7879 20.714 22.1281 21.8593C21.4682 23.0045 21.1875 24.3292 21.3262 25.6437C21.465 26.9582 22.0159 28.1951 22.9003 29.1774C23.7848 30.1597 24.9572 30.8371 26.25 31.1125C26.0048 33.7657 26.5962 36.429 27.9412 38.729C29.2862 41.029 31.3175 42.8504 33.75 43.9375V47.4875C33.1525 47.4875 32.1437 47.4775 31.5625 47.5338C30.3787 45.9525 28.0013 46.2388 26.25 46.2375C25.477 46.2398 24.7236 46.4814 24.0933 46.929C23.4631 47.3766 22.9868 48.0084 22.73 48.7375H17.5C16.1744 48.7392 14.9036 49.2665 13.9663 50.2038C13.029 51.1412 12.5017 52.412 12.5 53.7375V58.7375C12.5034 59.8444 12.8742 60.9188 13.5543 61.7921C14.2344 62.6654 15.1852 63.2881 16.2575 63.5625C16.2575 63.6213 16.25 63.6788 16.25 63.7375V76.2375C16.25 76.5691 16.3817 76.887 16.6161 77.1214C16.8505 77.3559 17.1685 77.4875 17.5 77.4875H62.5C62.8315 77.4875 63.1495 77.3559 63.3839 77.1214C63.6183 76.887 63.75 76.5691 63.75 76.2375V63.7375C63.75 63.6775 63.7437 63.6225 63.7425 63.5625C64.8149 63.2883 65.7659 62.6656 66.446 61.7923C67.1261 60.919 67.4968 59.8445 67.5 58.7375V53.7375C67.4983 52.412 66.971 51.1412 66.0337 50.2038C65.0964 49.2665 63.8256 48.7392 62.5 48.7375ZM27.5 14.9875C27.5026 12.6677 28.4254 10.4437 30.0657 8.80329C31.7061 7.16292 33.9302 6.2402 36.25 6.23755H43.75C46.0698 6.2402 48.2939 7.16292 49.9343 8.80329C51.5746 10.4437 52.4974 12.6677 52.5 14.9875V18.6475C44.4711 15.4621 35.5289 15.4621 27.5 18.6475V14.9875ZM51.25 20.8338V25.6688C43.9685 23.1074 36.0309 23.1083 28.75 25.6713V20.8338C35.992 18.0518 44.008 18.0518 51.25 20.8338ZM28.75 32.4875V29.9875C28.75 29.656 28.6183 29.3381 28.3839 29.1037C28.1495 28.8692 27.8315 28.7375 27.5 28.7375C26.6236 28.7269 25.7786 28.4095 25.1118 27.8406C24.445 27.2717 23.9985 26.4872 23.85 25.6234C23.7014 24.7596 23.8602 23.871 24.2986 23.112C24.737 22.3531 25.4275 21.7717 26.25 21.4688V25.6713C26.2527 26.069 26.3498 26.4604 26.5335 26.8132C26.7171 27.166 26.982 27.4702 27.3062 27.7005C27.6305 27.9309 28.0048 28.0809 28.3984 28.1382C28.792 28.1955 29.1935 28.1584 29.57 28.03C36.3198 25.651 43.6802 25.651 50.43 28.03C50.8065 28.1581 51.2079 28.195 51.6014 28.1376C51.9949 28.0801 52.3691 27.9301 52.6933 27.6998C53.0174 27.4695 53.2823 27.1655 53.466 26.8128C53.6497 26.4602 53.747 26.0689 53.75 25.6713V21.4688C54.5725 21.7717 55.263 22.3531 55.7014 23.112C56.1398 23.871 56.2986 24.7596 56.15 25.6234C56.0015 26.4872 55.555 27.2717 54.8882 27.8406C54.2214 28.4095 53.3764 28.7269 52.5 28.7375C52.1685 28.7375 51.8505 28.8692 51.6161 29.1037C51.3817 29.3381 51.25 29.656 51.25 29.9875V32.4875C51.2369 35.1357 50.1791 37.6716 48.3065 39.5441C46.434 41.4166 43.8981 42.4744 41.25 42.4875H38.75C36.1019 42.4744 33.566 41.4166 31.6935 39.5441C29.8209 37.6716 28.7631 35.1357 28.75 32.4875ZM43.75 44.7363V49.9875C43.7493 50.6504 43.4857 51.2859 43.017 51.7546C42.5483 52.2233 41.9128 52.4869 41.25 52.4875H38.75C38.0872 52.4869 37.4517 52.2233 36.983 51.7546C36.5143 51.2859 36.2507 50.6504 36.25 49.9875V44.7375C38.7355 45.1181 41.2645 45.1168 43.75 44.7363ZM16.4925 61.0225C16.0491 60.8273 15.6719 60.5073 15.4069 60.1017C15.142 59.696 15.0006 59.2221 15 58.7375V53.7375C15.0007 53.0747 15.2643 52.4392 15.733 51.9705C16.2017 51.5018 16.8372 51.2382 17.5 51.2375H22.1475C19.1484 53.7141 17.141 57.1875 16.4925 61.0225ZM26.25 74.9875H18.75V63.7375C18.7499 60.2333 20.0918 56.862 22.5 54.3163V68.7375C22.501 69.7318 22.8964 70.6851 23.5994 71.3881C24.3025 72.0911 25.2557 72.4866 26.25 72.4875V74.9875ZM27.5 67.4875C27.1685 67.4875 26.8505 67.6192 26.6161 67.8537C26.3817 68.0881 26.25 68.406 26.25 68.7375V69.9875C25.9186 69.9872 25.6008 69.8554 25.3665 69.6211C25.1321 69.3867 25.0003 69.069 25 68.7375V49.9875C25.0003 49.6561 25.1321 49.3384 25.3665 49.104C25.6008 48.8697 25.9186 48.7379 26.25 48.7375H28.75C29.0814 48.7379 29.3992 48.8697 29.6335 49.104C29.8679 49.3384 29.9997 49.6561 30 49.9875V58.7375H28.75C28.4168 58.7375 28.0973 58.8699 27.8617 59.1055C27.6261 59.3411 27.4938 59.6606 27.4938 59.9938C27.4938 60.327 27.6261 60.6465 27.8617 60.8821C28.0973 61.1177 28.4168 61.25 28.75 61.25H30V68.7375C29.9997 69.069 29.8679 69.3867 29.6335 69.6211C29.3992 69.8554 29.0814 69.9872 28.75 69.9875V68.7375C28.75 68.406 28.6183 68.0881 28.3839 67.8537C28.1495 67.6192 27.8315 67.4875 27.5 67.4875ZM51.25 74.9875H28.75V72.4875C29.7443 72.4866 30.6975 72.0911 31.4006 71.3881C32.1036 70.6851 32.499 69.7318 32.5 68.7375V49.9875H33.75C33.7517 51.3131 34.279 52.5839 35.2163 53.5213C36.1536 54.4586 37.4244 54.9859 38.75 54.9875H41.25C42.5756 54.9859 43.8464 54.4586 44.7837 53.5213C45.721 52.5839 46.2483 51.3131 46.25 49.9875H47.5V68.7375C47.501 69.7318 47.8964 70.6851 48.5994 71.3881C49.3025 72.0911 50.2557 72.4866 51.25 72.4875V74.9875ZM52.5 67.4875C52.1685 67.4875 51.8505 67.6192 51.6161 67.8537C51.3817 68.0881 51.25 68.406 51.25 68.7375V69.9875C50.9186 69.9872 50.6008 69.8554 50.3665 69.6211C50.1321 69.3867 50.0003 69.069 50 68.7375V61.25H51.25C51.5832 61.25 51.9027 61.1177 52.1383 60.8821C52.3739 60.6465 52.5063 60.327 52.5063 59.9938C52.5063 59.6606 52.3739 59.3411 52.1383 59.1055C51.9027 58.8699 51.5832 58.7375 51.25 58.7375H50V49.9875C50.0003 49.6561 50.1321 49.3384 50.3665 49.104C50.6008 48.8697 50.9186 48.7379 51.25 48.7375H53.75C54.0814 48.7379 54.3992 48.8697 54.6335 49.104C54.8679 49.3384 54.9997 49.6561 55 49.9875V68.7375C54.9997 69.069 54.8679 69.3867 54.6335 69.6211C54.3992 69.8554 54.0814 69.9872 53.75 69.9875V68.7375C53.75 68.406 53.6183 68.0881 53.3839 67.8537C53.1495 67.6192 52.8315 67.4875 52.5 67.4875ZM61.25 74.9875H53.75V72.4875C54.7443 72.4866 55.6975 72.0911 56.4006 71.3881C57.1036 70.6851 57.499 69.7318 57.5 68.7375V54.3163C59.9075 56.8624 61.2493 60.2334 61.25 63.7375V74.9875ZM65 58.7375C64.9993 59.2209 64.8576 59.6936 64.5923 60.0977C64.3269 60.5018 63.9495 60.8197 63.5062 61.0126C62.8555 57.1814 60.8488 53.712 57.8525 51.2375H62.5C63.1628 51.2382 63.7983 51.5018 64.267 51.9705C64.7357 52.4392 64.9993 53.0747 65 53.7375V58.7375Z" fill="#E8653C"/>
<path d="M37.5 58.75H35C34.6685 58.75 34.3505 58.8817 34.1161 59.1161C33.8817 59.3505 33.75 59.6685 33.75 60C33.75 60.3315 33.8817 60.6495 34.1161 60.8839C34.3505 61.1183 34.6685 61.25 35 61.25H37.5C37.8315 61.25 38.1495 61.1183 38.3839 60.8839C38.6183 60.6495 38.75 60.3315 38.75 60C38.75 59.6685 38.6183 59.3505 38.3839 59.1161C38.1495 58.8817 37.8315 58.75 37.5 58.75ZM45 58.75H42.5C42.1685 58.75 41.8505 58.8817 41.6161 59.1161C41.3817 59.3505 41.25 59.6685 41.25 60C41.25 60.3315 41.3817 60.6495 41.6161 60.8839C41.8505 61.1183 42.1685 61.25 42.5 61.25H45C45.3315 61.25 45.6495 61.1183 45.8839 60.8839C46.1183 60.6495 46.25 60.3315 46.25 60C46.25 59.6685 46.1183 59.3505 45.8839 59.1161C45.6495 58.8817 45.3315 58.75 45 58.75Z" fill="#E8653C"/>
</svg>
