<svg width="80" height="80" viewBox="0 0 80 80" fill="none" xmlns="http://www.w3.org/2000/svg">
<path fill-rule="evenodd" clip-rule="evenodd" d="M40.4449 7.49997C40.4399 7.5016 40.4349 7.50327 40.4299 7.50497C40.4216 7.50488 40.4132 7.50488 40.4049 7.50497C40.258 7.51548 40.1141 7.55188 39.9799 7.61247L11.0849 19.97C10.7882 20.0168 10.5183 20.1689 10.3245 20.3985C10.1308 20.628 10.0262 20.9196 10.0299 21.22V58.725C10.0284 58.9032 10.0651 59.0796 10.1374 59.2425C10.139 59.2475 10.1407 59.2525 10.1424 59.2575C10.1525 59.2803 10.1634 59.3028 10.1749 59.325C10.3092 59.5948 10.5365 59.807 10.8149 59.9225L39.7324 72.285C39.9791 72.4628 40.2822 72.5446 40.5849 72.515C40.8039 72.5034 41.016 72.4344 41.1999 72.315L70.1849 59.9225C70.3883 59.8398 70.5663 59.705 70.7011 59.5316C70.8358 59.3583 70.9225 59.1525 70.9524 58.935C70.9564 58.9126 70.9597 58.8901 70.9624 58.8675C70.9646 58.8475 70.9662 58.8275 70.9674 58.8075C70.9679 58.7866 70.9679 58.7658 70.9674 58.745C70.9675 58.7383 70.9675 58.7316 70.9674 58.725V21.22C70.9707 20.9234 70.8683 20.6353 70.6787 20.4073C70.4891 20.1792 70.2246 20.026 69.9324 19.975L41.0149 7.61247C40.9895 7.59992 40.9636 7.58825 40.9374 7.57747C40.9341 7.57578 40.9307 7.57412 40.9274 7.57247C40.8903 7.56157 40.8528 7.55239 40.8149 7.54497C40.8025 7.54144 40.79 7.5381 40.7774 7.53497C40.7493 7.52731 40.721 7.52064 40.6924 7.51497C40.6799 7.51311 40.6674 7.51144 40.6549 7.50997C40.6275 7.50739 40.5999 7.50572 40.5724 7.50497C40.53 7.50113 40.4875 7.49946 40.4449 7.49997ZM40.4974 10.1125L46.6249 12.73L20.6549 23.8375C20.6295 23.8483 20.6045 23.86 20.5799 23.8725L14.4499 21.25L40.4999 10.1125H40.4974ZM49.8049 14.0925L57.2399 17.27L30.7849 28.585C30.5405 28.69 30.3359 28.8703 30.2011 29.0996C30.0662 29.3289 30.008 29.5953 30.0349 29.86C30.0304 29.9082 30.0288 29.9566 30.0299 30.005V43.38L27.3199 39.3125C27.151 39.0593 26.8955 38.8764 26.6014 38.7982C26.3073 38.72 25.9948 38.7517 25.7224 38.8875L22.5299 40.4825V25.7575L49.8049 14.0925ZM60.4199 18.6275L66.5524 21.25L40.4999 32.3875L34.3724 29.77L60.3474 18.6625C60.3728 18.6516 60.3978 18.64 60.4224 18.6275H60.4199ZM12.5299 23.145L20.0299 26.3525V42.505C20.0299 42.7181 20.0844 42.9278 20.1883 43.1139C20.2921 43.3001 20.4418 43.4566 20.6232 43.5685C20.8046 43.6805 21.0116 43.7443 21.2245 43.7537C21.4375 43.7631 21.6493 43.718 21.8399 43.6225L25.8499 41.615L30.1699 48.095C30.3071 48.3591 30.534 48.5657 30.8099 48.6775C30.8468 48.6917 30.8843 48.7043 30.9224 48.715C30.9241 48.7166 30.9257 48.7183 30.9274 48.72C31.0074 48.7431 31.0894 48.7582 31.1724 48.765C31.214 48.7687 31.2557 48.7704 31.2974 48.77C31.3391 48.7704 31.3808 48.7687 31.4224 48.765C31.4645 48.7588 31.5062 48.7504 31.5474 48.74C31.5726 48.7341 31.5976 48.7274 31.6224 48.72C31.6366 48.7169 31.6508 48.7136 31.6649 48.71C31.9445 48.622 32.1842 48.4387 32.3424 48.1919C32.5005 47.9452 32.5668 47.6507 32.5299 47.36V31.705L39.2474 34.575V69.36L12.5299 57.935V23.145ZM68.4674 23.15V57.935L41.7474 69.365V34.575L68.4674 23.15ZM52.7749 51.88C52.7699 51.8816 52.7649 51.8833 52.7599 51.885C52.6045 51.8925 52.4519 51.929 52.3099 51.9925L45.0224 55.1075C44.7174 55.2374 44.4765 55.4832 44.3527 55.7908C44.229 56.0983 44.2324 56.4425 44.3624 56.7475C44.4924 57.0525 44.7382 57.2934 45.0457 57.4171C45.3533 57.5409 45.6974 57.5374 46.0024 57.4075L53.2974 54.2925C53.5742 54.1843 53.8035 53.9811 53.944 53.7193C54.0846 53.4574 54.1272 53.154 54.0643 52.8635C54.0014 52.5731 53.8371 52.3145 53.6008 52.1343C53.3645 51.954 53.0717 51.8639 52.7749 51.88ZM60.0499 53.755C59.8971 53.7634 59.7471 53.7998 59.6074 53.8625L52.3124 56.9775L45.0224 60.0975C44.7174 60.2274 44.4765 60.4732 44.3527 60.7808C44.229 61.0883 44.2324 61.4325 44.3624 61.7375C44.4924 62.0425 44.7382 62.2834 45.0457 62.4071C45.3533 62.5309 45.6974 62.5274 46.0024 62.3975L53.2974 59.2775L60.5874 56.1575C60.8586 56.0444 61.0813 55.8395 61.2165 55.5786C61.3516 55.3177 61.3905 55.0175 61.3263 54.7308C61.2622 54.4441 61.0991 54.1891 60.8657 54.0106C60.6322 53.8322 60.3434 53.7417 60.0499 53.755Z" fill="#E8653C"/>
</svg>
