<svg width="19" height="19" viewBox="0 0 19 19" fill="none" xmlns="http://www.w3.org/2000/svg">
<path d="M17.2188 4.15625H1.78125C1.62378 4.15625 1.47276 4.21881 1.36141 4.33016C1.25006 4.44151 1.1875 4.59253 1.1875 4.75V14.25C1.1875 14.4075 1.25006 14.5585 1.36141 14.6698C1.47276 14.7812 1.62378 14.8438 1.78125 14.8438H17.2188C17.3762 14.8438 17.5272 14.7812 17.6386 14.6698C17.7499 14.5585 17.8125 14.4075 17.8125 14.25V4.75C17.8125 4.59253 17.7499 4.44151 17.6386 4.33016C17.5272 4.21881 17.3762 4.15625 17.2188 4.15625ZM3.5625 7.125C3.5625 6.96753 3.62506 6.81651 3.73641 6.70516C3.84776 6.59381 3.99878 6.53125 4.15625 6.53125H6.53125C6.68872 6.53125 6.83975 6.59381 6.95109 6.70516C7.06244 6.81651 7.125 6.96753 7.125 7.125V9.5C7.125 9.65747 7.06244 9.8085 6.95109 9.91985C6.83975 10.0312 6.68872 10.0938 6.53125 10.0938H4.15625C3.99878 10.0938 3.84776 10.0312 3.73641 9.91985C3.62506 9.8085 3.5625 9.65747 3.5625 9.5V7.125ZM4.75 12.4688H3.5625C3.40503 12.4688 3.25401 12.4062 3.14266 12.2948C3.03131 12.1835 2.96875 12.0325 2.96875 11.875C2.96875 11.7175 3.03131 11.5665 3.14266 11.4552C3.25401 11.3438 3.40503 11.2812 3.5625 11.2812H4.75C4.90747 11.2812 5.05849 11.3438 5.16984 11.4552C5.28119 11.5665 5.34375 11.7175 5.34375 11.875C5.34375 12.0325 5.28119 12.1835 5.16984 12.2948C5.05849 12.4062 4.90747 12.4688 4.75 12.4688ZM8.3125 12.4688H7.125C6.96753 12.4688 6.8165 12.4062 6.70516 12.2948C6.59381 12.1835 6.53125 12.0325 6.53125 11.875C6.53125 11.7175 6.59381 11.5665 6.70516 11.4552C6.8165 11.3438 6.96753 11.2812 7.125 11.2812H8.3125C8.46997 11.2812 8.621 11.3438 8.73234 11.4552C8.84369 11.5665 8.90625 11.7175 8.90625 11.875C8.90625 12.0325 8.84369 12.1835 8.73234 12.2948C8.621 12.4062 8.46997 12.4688 8.3125 12.4688ZM11.875 12.4688H10.6875C10.53 12.4688 10.379 12.4062 10.2677 12.2948C10.1563 12.1835 10.0938 12.0325 10.0938 11.875C10.0938 11.7175 10.1563 11.5665 10.2677 11.4552C10.379 11.3438 10.53 11.2812 10.6875 11.2812H11.875C12.0325 11.2812 12.1835 11.3438 12.2948 11.4552C12.4062 11.5665 12.4688 11.7175 12.4688 11.875C12.4688 12.0325 12.4062 12.1835 12.2948 12.2948C12.1835 12.4062 12.0325 12.4688 11.875 12.4688ZM15.4375 12.4688H14.25C14.0925 12.4688 13.9415 12.4062 13.8302 12.2948C13.7188 12.1835 13.6562 12.0325 13.6562 11.875C13.6562 11.7175 13.7188 11.5665 13.8302 11.4552C13.9415 11.3438 14.0925 11.2812 14.25 11.2812H15.4375C15.595 11.2812 15.746 11.3438 15.8573 11.4552C15.9687 11.5665 16.0312 11.7175 16.0312 11.875C16.0312 12.0325 15.9687 12.1835 15.8573 12.2948C15.746 12.4062 15.595 12.4688 15.4375 12.4688ZM15.4375 8.90625H9.5C9.34253 8.90625 9.19151 8.84369 9.08016 8.73234C8.96881 8.621 8.90625 8.46997 8.90625 8.3125C8.90625 8.15503 8.96881 8.00401 9.08016 7.89266C9.19151 7.78131 9.34253 7.71875 9.5 7.71875H15.4375C15.595 7.71875 15.746 7.78131 15.8573 7.89266C15.9687 8.00401 16.0312 8.15503 16.0312 8.3125C16.0312 8.46997 15.9687 8.621 15.8573 8.73234C15.746 8.84369 15.595 8.90625 15.4375 8.90625Z" fill="#E8653C"/>
</svg>
