<svg width="80" height="80" viewBox="0 0 80 80" fill="none" xmlns="http://www.w3.org/2000/svg">
<path d="M51.1999 35.2H70.3999V34.4186L61.3293 25.6H51.1999V35.2ZM51.1999 38.4V49.5992C52.6595 47.6565 54.9829 46.4 57.5999 46.4C60.8804 46.4 63.6997 48.3745 64.9342 51.2H70.3999V38.4H51.1999ZM47.9999 51.2V22.4V19.2H9.5999V51.2H11.8656C13.1001 48.3745 15.9194 46.4 19.1999 46.4C22.4804 46.4 25.2997 48.3745 26.5342 51.2H47.9999ZM51.1999 22.4H62.6285L73.5999 33.0667V51.2C73.5999 52.9673 72.1672 54.4 70.3999 54.4H65.5999C65.5999 58.8183 62.0182 62.4 57.5999 62.4C53.1816 62.4 49.5999 58.8183 49.5999 54.4H27.1999C27.1999 58.8183 23.6182 62.4 19.1999 62.4C14.7816 62.4 11.1999 58.8183 11.1999 54.4H9.5999C7.83259 54.4 6.3999 52.9673 6.3999 51.2V19.2C6.3999 17.4327 7.83259 16 9.5999 16H47.9999C49.7672 16 51.1999 17.4327 51.1999 19.2V22.4ZM19.1999 59.2C21.8509 59.2 23.9999 57.051 23.9999 54.4C23.9999 51.749 21.8509 49.6 19.1999 49.6C16.5489 49.6 14.3999 51.749 14.3999 54.4C14.3999 57.051 16.5489 59.2 19.1999 59.2ZM57.5999 59.2C60.2509 59.2 62.3999 57.051 62.3999 54.4C62.3999 51.749 60.2509 49.6 57.5999 49.6C54.9489 49.6 52.7999 51.749 52.7999 54.4C52.7999 57.051 54.9489 59.2 57.5999 59.2Z" fill="#2D9CDB"/>
</svg>
