<svg width="80" height="80" viewBox="0 0 80 80" fill="none" xmlns="http://www.w3.org/2000/svg">
<path d="M24.6235 5.78125H17.5454C17.2062 5.78581 16.8819 5.92139 16.6404 6.15963C16.3989 6.39786 16.2589 6.72027 16.2498 7.05938V71.7188H14.0059C13.6743 71.7188 13.3564 71.8504 13.122 72.0849C12.8876 72.3193 12.7559 72.6372 12.7559 72.9688C12.7559 73.3003 12.8876 73.6182 13.122 73.8526C13.3564 74.0871 13.6743 74.2188 14.0059 74.2188H28.1621C28.4936 74.2188 28.8116 74.0871 29.046 73.8526C29.2804 73.6182 29.4121 73.3003 29.4121 72.9688C29.4121 72.6372 29.2804 72.3193 29.046 72.0849C28.8116 71.8504 28.4936 71.7188 28.1621 71.7188H25.9373V38.595L29.4491 40.5239C32.0444 41.9333 34.9895 42.5685 37.9349 42.3541C40.8804 42.1397 43.7024 41.0846 46.0662 39.3142C48.0502 37.8305 50.4179 36.9465 52.8889 36.7668C55.3599 36.5872 57.8306 37.1195 60.0084 38.3006L65.3974 41.2347C65.5877 41.3382 65.8017 41.3905 66.0183 41.3864C66.2349 41.3822 66.4467 41.3218 66.6329 41.2111C66.8191 41.1003 66.9734 40.9431 67.0804 40.7547C67.1874 40.5663 67.2437 40.3534 67.2435 40.1367V14.0758C67.2435 13.851 67.1829 13.6304 67.0681 13.4372C66.9533 13.2439 66.7884 13.0853 66.591 12.9778L61.2004 10.0437C58.6009 8.6345 55.6522 7.99949 52.7031 8.21388C49.754 8.42826 46.9281 9.48306 44.5598 11.2534C42.581 12.7369 40.2179 13.6211 37.7514 13.8007C35.2848 13.9804 32.8185 13.448 30.6457 12.2669L25.9373 9.6875V7.05938C25.9239 6.71851 25.7802 6.39579 25.5357 6.15792C25.2912 5.92004 24.9646 5.7852 24.6235 5.78125ZM25.9373 12.5342L29.4496 14.4628C32.0463 15.8721 34.9926 16.5072 37.9392 16.2929C40.8859 16.0785 43.7093 15.0237 46.0746 13.2534C48.0578 11.7698 50.4247 10.8858 52.8949 10.7061C55.3652 10.5264 57.8351 11.0586 60.0121 12.2397L64.7465 14.8178L64.7438 38.0325L61.2004 36.1047C58.6008 34.6953 55.6518 34.0602 52.7026 34.2746C49.7533 34.4889 46.9272 35.5438 44.5587 37.3142C42.5798 38.7977 40.2167 39.6818 37.7501 39.8616C35.2834 40.0413 32.8171 39.509 30.6441 38.328L25.9373 35.7491V12.5342ZM18.7498 71.7188V8.28125H23.4373V71.7188H18.7498Z" fill="#EB5757"/>
</svg>
