<svg width="19" height="19" viewBox="0 0 19 19" fill="none" xmlns="http://www.w3.org/2000/svg">
<path d="M9.49663 1.78174C8.63044 1.78174 7.79343 2.04877 7.17633 2.63895C6.55698 3.23137 6.19794 4.12448 6.19794 5.21956C6.19794 6.46498 6.93846 7.82709 7.63411 8.98051C8.33199 10.1362 9.02988 11.0383 9.02988 11.0383C9.08542 11.1102 9.1568 11.1684 9.2385 11.2084C9.3202 11.2485 9.41005 11.2693 9.50112 11.2693C9.59218 11.2693 9.68203 11.2485 9.76374 11.2084C9.84544 11.1684 9.91681 11.1102 9.97236 11.0383C9.97236 11.0383 10.668 10.1362 11.3636 8.98051C12.0593 7.82709 12.7998 6.46722 12.7998 5.21956C12.7998 4.12448 12.4408 3.23137 11.8237 2.63895C11.2066 2.04877 10.3673 1.78174 9.49663 1.78174ZM9.49887 4.13121C9.60987 4.13121 9.71978 4.15253 9.8223 4.19394C9.92481 4.23536 10.0179 4.29606 10.0963 4.37256C10.1747 4.44906 10.2368 4.53987 10.2791 4.63977C10.3213 4.73968 10.3429 4.84672 10.3426 4.95476C10.3429 5.06281 10.3213 5.16985 10.2791 5.26975C10.2368 5.36966 10.1747 5.46046 10.0963 5.53697C10.0179 5.61347 9.92481 5.67417 9.8223 5.71558C9.71978 5.757 9.60987 5.77831 9.49887 5.77831C9.38788 5.77831 9.27797 5.757 9.17545 5.71558C9.07293 5.67417 8.97982 5.61347 8.90144 5.53697C8.82306 5.46046 8.76096 5.36966 8.71869 5.26975C8.67642 5.16985 8.65483 5.06281 8.65513 4.95476C8.65483 4.84672 8.67642 4.73968 8.71869 4.63977C8.76096 4.53987 8.82306 4.44906 8.90144 4.37256C8.97982 4.29606 9.07293 4.23536 9.17545 4.19394C9.27797 4.15253 9.38788 4.13121 9.49887 4.13121ZM4.70343 7.58474C4.56936 7.5814 4.43808 7.62331 4.33093 7.70367C2.7332 8.86158 1.78174 10.5468 1.78174 12.3353C1.78174 14.1956 2.81398 15.9369 4.52391 17.0993C4.58845 17.1458 4.6617 17.179 4.73933 17.1967C4.81696 17.2145 4.89738 17.2165 4.97582 17.2028C5.05426 17.189 5.12912 17.1596 5.19595 17.1165C5.26279 17.0733 5.32024 17.0172 5.3649 16.9515C5.40955 16.8858 5.4405 16.8118 5.45591 16.734C5.47132 16.6561 5.47088 16.576 5.4546 16.4983C5.43832 16.4206 5.40655 16.347 5.36116 16.2818C5.31577 16.2166 5.2577 16.1611 5.19038 16.1187C3.74973 15.1403 2.96882 13.7602 2.96882 12.3353C2.96882 10.9665 3.69139 9.638 5.0333 8.6641C5.13784 8.59298 5.21687 8.49048 5.25889 8.37152C5.3009 8.25255 5.30372 8.12333 5.26692 8.00267C5.23011 7.882 5.15562 7.77618 5.05427 7.70061C4.95293 7.62504 4.83002 7.5859 4.70343 7.58474ZM14.2741 7.64084C14.1506 7.64771 14.0324 7.69277 13.9358 7.76975C13.8392 7.84673 13.7691 7.95179 13.7353 8.07031C13.7015 8.18883 13.7056 8.31491 13.747 8.43099C13.7885 8.54708 13.8653 8.64739 13.9667 8.71796C15.3086 9.6941 16.0312 11.0203 16.0312 12.3892C16.0312 13.7894 15.2772 15.147 13.8792 16.1232C13.815 16.1677 13.7602 16.2243 13.718 16.2899C13.6758 16.3554 13.6469 16.4286 13.6331 16.5053C13.6193 16.582 13.6208 16.6606 13.6375 16.7367C13.6541 16.8128 13.6857 16.8849 13.7303 16.9488C13.775 17.0128 13.8318 17.0673 13.8977 17.1094C13.9635 17.1514 14.0369 17.1802 14.1139 17.1939C14.1909 17.2077 14.2698 17.2062 14.3462 17.1896C14.4226 17.173 14.4949 17.1416 14.5591 17.0971C16.2197 15.9347 17.2183 14.218 17.2183 12.3892C17.2183 10.6029 16.2601 8.92217 14.6623 7.76201C14.5513 7.67741 14.4138 7.63451 14.2741 7.64084ZM6.39093 9.27896C6.2781 9.2789 6.16758 9.3108 6.07228 9.37097C4.90764 10.0689 4.1559 11.146 4.1559 12.3375C4.1559 13.6032 5.00189 14.7319 6.2877 15.4253C6.35675 15.4661 6.43337 15.4925 6.51295 15.503C6.59252 15.5135 6.67342 15.5079 6.75074 15.4864C6.82807 15.4649 6.90023 15.4281 6.96288 15.3781C7.02552 15.3281 7.07736 15.266 7.11526 15.1955C7.15316 15.125 7.17634 15.0476 7.18341 14.9679C7.19047 14.8882 7.18128 14.808 7.15637 14.7319C7.13146 14.6559 7.09136 14.5857 7.03849 14.5255C6.98561 14.4654 6.92105 14.4165 6.8487 14.3818C5.84114 13.8365 5.34522 13.0736 5.34522 12.3375C5.34522 11.6419 5.77831 10.9283 6.6804 10.3875C6.79473 10.3233 6.88454 10.2233 6.93584 10.1029C6.98714 9.9826 6.99703 9.84875 6.96399 9.72222C6.93095 9.5957 6.85683 9.48362 6.75318 9.40344C6.64952 9.32326 6.52216 9.2795 6.39093 9.27896ZM12.5866 9.33731C12.4583 9.34316 12.3354 9.39024 12.2361 9.4715C12.1369 9.55276 12.0668 9.66385 12.0362 9.78813C12.0057 9.91241 12.0163 10.0432 12.0666 10.161C12.1169 10.2787 12.204 10.3771 12.3151 10.4414C13.2172 10.9822 13.6548 11.698 13.6548 12.3892C13.6548 13.1072 13.1835 13.8522 12.2231 14.3953C12.1552 14.4338 12.0956 14.4852 12.0476 14.5466C11.9997 14.608 11.9644 14.6782 11.9437 14.7532C11.923 14.8282 11.9173 14.9066 11.927 14.9838C11.9367 15.061 11.9615 15.1355 12.0001 15.2032C12.0387 15.2708 12.0903 15.3302 12.152 15.3779C12.2136 15.4257 12.2841 15.4609 12.3594 15.4815C12.4347 15.5022 12.5133 15.5078 12.5908 15.4982C12.6683 15.4885 12.7431 15.4638 12.811 15.4253C14.0407 14.7297 14.8419 13.6234 14.8419 12.3892C14.8419 11.1998 14.0924 10.1227 12.9277 9.42482C12.8258 9.36122 12.7068 9.33217 12.5866 9.33731ZM7.66552 10.5715C7.59154 10.573 7.51848 10.5882 7.4501 10.6164C7.05871 10.7586 6.7022 10.9828 6.40439 11.2739C6.1171 11.5545 5.95048 11.9361 5.93988 12.3375C5.93988 12.7886 6.17326 13.1903 6.49191 13.482C6.81056 13.776 7.22121 13.9891 7.70367 14.1462C7.77792 14.1704 7.85622 14.1798 7.93412 14.1739C8.01202 14.168 8.08799 14.1468 8.15768 14.1117C8.22737 14.0765 8.28942 14.028 8.3403 13.9689C8.39117 13.9098 8.42987 13.8414 8.45418 13.7674C8.47849 13.6934 8.48794 13.6154 8.48199 13.5378C8.47604 13.4602 8.4548 13.3845 8.41949 13.3151C8.38418 13.2457 8.33549 13.1839 8.2762 13.1332C8.21691 13.0825 8.14818 13.0439 8.07393 13.0197C7.78831 12.9365 7.52261 12.796 7.29302 12.6068C7.14491 12.4722 7.12696 12.3869 7.12696 12.3375C7.12696 12.2927 7.13818 12.2186 7.25487 12.0997C7.43714 11.9335 7.65075 11.8053 7.88319 11.7227C8.01745 11.6759 8.13041 11.5826 8.20157 11.4599C8.27273 11.3372 8.29739 11.1932 8.27105 11.0539C8.24472 10.9146 8.16915 10.7894 8.05805 10.7009C7.94695 10.6124 7.80768 10.5665 7.66552 10.5715ZM11.3165 10.6231C11.1746 10.6205 11.0365 10.6684 10.927 10.7584C10.8175 10.8484 10.7439 10.9744 10.7195 11.1136C10.6951 11.2529 10.7215 11.3963 10.794 11.5179C10.8664 11.6394 10.9801 11.7312 11.1146 11.7765C11.3464 11.858 11.5593 11.9855 11.7406 12.1513C11.8573 12.2702 11.873 12.3443 11.873 12.3892C11.873 12.4385 11.8573 12.5193 11.7227 12.6472C11.5137 12.8254 11.271 12.9597 11.0091 13.0422C10.8603 13.0945 10.7384 13.2039 10.6702 13.3461C10.6021 13.4883 10.5932 13.6518 10.6456 13.8006C10.6979 13.9494 10.8073 14.0713 10.9495 14.1395C11.0918 14.2077 11.2552 14.2165 11.404 14.1642C11.8573 14.0026 12.2478 13.7894 12.5485 13.5022C12.7042 13.3606 12.8297 13.189 12.9176 12.9978C13.0055 12.8065 13.054 12.5995 13.0601 12.3892C13.049 11.9878 12.8825 11.6064 12.5956 11.3255C12.2967 11.0364 11.9394 10.8145 11.5477 10.6747C11.4749 10.6423 11.3963 10.6247 11.3165 10.6231Z" fill="#E8653C"/>
</svg>
