<svg width="80" height="81" viewBox="0 0 80 81" fill="none" xmlns="http://www.w3.org/2000/svg">
<path d="M29.9999 40.1679C29.9999 42.0147 28.5075 43.5117 26.6666 43.5117C24.8257 43.5117 23.3333 42.0147 23.3333 40.1679C23.3333 38.321 24.8257 36.824 26.6666 36.824C28.5075 36.824 29.9999 38.321 29.9999 40.1679ZM43.3333 40.1679C43.3333 42.0147 41.8409 43.5117 39.9999 43.5117C38.1589 43.5117 36.6666 42.0147 36.6666 40.1679C36.6666 38.321 38.1589 36.824 39.9999 36.824C41.8409 36.824 43.3333 38.321 43.3333 40.1679ZM56.6666 40.1679C56.6666 42.0147 55.1743 43.5117 53.3333 43.5117C51.4923 43.5117 49.9999 42.0147 49.9999 40.1679C49.9999 38.321 51.4923 36.824 53.3333 36.824C55.1743 36.824 56.6666 38.321 56.6666 40.1679Z" fill="#2F80ED"/>
<path d="M10 40.1678C10 54.9421 23.4315 66.9189 40 66.9189C42.2913 66.9189 44.5227 66.6898 46.6667 66.2561L70 70.2627L64.3987 55.7366C67.9243 51.3511 70 45.9755 70 40.1678C70 25.3936 56.5687 13.4167 40 13.4167C23.4315 13.4167 10 25.3936 10 40.1678Z" stroke="#2F80ED" stroke-width="3" stroke-linecap="round" stroke-linejoin="round"/>
</svg>
