<svg width="68" height="80" viewBox="0 0 68 80" fill="none" xmlns="http://www.w3.org/2000/svg">
<g clip-path="url(#clip0_1867_12797)">
<path fill-rule="evenodd" clip-rule="evenodd" d="M46.6872 12.7797C46.8182 12.7381 46.9906 12.8213 47.163 13.0502C47.163 13.0502 47.163 13.0502 54.9559 20.7194C55.4111 21.177 55.4111 21.8705 54.9559 22.2102C54.9559 22.2102 54.9559 22.2102 47.163 29.9974C46.9906 30.2262 46.8182 30.2817 46.6872 30.2123C46.5561 30.143 46.4734 29.9419 46.4734 29.6507V13.279C46.4734 12.9947 46.5561 12.8213 46.6872 12.7797Z" fill="#EB5757"/>
<path fill-rule="evenodd" clip-rule="evenodd" d="M33.3566 0H33.9083L34.4394 0.221896C34.4394 0.221896 34.4394 0.221895 42.4598 8.23784C42.8046 8.6955 42.6874 9.04221 42.115 9.04221C42.115 9.04221 42.115 9.04221 38.791 9.04221C38.2186 9.04221 37.7634 9.49987 37.7634 10.0754C37.7634 10.0754 37.7634 10.0754 37.7634 16.025C37.7634 16.6005 37.3014 17.0582 36.6117 17.0582C36.6117 17.0582 36.6117 17.0582 30.7705 17.0582C30.1981 17.0582 29.7361 16.6005 29.7361 16.025C29.7361 16.025 29.7361 16.025 29.7361 10.0754C29.7361 9.49987 29.2809 9.04221 28.7016 9.04221H25.15C24.5776 9.04221 24.4604 8.6955 24.8052 8.23784C24.8052 8.23784 24.8052 8.23784 32.8325 0.221896L33.3566 0Z" fill="#EB5757"/>
<path fill-rule="evenodd" clip-rule="evenodd" d="M20.7914 12.6064C20.9362 12.6758 21.0259 12.8769 21.0259 13.1681V29.8795C21.0259 30.1708 20.9362 30.3441 20.7914 30.3996C20.6535 30.4551 20.4535 30.3996 20.219 30.2263C20.219 30.2263 20.219 30.2263 12.3089 22.2103C11.8537 21.8705 11.8537 21.1771 12.3089 20.7194C12.3089 20.7194 12.3089 20.7194 20.219 12.8214C20.4535 12.5925 20.6535 12.5371 20.7914 12.6064Z" fill="#EB5757"/>
<path fill-rule="evenodd" clip-rule="evenodd" d="M30.7707 25.7606C30.7707 25.7606 30.7707 25.7606 36.6119 25.7606C37.3015 25.7606 37.7636 26.2183 37.7636 26.7938C37.7636 26.7938 37.7636 26.7938 37.7636 33.0901C37.7636 33.7766 38.2188 34.2342 38.7912 34.2342H41.8876C42.46 34.2342 42.6876 34.574 42.2324 34.9207C42.2324 34.9207 42.2324 34.9207 34.4396 42.8188C34.2051 43.0476 33.9223 43.1655 33.6327 43.1655C33.3499 43.1655 33.0603 43.0476 32.8327 42.8188C32.8327 42.8188 32.8327 42.8188 25.0398 34.9207C24.5778 34.574 24.8054 34.2342 25.3778 34.2342C25.3778 34.2342 25.3778 34.2342 28.7018 34.2342C29.2811 34.2342 29.7363 33.7766 29.7363 33.0901C29.7363 33.0901 29.7363 33.0901 29.7363 26.7938C29.7363 26.2183 30.1983 25.7606 30.7707 25.7606Z" fill="#EB5757"/>
<path fill-rule="evenodd" clip-rule="evenodd" d="M10.2578 50.3008C10.2578 50.3008 10.2578 50.3008 12.775 50.3008C13.6922 50.3008 14.1542 50.7584 14.1542 51.7916C14.1542 51.7916 14.1542 51.7916 14.1542 55.4529C14.1542 55.4529 14.1542 55.4529 19.0851 55.4529C19.0851 55.4529 19.0851 55.4529 19.0851 51.7916C19.0851 50.7584 19.5403 50.3008 20.5747 50.3008C20.5747 50.3008 20.5747 50.3008 22.9816 50.3008C22.9816 50.3008 22.9816 50.3008 22.9816 52.707C22.9816 52.707 22.9816 52.707 21.954 52.707L21.8368 52.8248C21.8368 52.8248 21.8368 52.8248 21.8368 63.1291C21.8368 63.1291 21.8368 63.1291 19.0851 63.1291C19.0851 63.1291 19.0851 63.1291 19.0851 57.977C19.0851 57.977 19.0851 57.977 14.1542 57.977C14.1542 57.977 14.1542 57.977 14.1542 63.1291C14.1542 63.1291 14.1542 63.1291 11.4026 63.1291C11.4026 63.1291 11.4026 63.1291 11.4026 52.8248C11.4026 52.8248 11.4026 52.707 11.2854 52.707C11.2854 52.707 11.2854 52.707 10.2578 52.707C10.2578 52.707 10.2578 52.707 10.2578 50.3008Z" fill="#EB5757"/>
<path fill-rule="evenodd" clip-rule="evenodd" d="M30.202 50.0719L30.2641 50.0788V52.7208L30.202 52.7069C28.14 52.7069 26.5332 54.4266 26.5332 56.6039C26.5332 58.8922 28.14 60.7228 30.202 60.7228L30.2641 60.709V63.3509L30.202 63.3578C26.5332 63.3578 23.554 60.3831 23.554 56.6039C23.554 52.9357 26.5332 50.0719 30.202 50.0719Z" fill="#EB5757"/>
<path fill-rule="evenodd" clip-rule="evenodd" d="M30.2639 50.079L31.5397 50.2038C34.5672 50.8001 36.8499 53.3935 36.8499 56.6041C36.8499 59.9048 34.5672 62.6022 31.5397 63.2193L30.2639 63.3511V60.7091L31.6639 60.404C33.0156 59.7799 33.9879 58.3168 33.9879 56.6041C33.9879 54.9676 33.0156 53.5946 31.6639 53.0122L30.2639 52.7209V50.079Z" fill="#EB5757"/>
<path fill-rule="evenodd" clip-rule="evenodd" d="M37.4226 50.3008C37.4226 50.3008 37.4226 50.3008 41.2639 50.3008H43.0983V52.707H42.9259C42.6983 52.707 42.2363 52.707 41.319 52.707C41.319 52.707 41.319 52.707 41.319 55.342C41.319 55.342 41.319 55.342 42.0983 55.342H43.0983V57.6302H42.5121C42.2225 57.6302 41.8363 57.6302 41.319 57.6302C41.319 57.6302 41.319 57.6302 41.319 60.4941C41.319 60.612 41.319 60.612 41.4363 60.612C41.4363 60.612 41.4363 60.612 42.2569 60.612H43.0983V63.1291H42.8569C42.4432 63.1291 41.6087 63.1291 39.9467 63.1291C39.0295 63.1291 38.5743 62.6714 38.5743 61.6382V52.707C38.5743 52.707 38.5743 52.707 37.4226 52.707C37.4226 52.707 37.4226 52.707 37.4226 50.3008Z" fill="#EB5757"/>
<path fill-rule="evenodd" clip-rule="evenodd" d="M43.0981 50.3008H43.1533C45.6774 50.3008 47.167 51.6738 47.167 53.7402C47.167 54.9952 46.5946 55.7996 46.0222 56.3752C47.0566 56.8328 47.7394 57.977 47.7394 59.232C47.7394 61.6382 45.905 63.1291 43.2706 63.1291C43.2706 63.1291 43.2706 63.1291 43.2223 63.1291H43.0981V60.612H43.3809C44.2981 60.612 44.8774 60.0364 44.8774 59.1211C44.8774 58.2058 44.2981 57.6302 43.3809 57.6302C43.3809 57.6302 43.3809 57.6302 43.1257 57.6302H43.0981V55.342H43.1533C43.9602 55.342 44.4153 54.7664 44.4153 53.969C44.4153 53.1646 43.9602 52.707 43.1533 52.707C43.1533 52.707 43.1533 52.707 43.1257 52.707H43.0981V50.3008Z" fill="#EB5757"/>
<path fill-rule="evenodd" clip-rule="evenodd" d="M53.015 50.3008C53.015 50.3008 53.015 50.3008 54.1736 50.3008H54.3874V53.969C54.2771 54.1978 54.1598 54.5376 54.1598 54.8843C54.1598 54.8843 54.1598 54.8843 53.2426 57.5193C53.2426 57.5193 53.2426 57.5193 54.215 57.5193H54.3874V59.9185H53.7667C53.415 59.9185 53.015 59.9185 52.5599 59.9185C52.5599 59.9185 52.5599 59.9185 51.753 61.9849C51.5254 62.7824 51.0703 63.1291 50.153 63.1291C50.153 63.1291 50.153 63.1291 48.429 63.1291C48.429 63.1291 48.429 63.1291 48.429 60.612C48.429 60.612 48.429 60.612 49.0014 60.612C49.2358 60.612 49.2358 60.612 49.3462 60.4941C49.3462 60.4941 49.3462 60.4941 53.015 50.3008Z" fill="#EB5757"/>
<path fill-rule="evenodd" clip-rule="evenodd" d="M54.3877 50.3008H55.767C55.767 50.3008 55.767 50.3008 59.4358 60.4941C59.5462 60.612 59.5462 60.612 59.7737 60.612C59.7737 60.612 59.7737 60.612 60.2358 60.612C60.2358 60.612 60.2358 60.612 60.2358 63.1291C60.2358 63.1291 60.2358 63.1291 58.6289 63.1291C57.7117 63.1291 57.2566 62.7824 57.0221 61.867C57.0221 61.867 57.0221 61.867 56.2221 59.9185C56.2221 59.9185 56.2221 59.9185 54.6773 59.9185H54.3877V57.5193H55.5325C55.5325 57.5193 55.5325 57.5193 54.6222 54.8843C54.6222 54.5376 54.5049 54.1978 54.3877 53.969V50.3008Z" fill="#EB5757"/>
<path fill-rule="evenodd" clip-rule="evenodd" d="M0 66.7905C0 66.7905 -1.0523e-06 66.7905 9.97212 66.7905C10.8893 66.7905 11.4617 67.2482 11.4617 68.2814C11.4617 68.2814 11.4617 68.2814 11.4617 76.9838C11.4617 77.0948 11.4617 77.0948 11.579 77.0948C11.579 77.0948 11.579 77.0948 12.4962 77.0948C12.4962 77.0948 12.4962 77.0948 12.4962 79.6188C12.4962 79.6188 12.4962 79.6188 10.0894 79.6188C9.0549 79.6188 8.59974 79.1612 8.59974 78.128C8.59974 78.128 8.59974 78.128 8.59974 69.3146C8.59974 69.3146 8.59974 69.1967 8.48251 69.1967C8.48251 69.1967 8.48251 69.1967 3.89644 69.1967C3.89644 69.1967 3.89644 69.1967 3.89644 79.6188C3.89644 79.6188 3.89644 79.6188 1.14479 79.6188C1.14479 79.6188 1.14479 79.6188 1.14479 69.1967C1.14479 69.1967 1.14479 69.1967 0 69.1967C0 69.1967 0 69.1967 0 66.7905Z" fill="#EB5757"/>
<path fill-rule="evenodd" clip-rule="evenodd" d="M19.7162 66.5615L19.7714 66.5685V69.2104L19.7162 69.1965C17.6473 69.1965 16.0473 70.9162 16.0473 73.0936C16.0473 75.3818 17.6473 77.2125 19.7162 77.2125L19.7714 77.1986V79.8405L19.7162 79.8475C16.0473 79.8475 13.1785 76.8658 13.1785 73.0936C13.1785 69.4254 16.0473 66.5615 19.7162 66.5615Z" fill="#EB5757"/>
<path fill-rule="evenodd" clip-rule="evenodd" d="M19.7717 66.5686L21.0889 66.6934C24.1716 67.2898 26.3646 69.8832 26.3646 73.0937C26.3646 76.3944 24.1716 79.0918 21.0889 79.7089L19.7717 79.8407V77.1988L21.2269 76.8936C22.5992 76.2696 23.5027 74.8064 23.5027 73.0937C23.5027 71.4572 22.5992 70.0843 21.2269 69.5018L19.7717 69.2105V66.5686Z" fill="#EB5757"/>
<path fill-rule="evenodd" clip-rule="evenodd" d="M26.937 66.7905C26.937 66.7905 26.937 66.7905 29.4611 66.7905C30.3783 66.7905 30.8334 67.2482 30.8334 68.2814C30.8334 68.2814 30.8334 68.2814 30.8334 76.9838C30.8334 77.0948 30.8334 77.0948 30.9507 77.0948C30.9507 77.0948 30.9507 77.0948 34.2747 77.0948C34.2747 77.0948 34.2747 77.0948 34.2747 66.7905C34.2747 66.7905 34.2747 66.7905 37.0264 66.7905C37.0264 66.7905 37.0264 66.7905 37.0264 77.0948C37.0264 77.0948 37.0264 77.0948 40.3504 77.0948C40.4676 77.0948 40.4676 77.0948 40.4676 76.9838C40.4676 76.9838 40.4676 76.9838 40.4676 68.2814C40.4676 67.2482 40.9228 66.7905 41.84 66.7905C41.84 66.7905 41.84 66.7905 44.3641 66.7905C44.3641 66.7905 44.3641 66.7905 44.3641 69.1967C44.3641 69.1967 44.3641 69.1967 43.3296 69.1967C43.2124 69.1967 43.2124 69.3146 43.2124 69.3146C43.2124 69.3146 43.2124 69.3146 43.2124 78.128C43.2124 79.1612 42.7572 79.6188 41.84 79.6188C41.84 79.6188 41.84 79.6188 29.5714 79.6188C28.5439 79.6188 28.0818 79.1612 28.0818 78.128C28.0818 78.128 28.0818 78.128 28.0818 69.3146C28.0818 69.3146 28.0818 69.1967 27.9715 69.1967C27.9715 69.1967 27.9715 69.1967 26.937 69.1967C26.937 69.1967 26.937 69.1967 26.937 66.7905Z" fill="#EB5757"/>
<path fill-rule="evenodd" clip-rule="evenodd" d="M46.5367 66.7905C46.5367 66.7905 46.5367 66.7905 55.1364 66.7905C56.1709 66.7905 56.5157 67.2482 56.5157 68.1635C56.5157 68.1635 56.5157 68.1635 56.5157 70.3408H53.9916C53.9916 70.3408 53.9916 70.3408 53.9916 69.3146C53.9916 69.1967 53.9916 69.1967 53.8744 69.1967C53.8744 69.1967 53.8744 69.1967 52.2744 69.1967C52.2744 69.1967 52.2744 69.1967 52.2744 79.6188C52.2744 79.6188 52.2744 79.6188 49.5159 79.6188C49.5159 79.6188 49.5159 79.6188 49.5159 69.1967C49.5159 69.1967 49.5159 69.1967 47.916 69.1967C47.7987 69.1967 47.7987 69.1967 47.7987 69.3146C47.7987 69.3146 47.7987 69.3146 47.7987 70.3408C47.7987 70.3408 47.7987 70.3408 45.2747 70.3408C45.2747 70.3408 45.2747 70.3408 45.2747 68.1635C45.2747 67.2482 45.6195 66.7905 46.5367 66.7905Z" fill="#EB5757"/>
<path fill-rule="evenodd" clip-rule="evenodd" d="M60.0668 66.7905C60.0668 66.7905 60.0668 66.7905 61.2254 66.7905H61.4392V70.4587C61.3219 70.6876 61.2116 71.0273 61.2116 71.374C61.2116 71.374 61.2116 71.374 60.2944 74.009C60.2944 74.009 60.2944 74.009 61.2599 74.009H61.4392V76.4083H60.8185C60.4668 76.4083 60.0668 76.4083 59.6047 76.4083C59.6047 76.4083 59.6047 76.4083 58.8048 78.3568C58.5772 79.2721 58.1151 79.6188 57.1979 79.6188C57.1979 79.6188 57.1979 79.6188 55.4807 79.6188C55.4807 79.6188 55.4807 79.6188 55.4807 77.0948C55.4807 77.0948 55.4807 77.0948 56.0531 77.0948C56.2876 77.0948 56.2876 77.0948 56.3979 76.9838C56.3979 76.9838 56.3979 76.9838 60.0668 66.7905Z" fill="#EB5757"/>
<path fill-rule="evenodd" clip-rule="evenodd" d="M61.4395 66.7905H62.8118C62.8118 66.7905 62.8118 66.7905 66.4876 76.9838C66.5979 77.0948 66.5979 77.0948 66.8324 77.0948H67.2876C67.2876 77.0948 67.2876 77.0948 67.2876 79.6188C67.2876 79.6188 67.2876 79.6188 65.6807 79.6188C64.7635 79.6188 64.3083 79.2721 64.0739 78.3568C64.0739 78.3568 64.0739 78.3568 63.2739 76.4083C63.2739 76.4083 63.2739 76.4083 61.7291 76.4083H61.4395V74.009H62.5842C62.5842 74.009 62.5842 74.009 61.667 71.374C61.667 71.0273 61.5567 70.6876 61.4395 70.4587V66.7905Z" fill="#EB5757"/>
</g>
<defs>
<clipPath id="clip0_1867_12797">
<rect width="67.2464" height="80" fill="white"/>
</clipPath>
</defs>
</svg>
