<svg width="19" height="19" viewBox="0 0 19 19" fill="none" xmlns="http://www.w3.org/2000/svg">
<path fill-rule="evenodd" clip-rule="evenodd" d="M15.2246 5.62514C15.2821 5.60683 15.3577 5.64346 15.4333 5.74418C15.4333 5.74418 15.4333 5.74418 18.8504 9.11991C19.05 9.32135 19.05 9.62657 18.8504 9.77613C18.8504 9.77613 18.8504 9.77613 15.4333 13.2038C15.3577 13.3045 15.2821 13.3289 15.2246 13.2984C15.1671 13.2678 15.1309 13.1793 15.1309 13.0511V5.8449C15.1309 5.71976 15.1671 5.64346 15.2246 5.62514Z" fill="#E8653C"/>
<path fill-rule="evenodd" clip-rule="evenodd" d="M9.37902 0H9.62094L9.8538 0.0976707C9.8538 0.0976707 9.8538 0.0976705 13.3707 3.62601C13.5219 3.82746 13.4705 3.98007 13.2195 3.98007C13.2195 3.98007 13.2195 3.98007 11.762 3.98007C11.511 3.98007 11.3114 4.18151 11.3114 4.43484C11.3114 4.43484 11.3114 4.43484 11.3114 7.05363C11.3114 7.30696 11.1088 7.50841 10.8064 7.50841C10.8064 7.50841 10.8064 7.50841 8.24501 7.50841C7.99401 7.50841 7.7914 7.30696 7.7914 7.05363C7.7914 7.05363 7.7914 7.05363 7.7914 4.43484C7.7914 4.18151 7.59182 3.98007 7.3378 3.98007H5.78042C5.52943 3.98007 5.47802 3.82746 5.62922 3.62601C5.62922 3.62601 5.62922 3.62601 9.1492 0.0976707L9.37902 0Z" fill="#E8653C"/>
<path fill-rule="evenodd" clip-rule="evenodd" d="M3.86925 5.54891C3.93276 5.57944 3.97207 5.66795 3.97207 5.79614V13.1519C3.97207 13.2801 3.93276 13.3564 3.86925 13.3809C3.80877 13.4053 3.72107 13.3809 3.61826 13.3046C3.61826 13.3046 3.61826 13.3046 0.14969 9.77621C-0.0498966 9.62665 -0.0498966 9.32143 0.14969 9.11999C0.14969 9.11999 0.14969 9.11999 3.61826 5.64353C3.72107 5.54281 3.80877 5.51839 3.86925 5.54891Z" fill="#E8653C"/>
<path fill-rule="evenodd" clip-rule="evenodd" d="M8.24536 11.3389C8.24536 11.3389 8.24536 11.3389 10.8067 11.3389C11.1091 11.3389 11.3117 11.5403 11.3117 11.7936C11.3117 11.7936 11.3117 11.7936 11.3117 14.565C11.3117 14.8672 11.5113 15.0687 11.7623 15.0687H13.1201C13.3711 15.0687 13.4709 15.2182 13.2713 15.3708C13.2713 15.3708 13.2713 15.3708 9.85414 18.8473C9.75132 18.948 9.62734 18.9999 9.50033 18.9999C9.37634 18.9999 9.24934 18.948 9.14954 18.8473C9.14954 18.8473 9.14954 18.8473 5.73238 15.3708C5.52977 15.2182 5.62957 15.0687 5.88056 15.0687C5.88056 15.0687 5.88056 15.0687 7.33814 15.0687C7.59216 15.0687 7.79175 14.8672 7.79175 14.565C7.79175 14.565 7.79175 14.565 7.79175 11.7936C7.79175 11.5403 7.99436 11.3389 8.24536 11.3389Z" fill="#E8653C"/>
</svg>
