<svg width="19" height="19" viewBox="0 0 19 19" fill="none" xmlns="http://www.w3.org/2000/svg">
<path d="M13.7022 11.6248L12.3323 12.3966C12.1678 12.4892 11.9777 12.5254 11.7907 12.4997C11.6038 12.4741 11.4304 12.3879 11.2971 12.2545L6.72463 7.68202C6.59128 7.54859 6.50521 7.37522 6.47954 7.18833C6.45387 7.00144 6.49001 6.81128 6.58246 6.64684L7.35425 5.27688C7.49318 5.03031 7.54757 4.74505 7.50912 4.46466C7.47067 4.18428 7.34149 3.92418 7.14132 3.72412L5.08801 1.67081C4.96766 1.5504 4.82477 1.45489 4.6675 1.38972C4.51023 1.32456 4.34166 1.29102 4.17142 1.29102C4.00119 1.29102 3.83262 1.32456 3.67535 1.38972C3.51808 1.45489 3.37519 1.5504 3.25484 1.67081L2.32253 2.60246C1.77734 3.14764 1.43007 3.85944 1.33593 4.62467C1.24179 5.3899 1.40618 6.16465 1.80298 6.82571L2.27077 7.60536C4.65968 11.5868 8.03156 14.8876 12.063 17.1912L12.1554 17.2443C13.5325 18.0311 15.234 17.8018 16.3367 16.6998L17.3103 15.7262C17.4307 15.6059 17.5262 15.463 17.5913 15.3057C17.6565 15.1484 17.69 14.9799 17.69 14.8096C17.69 14.6394 17.6565 14.4708 17.5913 14.3136C17.5262 14.1563 17.4307 14.0134 17.3103 13.8931L15.2556 11.8384C15.0556 11.638 14.7954 11.5086 14.5149 11.47C14.2344 11.4315 13.9489 11.4858 13.7022 11.6248Z" fill="#E8653C"/>
</svg>
