<svg width="80" height="80" viewBox="0 0 80 80" fill="none" xmlns="http://www.w3.org/2000/svg">
<path d="M13.75 62.5H10C8.67392 62.5 7.40215 61.9732 6.46447 61.0355C5.52678 60.0979 5 58.8261 5 57.5V47.5C5 46.1739 5.52678 44.9021 6.46447 43.9645C7.40215 43.0268 8.67392 42.5 10 42.5H13.75C14.0815 42.5 14.3995 42.6317 14.6339 42.8661C14.8683 43.1005 15 43.4185 15 43.75V61.25C15 61.5815 14.8683 61.8995 14.6339 62.1339C14.3995 62.3683 14.0815 62.5 13.75 62.5ZM10 45C9.33696 45 8.70107 45.2634 8.23223 45.7322C7.76339 46.2011 7.5 46.837 7.5 47.5V57.5C7.5 58.163 7.76339 58.7989 8.23223 59.2678C8.70107 59.7366 9.33696 60 10 60H12.5V45H10Z" fill="#219653"/>
<path d="M17.5 66.25C16.1739 66.25 14.9021 65.7232 13.9645 64.7855C13.0268 63.8479 12.5 62.5761 12.5 61.25V43.75C12.5 42.4239 13.0268 41.1521 13.9645 40.2145C14.9021 39.2768 16.1739 38.75 17.5 38.75C18.8261 38.75 20.0979 39.2768 21.0355 40.2145C21.9732 41.1521 22.5 42.4239 22.5 43.75V61.25C22.5 62.5761 21.9732 63.8479 21.0355 64.7855C20.0979 65.7232 18.8261 66.25 17.5 66.25ZM17.5 41.25C16.837 41.25 16.2011 41.5134 15.7322 41.9822C15.2634 42.4511 15 43.087 15 43.75V61.25C15 61.913 15.2634 62.5489 15.7322 63.0178C16.2011 63.4866 16.837 63.75 17.5 63.75C18.163 63.75 18.7989 63.4866 19.2678 63.0178C19.7366 62.5489 20 61.913 20 61.25V43.75C20 43.087 19.7366 42.4511 19.2678 41.9822C18.7989 41.5134 18.163 41.25 17.5 41.25ZM70 62.5H66.25C65.9185 62.5 65.6005 62.3683 65.3661 62.1339C65.1317 61.8995 65 61.5815 65 61.25V43.75C65 43.4185 65.1317 43.1005 65.3661 42.8661C65.6005 42.6317 65.9185 42.5 66.25 42.5H70C71.3261 42.5 72.5979 43.0268 73.5355 43.9645C74.4732 44.9021 75 46.1739 75 47.5V57.5C75 58.8261 74.4732 60.0979 73.5355 61.0355C72.5979 61.9732 71.3261 62.5 70 62.5ZM67.5 60H70C70.663 60 71.2989 59.7366 71.7678 59.2678C72.2366 58.7989 72.5 58.163 72.5 57.5V47.5C72.5 46.837 72.2366 46.2011 71.7678 45.7322C71.2989 45.2634 70.663 45 70 45H67.5V60Z" fill="#219653"/>
<path d="M62.5 66.25C61.1739 66.25 59.9021 65.7232 58.9645 64.7855C58.0268 63.8479 57.5 62.5761 57.5 61.25V43.75C57.5 42.4239 58.0268 41.1521 58.9645 40.2145C59.9021 39.2768 61.1739 38.75 62.5 38.75C63.8261 38.75 65.0979 39.2768 66.0355 40.2145C66.9732 41.1521 67.5 42.4239 67.5 43.75V61.25C67.5 62.5761 66.9732 63.8479 66.0355 64.7855C65.0979 65.7232 63.8261 66.25 62.5 66.25ZM62.5 41.25C61.837 41.25 61.2011 41.5134 60.7322 41.9822C60.2634 42.4511 60 43.087 60 43.75V61.25C60 61.913 60.2634 62.5489 60.7322 63.0178C61.2011 63.4866 61.837 63.75 62.5 63.75C63.163 63.75 63.7989 63.4866 64.2678 63.0178C64.7366 62.5489 65 61.913 65 61.25V43.75C65 43.087 64.7366 42.4511 64.2678 41.9822C63.7989 41.5134 63.163 41.25 62.5 41.25ZM42.5 75H37.5C36.5054 75 35.5516 74.6049 34.8483 73.9016C34.1451 73.1984 33.75 72.2446 33.75 71.25C33.75 70.2554 34.1451 69.3016 34.8483 68.5984C35.5516 67.8951 36.5054 67.5 37.5 67.5H42.5C43.4946 67.5 44.4484 67.8951 45.1516 68.5984C45.8549 69.3016 46.25 70.2554 46.25 71.25C46.25 72.2446 45.8549 73.1984 45.1516 73.9016C44.4484 74.6049 43.4946 75 42.5 75ZM37.5 70C37.1685 70 36.8505 70.1317 36.6161 70.3661C36.3817 70.6005 36.25 70.9185 36.25 71.25C36.25 71.5815 36.3817 71.8995 36.6161 72.1339C36.8505 72.3683 37.1685 72.5 37.5 72.5H42.5C42.8315 72.5 43.1495 72.3683 43.3839 72.1339C43.6183 71.8995 43.75 71.5815 43.75 71.25C43.75 70.9185 43.6183 70.6005 43.3839 70.3661C43.1495 70.1317 42.8315 70 42.5 70H37.5Z" fill="#219653"/>
<path d="M62.5 72.5H45C44.6685 72.5 44.3505 72.3683 44.1161 72.1339C43.8817 71.8995 43.75 71.5815 43.75 71.25C43.75 70.9185 43.8817 70.6006 44.1161 70.3661C44.3505 70.1317 44.6685 70 45 70H62.5C64.1576 70 65.7473 69.3415 66.9194 68.1694C68.0915 66.9973 68.75 65.4076 68.75 63.75V61.25C68.75 60.9185 68.8817 60.6006 69.1161 60.3661C69.3505 60.1317 69.6685 60 70 60C70.3315 60 70.6495 60.1317 70.8839 60.3661C71.1183 60.6006 71.25 60.9185 71.25 61.25V63.75C71.25 66.0707 70.3281 68.2963 68.6872 69.9372C67.0462 71.5782 64.8206 72.5 62.5 72.5ZM68.75 45C68.4185 45 68.1005 44.8683 67.8661 44.6339C67.6317 44.3995 67.5 44.0815 67.5 43.75V35C67.5014 33.8002 67.4221 32.6017 67.2625 31.4125C67.2412 31.2484 67.2524 31.0816 67.2955 30.9218C67.3386 30.762 67.4127 30.6122 67.5137 30.481C67.6147 30.3499 67.7405 30.2399 67.884 30.1574C68.0275 30.0748 68.1858 30.0214 68.35 30C68.5142 29.9787 68.6809 29.9899 68.8407 30.033C69.0005 30.0761 69.1503 30.1502 69.2815 30.2512C69.4126 30.3522 69.5226 30.478 69.6052 30.6215C69.6877 30.765 69.7412 30.9234 69.7625 31.0875C69.9287 32.3849 70.008 33.692 70 35V43.75C70 44.0815 69.8683 44.3995 69.6339 44.6339C69.3995 44.8683 69.0815 45 68.75 45ZM11.25 45C10.9185 45 10.6005 44.8683 10.3661 44.6339C10.1317 44.3995 10 44.0815 10 43.75V35C10.0003 33.6915 10.088 32.3844 10.2625 31.0875C10.2838 30.9234 10.3373 30.765 10.4198 30.6215C10.5024 30.478 10.6124 30.3522 10.7435 30.2512C10.8747 30.1502 11.0245 30.0761 11.1843 30.033C11.3441 29.9899 11.5108 29.9787 11.675 30C11.8392 30.0214 11.9975 30.0748 12.141 30.1574C12.2845 30.2399 12.4103 30.3499 12.5113 30.481C12.6123 30.6122 12.6864 30.762 12.7295 30.9218C12.7726 31.0816 12.7838 31.2484 12.7625 31.4125C12.5946 32.6011 12.5069 33.7997 12.5 35V43.75C12.5 44.0815 12.3683 44.3995 12.1339 44.6339C11.8995 44.8683 11.5815 45 11.25 45Z" fill="#219653"/>
<path d="M68.4999 32.5C66.5668 32.4725 64.6831 31.8852 63.077 30.8092C61.4708 29.7332 60.2109 28.2147 59.4499 26.4375C57.7791 22.6469 55.0368 19.4273 51.5603 17.1747C48.0838 14.9221 44.0247 13.7347 39.8823 13.7586C35.7399 13.7825 31.6948 15.0167 28.2445 17.3092C24.7942 19.6018 22.0893 22.8529 20.4624 26.6625C19.7604 28.3725 18.5706 29.8379 17.0412 30.876C15.5118 31.9141 13.7107 32.479 11.8624 32.5H11.4999C11.3211 32.5016 11.1441 32.4647 10.9808 32.392C10.8175 32.3193 10.6716 32.2124 10.5532 32.0785C10.4347 31.9446 10.3463 31.7869 10.294 31.6159C10.2417 31.445 10.2266 31.2648 10.2499 31.0876C11.2096 23.8806 14.7539 17.2674 20.2237 12.4776C25.6936 7.68785 32.7168 5.04749 39.9874 5.04749C47.2579 5.04749 54.2811 7.68785 59.751 12.4776C65.2209 17.2674 68.7652 23.8806 69.7249 31.0876C69.7481 31.2648 69.7331 31.445 69.6808 31.6159C69.6284 31.7869 69.5401 31.9446 69.4216 32.0785C69.3031 32.2124 69.1573 32.3193 68.994 32.392C68.8307 32.4647 68.6536 32.5016 68.4749 32.5H68.4999ZM39.9999 7.50005C33.5909 7.49957 27.383 9.73759 22.4487 13.8275C17.5143 17.9174 14.1634 23.6023 12.9749 29.9C14.1231 29.6837 15.199 29.1839 16.105 28.4461C17.0109 27.7082 17.7181 26.7557 18.1624 25.6751C19.6841 22.1004 22.0595 18.9536 25.0803 16.5106C28.1012 14.0676 31.6752 12.403 35.4891 11.6627C39.303 10.9224 43.2402 11.129 46.9557 12.2644C50.6711 13.3998 54.0513 15.4293 56.7999 18.175C58.8976 20.2546 60.5928 22.7041 61.7999 25.4C62.2712 26.4979 62.9943 27.4694 63.9107 28.2359C64.8271 29.0025 65.911 29.5426 67.0749 29.8125C66.0285 24.4058 63.3907 19.4349 59.4999 15.5375C56.9454 12.971 53.9057 10.9385 50.5578 9.55862C47.2099 8.17869 43.6209 7.47891 39.9999 7.50005Z" fill="#219653"/>
</svg>
