<svg width="80" height="80" viewBox="0 0 80 80" fill="none" xmlns="http://www.w3.org/2000/svg">
<path d="M62.4927 49C64.4265 49 66 50.5703 66 52.5C66 54.4297 64.4265 56 62.4927 56C60.559 56 58.9854 54.4297 58.9854 52.5C58.9854 50.5703 60.559 49 62.4927 49ZM62.4927 54.4308C63.5592 54.4308 64.427 53.5648 64.427 52.5005C64.427 51.4362 63.5592 50.5703 62.4927 50.5703C61.4262 50.5703 60.5584 51.4362 60.5584 52.5005C60.5584 53.5648 61.4262 54.4308 62.4927 54.4308ZM16.5073 49C18.441 49 20.0146 50.5703 20.0146 52.5C20.0146 54.4297 18.441 56 16.5073 56C14.5735 56 13 54.4297 13 52.5C13 50.5703 14.573 49 16.5073 49ZM16.5073 54.4308C17.5738 54.4308 18.4416 53.5648 18.4416 52.5005C18.4416 51.4362 17.5738 50.5703 16.5073 50.5703C15.4408 50.5703 14.573 51.4362 14.573 52.5005C14.573 53.5648 15.4403 54.4308 16.5073 54.4308Z" fill="#2D9CDB"/>
<path d="M5.64173 18H66.7519C69.6939 18 72.2916 19.8544 73.2166 22.6148L76.1018 31.2287C76.6975 33.0083 77 34.8601 77 36.7344V50.6303C77 52.229 75.6839 53.5293 74.0668 53.5293H69.6027C69.0982 57.1784 65.9254 60 62.0971 60C58.2683 60 55.096 57.1784 54.5915 53.5293H24.4085C23.904 57.1784 20.7312 60 16.9029 60C13.0741 60 9.90184 57.1784 9.39735 53.5293H4.93317C3.3156 53.5293 2 52.2285 2 50.6303V21.6003C1.99948 19.615 3.63354 18 5.64173 18ZM74.1446 31.8694L71.2594 23.2555C70.6147 21.3309 68.8034 20.0377 66.7519 20.0377H5.64173C4.76981 20.0377 4.06023 20.7391 4.06023 21.6008V37.8299H74.9382V36.7349C74.9382 35.0786 74.6713 33.4417 74.1446 31.8694ZM62.0966 57.9633C65.1385 57.9633 67.613 55.5176 67.613 52.5112C67.613 49.5047 65.1385 47.059 62.0966 47.059C59.0547 47.059 56.5801 49.5047 56.5801 52.5112C56.5801 55.5176 59.0552 57.9633 62.0966 57.9633ZM16.9024 57.9633C19.9443 57.9633 22.4188 55.5176 22.4188 52.5112C22.4188 49.5047 19.9443 47.059 16.9024 47.059C13.8605 47.059 11.3859 49.5047 11.3859 52.5112C11.3859 55.5176 13.8605 57.9633 16.9024 57.9633ZM4.93266 51.492H9.39683C9.90132 47.8428 13.0741 45.0213 16.9024 45.0213C20.7312 45.0213 23.9035 47.8428 24.408 51.492H54.591C55.0955 47.8428 58.2683 45.0213 62.0966 45.0213C65.9254 45.0213 69.0976 47.8428 69.6021 51.492H74.0663C74.5471 51.492 74.9382 51.1055 74.9382 50.6303V39.3573H4.06023V50.6303C4.06075 51.1055 4.45187 51.492 4.93266 51.492Z" fill="#2D9CDB"/>
<path d="M31.0036 36H21.286C20.8557 36 20.5075 35.6415 20.5075 35.1998V21.8002C20.5075 21.3585 20.8557 21 21.286 21H31.0036C31.4338 21 31.782 21.3585 31.782 21.8002V35.1998C31.782 35.6415 31.4338 36 31.0036 36ZM30.2251 22.6004H22.0644V34.3996H30.2251V22.6004ZM56.1949 36H46.4773C46.0471 36 45.6988 35.6415 45.6988 35.1998V21.8002C45.6988 21.3585 46.0471 21 46.4773 21H56.1949C56.6251 21 56.9734 21.3585 56.9734 21.8002V35.1998C56.9734 35.6415 56.6251 36 56.1949 36ZM55.4164 22.6004H47.2558V34.3996H55.4164V22.6004ZM43.5995 36H33.8819C33.4516 36 33.1034 35.6415 33.1034 35.1998V21.8002C33.1034 21.3585 33.4516 21 33.8819 21H43.5995C44.0297 21 44.378 21.3585 44.378 21.8002V35.1998C44.378 35.6415 44.0292 36 43.5995 36ZM42.821 22.6004H34.6604V34.3996H42.821V22.6004ZM71.3303 36H59.0732C58.643 36 58.2947 35.6415 58.2947 35.1998V21.8002C58.2947 21.3585 58.643 21 59.0732 21H65.4911C67.5333 21 69.3503 22.3102 70.0125 24.2605C70.0151 24.2685 70.0177 24.2765 70.0203 24.2846L72.9137 33.7616C73.0819 34.271 73.0014 34.8365 72.6973 35.2772C72.3854 35.7295 71.8742 36 71.3303 36ZM71.4392 34.2753C71.4367 34.2673 71.4341 34.2593 71.4315 34.2513L68.5386 24.7769C68.0907 23.4747 66.8675 22.6004 65.4906 22.6004H59.8512V34.3996H71.3303C71.3837 34.3996 71.4128 34.3729 71.4284 34.3511C71.4527 34.3148 71.4434 34.2876 71.4392 34.2753ZM18.4081 36H5.77849C5.34824 36 5 35.6415 5 35.1998V22.8789C5 21.8429 5.82001 21 6.82789 21H18.4076C18.8379 21 19.1861 21.3585 19.1861 21.8002V35.1998C19.1866 35.6415 18.8379 36 18.4081 36ZM17.6297 22.6004H6.82841C6.67894 22.6004 6.55749 22.7252 6.55749 22.8789V34.3991H17.6302V22.6004H17.6297Z" fill="#2D9CDB"/>
</svg>
