<svg width="19" height="19" viewBox="0 0 19 19" fill="none" xmlns="http://www.w3.org/2000/svg">
<path fill-rule="evenodd" clip-rule="evenodd" d="M5.54167 5.54176C5.54182 4.79282 5.75444 4.05929 6.15484 3.42636C6.55524 2.79344 7.12698 2.28709 7.80366 1.96614C8.48034 1.64518 9.2342 1.52278 9.97766 1.61316C10.7211 1.70353 11.4237 2.00298 12.0038 2.47671C12.5839 2.95044 13.0176 3.57902 13.2547 4.28944C13.4918 4.99986 13.5225 5.76296 13.3432 6.49013C13.164 7.21729 12.7821 7.87867 12.2419 8.39746C11.7017 8.91624 11.0255 9.27113 10.2917 9.42092V13.4584C10.2917 13.6684 10.2083 13.8698 10.0598 14.0182C9.91133 14.1667 9.70996 14.2501 9.5 14.2501C9.29004 14.2501 9.08867 14.1667 8.94021 14.0182C8.79174 13.8698 8.70833 13.6684 8.70833 13.4584V9.42092C7.81439 9.23814 7.01099 8.75226 6.43399 8.04543C5.85699 7.3386 5.54178 6.45419 5.54167 5.54176ZM7.51213 12.7459C7.52787 12.8487 7.5232 12.9537 7.49838 13.0547C7.47355 13.1557 7.42906 13.2508 7.36745 13.3347C7.30584 13.4185 7.22831 13.4893 7.13931 13.5432C7.0503 13.597 6.95155 13.6328 6.84871 13.6484C5.83696 13.8028 5.03342 14.0355 4.50538 14.2936C4.24017 14.4235 4.08262 14.5414 4.00108 14.6277C3.9954 14.6337 3.98986 14.6397 3.98446 14.6459C4.01058 14.6768 4.05571 14.7219 4.13488 14.7797C4.35654 14.9436 4.72783 15.1241 5.25746 15.2895C6.308 15.6181 7.80821 15.8334 9.5 15.8334C11.1918 15.8334 12.692 15.6181 13.7425 15.2895C14.273 15.1241 14.6435 14.9436 14.8651 14.7797C14.9443 14.7219 14.9894 14.6768 15.0155 14.6459C15.0101 14.6397 15.0046 14.6336 14.9989 14.6277C14.9174 14.5414 14.7598 14.4235 14.4946 14.2936C13.9666 14.0355 13.163 13.8028 12.1513 13.6484C12.0473 13.6342 11.9472 13.5994 11.8568 13.5461C11.7664 13.4928 11.6875 13.422 11.6247 13.338C11.5619 13.2539 11.5164 13.1582 11.4909 13.0564C11.4654 12.9545 11.4605 12.8487 11.4762 12.7449C11.492 12.6412 11.5283 12.5416 11.5829 12.452C11.6376 12.3624 11.7095 12.2846 11.7945 12.223C11.8794 12.1614 11.9758 12.1174 12.078 12.0934C12.1802 12.0694 12.2861 12.066 12.3896 12.0833C13.4884 12.2495 14.4653 12.5163 15.1913 12.8718C15.5531 13.0491 15.8911 13.2676 16.1476 13.5384C16.4089 13.8131 16.625 14.1875 16.625 14.6459C16.625 15.288 16.2102 15.7543 15.8064 16.0527C15.3868 16.363 14.8303 16.6085 14.2152 16.8008C12.9722 17.1888 11.3058 17.4168 9.5 17.4168C7.69342 17.4168 6.02696 17.1888 4.78563 16.8008C4.16971 16.6085 3.61396 16.363 3.19437 16.0527C2.78983 15.7543 2.375 15.288 2.375 14.6459C2.375 14.1868 2.59112 13.8131 2.85237 13.5376C3.10967 13.2668 3.44692 13.0491 3.80871 12.8726C4.53467 12.5163 5.51238 12.2503 6.60962 12.0833C6.71245 12.0675 6.81737 12.0722 6.91839 12.097C7.01941 12.1219 7.11455 12.1664 7.19836 12.228C7.28218 12.2896 7.35303 12.3671 7.40687 12.4561C7.4607 12.5451 7.49647 12.6431 7.51213 12.7459Z" fill="#E8653C"/>
</svg>
