<svg width="12" height="13" viewBox="0 0 12 13" fill="none" xmlns="http://www.w3.org/2000/svg">
<path d="M1.45005 8.0625L5.65005 3.85C5.70005 3.8 5.75421 3.7645 5.81255 3.7435C5.87088 3.7225 5.93338 3.71217 6.00005 3.7125C6.06671 3.7125 6.12921 3.72283 6.18755 3.7435C6.24588 3.76417 6.30005 3.79967 6.35005 3.85L10.5625 8.0625C10.6792 8.17917 10.7375 8.325 10.7375 8.5C10.7375 8.675 10.675 8.825 10.55 8.95C10.425 9.075 10.2792 9.1375 10.1125 9.1375C9.94588 9.1375 9.80005 9.075 9.67505 8.95L6.00005 5.275L2.32505 8.95C2.20838 9.06667 2.06455 9.125 1.89355 9.125C1.72255 9.125 1.57471 9.0625 1.45005 8.9375C1.32505 8.8125 1.26255 8.66667 1.26255 8.5C1.26255 8.33333 1.32505 8.1875 1.45005 8.0625Z" fill="#262626"/>
</svg>
