<svg width="20" height="20" viewBox="0 0 20 20" fill="none" xmlns="http://www.w3.org/2000/svg">
<path d="M17.6218 15.4146C16.7251 16.2081 15.4256 16.7772 13.7232 17.122C12.0208 17.4667 10.2664 17.5675 8.46004 17.4244L5.02924 20V16.7805C3.89864 16.4293 3.01494 15.974 2.37817 15.4146C1.62443 14.7512 1.03964 13.7984 0.623782 12.5561C0.207927 11.3138 0 10.0455 0 8.75122C0 7.45691 0.207927 6.18862 0.623782 4.94634C1.03964 3.70407 1.62768 2.74797 2.38791 2.07805C3.14815 1.40813 4.23652 0.894309 5.65302 0.536585C7.06953 0.178862 8.51852 0 10 0C11.4815 0 12.9305 0.178862 14.347 0.536585C15.7635 0.894309 16.8519 1.40813 17.6121 2.07805C18.3723 2.74797 18.9604 3.70407 19.3762 4.94634C19.7921 6.18862 20 7.45691 20 8.75122C20 10.0455 19.7921 11.3138 19.3762 12.5561C18.9604 13.7984 18.3756 14.7512 17.6218 15.4146ZM12.4561 10.6341L13.7232 10.8488C13.6192 9.2878 13.0182 7.95447 11.9201 6.84878C10.822 5.74309 9.49318 5.13821 7.93372 5.03415L8.14815 6.30244C9.26576 6.44553 10.2274 6.92033 11.0331 7.72683C11.8389 8.53333 12.3132 9.50244 12.4561 10.6341ZM8.36257 7.60976L8.59649 9.01463C9.11631 9.2748 9.49967 9.65854 9.74659 10.1659L11.1501 10.4C10.9942 9.71057 10.6628 9.11545 10.1559 8.61463C9.64912 8.11382 9.05133 7.77886 8.36257 7.60976ZM6.2768 8.76098V7.5122C6.2768 7.29106 6.19558 7.06992 6.03314 6.84878C5.8707 6.62764 5.69851 6.46829 5.51657 6.37073C5.33463 6.27317 5.19818 6.26341 5.10721 6.34146L4.21053 7.25854C3.7037 7.76585 3.62898 8.5561 3.98635 9.62927C4.34373 10.7024 5.02599 11.7431 6.03314 12.7512C7.04029 13.7593 8.07992 14.4423 9.15205 14.8C10.2242 15.1577 11.0071 15.0829 11.501 14.5756L12.4172 13.6585C12.5081 13.5805 12.5049 13.4472 12.4074 13.2585C12.3099 13.0699 12.1507 12.8976 11.9298 12.7415C11.7089 12.5854 11.488 12.5073 11.2671 12.5073H10.0195L9.29825 13.1317C8.72645 12.9756 8.01495 12.4715 7.16374 11.6195C6.31254 10.7675 5.80897 10.0488 5.65302 9.46341L6.2768 8.76098ZM7.52437 2.51707L7.7193 3.78537C9.01884 3.81138 10.2209 4.15285 11.3255 4.80976C12.4302 5.46667 13.3073 6.34472 13.9571 7.4439C14.6069 8.54309 14.9513 9.74309 14.9903 11.0439L16.2573 11.2585C16.2573 10.0748 16.0266 8.94309 15.5653 7.86341C15.104 6.78374 14.4834 5.85366 13.7037 5.07317C12.924 4.29268 11.9948 3.67154 10.9162 3.20976C9.83756 2.74797 8.70695 2.51707 7.52437 2.51707Z" fill="#553FA7"/>
</svg>
