<svg width="351" height="204" viewBox="0 0 351 204" fill="none" xmlns="http://www.w3.org/2000/svg">
<path d="M2.93198 177.6C2.28286 177.085 1.33938 177.194 0.824665 177.843C0.309946 178.492 0.4189 179.436 1.06802 179.95L2.93198 177.6ZM1.06802 179.95C20.3017 195.202 47.7285 202.918 78.927 203.171C110.144 203.425 145.256 196.211 180.003 181.462C249.501 151.962 317.694 92.2522 350.411 1.50876L347.589 0.491241C315.192 90.3475 247.665 149.483 178.831 178.7C144.413 193.309 109.707 200.421 78.9513 200.172C48.1777 199.922 21.4786 192.306 2.93198 177.6L1.06802 179.95Z" fill="#E8A83C"/>
</svg>
