<svg width="22" height="24" viewBox="0 0 22 24" fill="none" xmlns="http://www.w3.org/2000/svg">
<g clip-path="url(#clip0_1989_20134)">
<path d="M0.684051 6.50853L9.62198 11.3433C9.9223 11.5053 10.3108 11.5821 10.7017 11.5821C11.0926 11.5821 11.4811 11.5053 11.7814 11.3433L20.7193 6.50853C21.3021 6.19293 21.8526 4.96533 20.7837 4.96533H0.62089C-0.448086 4.96533 0.10249 6.19293 0.684051 6.50853ZM20.9898 9.15213L11.7814 13.9845C11.3762 14.1981 11.0926 14.2233 10.7017 14.2233C10.3108 14.2233 10.0272 14.1981 9.62198 13.9845C9.2168 13.7709 1.12141 9.49773 0.460007 9.15093C-0.00476492 8.90613 1.9259e-06 9.19293 1.9259e-06 9.41373V18.1653C1.9259e-06 18.6693 0.674518 19.3653 1.19173 19.3653H20.2593C20.7765 19.3653 21.451 18.6693 21.451 18.1653V9.41493C21.451 9.19413 21.4558 8.90733 20.9898 9.15213Z" fill="white"/>
</g>
<defs>
<clipPath id="clip0_1989_20134">
<rect width="21.5172" height="24" fill="white"/>
</clipPath>
</defs>
</svg>
