<svg width="25" height="24" viewBox="0 0 25 24" fill="none" xmlns="http://www.w3.org/2000/svg">
<g clip-path="url(#clip0_1989_20128)">
<path d="M23.7915 19.9568L20.4078 23.3134C19.9083 23.8257 19.2462 23.9992 18.6015 24C15.75 23.9146 13.0548 22.5139 10.8418 21.0757C7.2094 18.4331 3.87648 15.1564 1.78468 11.1966C0.982404 9.53618 0.0410436 7.41756 0.130984 5.56418C0.139004 4.86698 0.326884 4.18272 0.817904 3.73332L4.20162 0.351297C4.90426 -0.246363 5.58376 -0.0397228 6.0334 0.656437L8.75562 5.81848C9.04214 6.43002 8.87778 7.08526 8.4503 7.52224L7.20366 8.76824C7.1267 8.87366 7.0777 8.99366 7.07646 9.12426C7.5545 10.9747 9.00272 12.6802 10.2821 13.854C11.5614 15.0277 12.9366 16.6179 14.7216 16.9944C14.9423 17.0559 15.2125 17.0776 15.3704 16.9308L16.8206 15.456C17.3205 15.0771 18.0423 14.8919 18.576 15.2017H18.6014L23.5116 18.1005C24.2325 18.5524 24.3076 19.4256 23.7915 19.9568Z" fill="white"/>
</g>
<defs>
<clipPath id="clip0_1989_20128">
<rect width="24" height="24" fill="white" transform="translate(0.125)"/>
</clipPath>
</defs>
</svg>
