<svg width="19" height="20" viewBox="0 0 19 20" fill="none" xmlns="http://www.w3.org/2000/svg">
<path d="M16.7042 7.83124L10.0542 14.501C9.97506 14.5802 9.8893 14.6364 9.79694 14.6697C9.70458 14.7029 9.60562 14.7193 9.50007 14.7187C9.39451 14.7187 9.29555 14.7024 9.20319 14.6697C9.11083 14.6369 9.02506 14.5807 8.9459 14.501L2.27611 7.83124C2.09138 7.64652 1.99902 7.41561 1.99902 7.13853C1.99902 6.86145 2.09798 6.62395 2.2959 6.42603C2.49381 6.22812 2.72472 6.12916 2.98861 6.12916C3.2525 6.12916 3.4834 6.22812 3.68131 6.42603L9.50007 12.2448L15.3188 6.42603C15.5035 6.24131 15.7313 6.14895 16.002 6.14895C16.2728 6.14895 16.5068 6.24791 16.7042 6.44582C16.9021 6.64374 17.0011 6.87464 17.0011 7.13853C17.0011 7.40242 16.9021 7.63332 16.7042 7.83124Z" fill="#0F3C65"/>
</svg>
