<svg width="51" height="77" viewBox="0 0 51 77" fill="none" xmlns="http://www.w3.org/2000/svg">
<path d="M49.1955 9.22797C48.6 8.91516 47.8841 8.96328 47.3307 9.34227C44.6637 11.1934 42.4105 13.5787 40.7143 16.3467C39.018 19.1148 37.9156 22.2053 37.4771 25.422L35.7506 38.1812L35.7386 38.2353C35.522 39.2098 36.1356 40.1723 37.1102 40.3889C38.7885 40.7619 39.9736 42.2778 39.9315 44.0043C39.8894 45.9413 38.1749 47.5234 36.1176 47.5234H34.3129C34.0121 47.5234 33.7113 47.5415 33.4166 47.5716C33.3624 47.4633 33.3143 47.349 33.2602 47.2347L31.7683 44.3352C28.8394 38.6301 27.3095 32.3102 27.3047 25.8973V2.40625C27.3047 1.40766 26.4986 0.601562 25.5 0.601562C24.5014 0.601562 23.6953 1.40766 23.6953 2.40625V25.8973C23.6953 32.2798 22.1553 38.6564 19.2317 44.3291L17.7398 47.2287C17.6857 47.337 17.6376 47.4512 17.5834 47.5655C17.2887 47.5415 16.9879 47.5234 16.6871 47.5234H14.8824C12.8251 47.5234 11.1106 45.9413 11.0625 44.0043C11.0437 43.1688 11.3144 42.3524 11.8285 41.6935C12.3427 41.0347 13.0688 40.5738 13.8838 40.3889C14.1154 40.3377 14.3346 40.2414 14.5289 40.1054C14.7231 39.9694 14.8887 39.7965 15.0161 39.5965C15.1435 39.3964 15.2302 39.1733 15.2713 38.9397C15.3123 38.7062 15.3069 38.4668 15.2554 38.2353L13.5169 25.422C12.6386 18.9312 9.04727 13.0659 3.66328 9.34227C3.10984 8.96328 2.39398 8.91516 1.79844 9.22797C1.50777 9.38208 1.26458 9.61248 1.09501 9.8944C0.925427 10.1763 0.835864 10.4991 0.835938 10.8281V58.3516C0.835938 59.3502 1.64203 60.1562 2.64062 60.1562H9.85938C10.858 60.1562 11.6641 59.3502 11.6641 58.3516C11.6641 57.353 10.858 56.5469 9.85938 56.5469H4.44531V14.6962C7.44122 17.7418 9.37021 21.6758 9.94359 25.9093L11.5016 37.4292C10.2619 38.0374 9.22195 38.9875 8.50459 40.1675C7.78724 41.3474 7.4224 42.708 7.45312 44.0885C7.54938 47.9746 10.882 51.1328 14.8824 51.1328H16.248C14.8403 56.3784 15.6163 62.0873 18.5339 66.7855L23.972 75.5502C24.2969 76.0736 24.8744 76.3984 25.5 76.3984C26.1256 76.3984 26.7031 76.0736 27.034 75.5442L32.4721 66.7795C35.3837 62.0873 36.1597 56.3784 34.758 51.1268H36.1236C40.118 51.1328 43.4506 47.9746 43.5469 44.0885C43.613 41.2251 41.9828 38.6444 39.4984 37.4292L41.0564 25.9093C41.6279 21.6562 43.583 17.722 46.5547 14.6962V56.5469H40.5391C39.5405 56.5469 38.7344 57.353 38.7344 58.3516C38.7344 59.3502 39.5405 60.1562 40.5391 60.1562H48.3594C49.358 60.1562 50.1641 59.3502 50.1641 58.3516V10.8281C50.1642 10.4984 50.074 10.1749 49.9033 9.89278C49.7325 9.61068 49.4878 9.38075 49.1955 9.22797ZM22.4441 45.9834C23.7013 43.5411 24.724 40.9784 25.5 38.3436C26.276 40.9784 27.2987 43.5411 28.5559 45.9834L29.8553 48.516C28.0867 49.3402 26.5768 50.6215 25.494 52.2277C24.4112 50.6215 22.9013 49.3402 21.1327 48.516L22.4441 45.9834ZM29.4041 64.8785L25.5 71.1709L21.5959 64.8785C19.1716 60.9744 18.552 56.21 19.7791 51.8607C22.0952 53.0037 23.6953 55.3859 23.6953 58.141V61.7504C23.6953 62.749 24.5014 63.5551 25.5 63.5551C26.4986 63.5551 27.3047 62.749 27.3047 61.7504V58.141C27.3047 55.3859 28.9048 53.0097 31.2209 51.8607C32.448 56.21 31.8284 60.9744 29.4041 64.8785Z" fill="#4690D3"/>
</svg>
