<svg width="77" height="61" viewBox="0 0 77 61" fill="none" xmlns="http://www.w3.org/2000/svg">
<path d="M76.8326 13.8489L67.8772 42.0544C67.2076 44.0631 65.45 45.4022 63.3576 45.4022H28.7913C26.7826 45.4022 24.8576 44.1468 24.188 42.3055L10.9641 6.90219H3.34783C1.50652 6.90219 0 5.39567 0 3.55437C0 1.71306 1.50652 0.206543 3.34783 0.206543H13.3076C14.7304 0.206543 15.9859 1.12719 16.488 2.46633L30.1304 38.7065H61.9348L69.0489 16.1087H29.6283C27.787 16.1087 26.2804 14.6022 26.2804 12.7609C26.2804 10.9196 27.787 9.41306 29.6283 9.41306H73.6522C74.7402 9.41306 75.7446 9.99893 76.3304 10.8359C77 11.6728 77.1674 12.8446 76.8326 13.8489ZM30.4652 49.8381C29.0424 49.8381 27.6196 50.4239 26.6152 51.4283C25.6109 52.4326 25.025 53.8555 25.025 55.2783C25.025 56.7011 25.6109 58.1239 26.6152 59.1283C27.6196 60.1326 29.0424 60.7185 30.4652 60.7185C31.888 60.7185 33.3109 60.1326 34.3152 59.1283C35.3196 58.1239 35.9054 56.7011 35.9054 55.2783C35.9054 53.8555 35.3196 52.4326 34.3152 51.4283C33.3109 50.4239 31.888 49.8381 30.4652 49.8381ZM60.512 49.8381C59.0891 49.8381 57.6663 50.4239 56.662 51.4283C55.6576 52.4326 55.0717 53.8555 55.0717 55.2783C55.0717 56.7011 55.6576 58.1239 56.662 59.1283C57.6663 60.1326 59.0891 60.7185 60.512 60.7185C61.9348 60.7185 63.3576 60.1326 64.362 59.1283C65.3663 58.1239 65.9522 56.7011 65.9522 55.2783C65.9522 53.8555 65.3663 52.4326 64.362 51.4283C63.3576 50.4239 61.9348 49.8381 60.512 49.8381Z" fill="#4A78EF"/>
</svg>
