<svg width="71" height="77" viewBox="0 0 71 77" fill="none" xmlns="http://www.w3.org/2000/svg">
<path d="M64.375 44.8164H51.1406C50.8415 44.8164 50.5546 44.9352 50.3431 45.1468C50.1315 45.3583 50.0127 45.6452 50.0127 45.9443C50.0127 46.2435 50.1315 46.5304 50.3431 46.7419C50.5546 46.9534 50.8415 47.0723 51.1406 47.0723H64.375C64.6741 47.0723 64.961 46.9534 65.1726 46.7419C65.3841 46.5304 65.5029 46.2435 65.5029 45.9443C65.5029 45.6452 65.3841 45.3583 65.1726 45.1468C64.961 44.9352 64.6741 44.8164 64.375 44.8164ZM15.3477 9.02344H11.1367C10.8376 9.02344 10.5507 9.14227 10.3392 9.3538C10.1276 9.56533 10.0088 9.85222 10.0088 10.1514C10.0088 10.4505 10.1276 10.7374 10.3392 10.9489C10.5507 11.1605 10.8376 11.2793 11.1367 11.2793H15.3477C15.6468 11.2793 15.9337 11.1605 16.1452 10.9489C16.3568 10.7374 16.4756 10.4505 16.4756 10.1514C16.4756 9.85222 16.3568 9.56533 16.1452 9.3538C15.9337 9.14227 15.6468 9.02344 15.3477 9.02344ZM18.3555 4.51172H8.12891C7.43114 4.51251 6.76219 4.79005 6.2688 5.28344C5.7754 5.77684 5.49787 6.44579 5.49707 7.14355V35.5674C5.49787 36.2651 5.7754 36.9341 6.2688 37.4275C6.76219 37.9209 7.43114 38.1984 8.12891 38.1992H18.3555C19.0532 38.1984 19.7222 37.9209 20.2156 37.4275C20.709 36.9341 20.9865 36.2651 20.9873 35.5674V7.14355C20.9865 6.44579 20.709 5.77684 20.2156 5.28344C19.7222 4.79005 19.0532 4.51251 18.3555 4.51172ZM18.7314 35.5674C18.7313 35.6671 18.6917 35.7626 18.6212 35.8331C18.5507 35.9036 18.4551 35.9432 18.3555 35.9434H8.12891C8.02923 35.9432 7.93366 35.9036 7.86318 35.8331C7.7927 35.7626 7.75305 35.6671 7.75293 35.5674V7.14355C7.75305 7.04388 7.7927 6.94831 7.86318 6.87783C7.93366 6.80734 8.02923 6.76769 8.12891 6.76758H18.3555C18.4551 6.76769 18.5507 6.80734 18.6212 6.87783C18.6917 6.94831 18.7313 7.04388 18.7314 7.14355V35.5674ZM19.8594 44.8164H6.625C6.32585 44.8164 6.03896 44.9352 5.82743 45.1468C5.61591 45.3583 5.49707 45.6452 5.49707 45.9443C5.49707 46.2435 5.61591 46.5304 5.82743 46.7419C6.03896 46.9534 6.32585 47.0723 6.625 47.0723H19.8594C20.1585 47.0723 20.4454 46.9534 20.6569 46.7419C20.8685 46.5304 20.9873 46.2435 20.9873 45.9443C20.9873 45.6452 20.8685 45.3583 20.6569 45.1468C20.4454 44.9352 20.1585 44.8164 19.8594 44.8164ZM19.8594 51.584H6.625C6.32585 51.584 6.03896 51.7028 5.82743 51.9143C5.61591 52.1259 5.49707 52.4128 5.49707 52.7119C5.49707 53.0111 5.61591 53.298 5.82743 53.5095C6.03896 53.721 6.32585 53.8398 6.625 53.8398H19.8594C20.1585 53.8398 20.4454 53.721 20.6569 53.5095C20.8685 53.298 20.9873 53.0111 20.9873 52.7119C20.9873 52.4128 20.8685 52.1259 20.6569 51.9143C20.4454 51.7028 20.1585 51.584 19.8594 51.584ZM15.3477 13.5352H11.1367C10.8376 13.5352 10.5507 13.654 10.3392 13.8655C10.1276 14.077 10.0088 14.3639 10.0088 14.6631C10.0088 14.9622 10.1276 15.2491 10.3392 15.4607C10.5507 15.6722 10.8376 15.791 11.1367 15.791H15.3477C15.6468 15.791 15.9337 15.6722 16.1452 15.4607C16.3568 15.2491 16.4756 14.9622 16.4756 14.6631C16.4756 14.3639 16.3568 14.077 16.1452 13.8655C15.9337 13.654 15.6468 13.5352 15.3477 13.5352ZM13.2422 60.3066C12.3499 60.3066 11.4776 60.5712 10.7356 61.067C9.99366 61.5628 9.41538 62.2674 9.0739 63.0918C8.73242 63.9162 8.64307 64.8234 8.81716 65.6986C8.99125 66.5737 9.42095 67.3776 10.0519 68.0086C10.6829 68.6396 11.4868 69.0693 12.362 69.2434C13.2372 69.4175 14.1443 69.3281 14.9687 68.9866C15.7932 68.6452 16.4978 68.0669 16.9935 67.3249C17.4893 66.583 17.7539 65.7107 17.7539 64.8184C17.7526 63.6222 17.2768 62.4754 16.431 61.6296C15.5851 60.7838 14.4384 60.308 13.2422 60.3066ZM13.2422 67.0742C12.796 67.0742 12.3599 66.9419 11.9889 66.694C11.6179 66.4462 11.3288 66.0938 11.158 65.6816C10.9873 65.2694 10.9426 64.8159 11.0297 64.3783C11.1167 63.9407 11.3316 63.5387 11.6471 63.2232C11.9625 62.9077 12.3645 62.6929 12.8021 62.6058C13.2397 62.5188 13.6933 62.5635 14.1055 62.7342C14.5177 62.905 14.87 63.1941 15.1179 63.5651C15.3657 63.936 15.498 64.3722 15.498 64.8184C15.4974 65.4164 15.2595 65.9898 14.8366 66.4127C14.4137 66.8357 13.8403 67.0735 13.2422 67.0742ZM62.8711 4.51172H52.6445C51.9468 4.51251 51.2778 4.79005 50.7844 5.28344C50.291 5.77684 50.0135 6.44579 50.0127 7.14355V35.5674C50.0135 36.2651 50.291 36.9341 50.7844 37.4275C51.2778 37.9209 51.9468 38.1984 52.6445 38.1992H62.8711C63.5689 38.1984 64.2378 37.9209 64.7312 37.4275C65.2246 36.9341 65.5021 36.2651 65.5029 35.5674V7.14355C65.5021 6.44579 65.2246 5.77684 64.7312 5.28344C64.2378 4.79005 63.5689 4.51251 62.8711 4.51172ZM63.2471 35.5674C63.247 35.6671 63.2073 35.7626 63.1368 35.8331C63.0663 35.9036 62.9708 35.9432 62.8711 35.9434H52.6445C52.5449 35.9432 52.4493 35.9036 52.3788 35.8331C52.3083 35.7626 52.2687 35.6671 52.2686 35.5674V7.14355C52.2687 7.04388 52.3083 6.94831 52.3788 6.87783C52.4493 6.80734 52.5449 6.76769 52.6445 6.76758H62.8711C62.9708 6.76769 63.0663 6.80734 63.1368 6.87783C63.2073 6.94831 63.247 7.04388 63.2471 7.14355V35.5674ZM64.375 0H51.1406C50.2647 5.17625e-05 49.4008 0.204322 48.6177 0.596591C47.8345 0.98886 47.1535 1.55832 46.6289 2.25976C46.1043 1.55832 45.4233 0.98886 44.6402 0.596591C43.857 0.204322 42.9931 5.17625e-05 42.1172 0L28.8828 0C28.0069 5.17625e-05 27.143 0.204322 26.3598 0.596591C25.5767 0.98886 24.8957 1.55832 24.3711 2.25976C23.8465 1.55832 23.1655 0.98886 22.3823 0.596591C21.5992 0.204322 20.7353 5.17625e-05 19.8594 0L6.625 0C5.12979 0.00168256 3.6963 0.596398 2.63902 1.65367C1.58175 2.71095 0.987034 4.14444 0.985352 5.63965V71.3604C0.987034 72.8556 1.58175 74.2891 2.63902 75.3463C3.6963 76.4036 5.12979 76.9983 6.625 77H19.8594C20.7353 76.9999 21.5992 76.7957 22.3823 76.4034C23.1655 76.0111 23.8465 75.4417 24.3711 74.7402C24.8957 75.4417 25.5767 76.0111 26.3598 76.4034C27.143 76.7957 28.0069 76.9999 28.8828 77H42.1172C42.9931 76.9999 43.857 76.7957 44.6402 76.4034C45.4233 76.0111 46.1043 75.4417 46.6289 74.7402C47.1535 75.4417 47.8345 76.0111 48.6177 76.4034C49.4008 76.7957 50.2647 76.9999 51.1406 77H64.375C65.8702 76.9983 67.3037 76.4036 68.361 75.3463C69.4183 74.2891 70.013 72.8556 70.0146 71.3604V5.63965C70.013 4.14444 69.4183 2.71095 68.361 1.65367C67.3037 0.596398 65.8702 0.00168256 64.375 0ZM23.2432 71.3604C23.2422 72.2575 22.8853 73.1176 22.251 73.7519C21.6166 74.3863 20.7565 74.7431 19.8594 74.7441H6.625C5.72787 74.7431 4.86777 74.3863 4.23341 73.7519C3.59904 73.1176 3.24222 72.2575 3.24121 71.3604V5.63965C3.24222 4.74252 3.59904 3.88242 4.23341 3.24806C4.86777 2.61369 5.72787 2.25686 6.625 2.25586H19.8594C20.7565 2.25686 21.6166 2.61369 22.251 3.24806C22.8853 3.88242 23.2422 4.74252 23.2432 5.63965V71.3604ZM45.501 71.3604C45.5 72.2575 45.1431 73.1176 44.5088 73.7519C43.8744 74.3863 43.0143 74.7431 42.1172 74.7441H28.8828C27.9857 74.7431 27.1256 74.3863 26.4912 73.7519C25.8569 73.1176 25.5 72.2575 25.499 71.3604V5.63965C25.5 4.74252 25.8569 3.88242 26.4912 3.24806C27.1256 2.61369 27.9857 2.25686 28.8828 2.25586H42.1172C43.0143 2.25686 43.8744 2.61369 44.5088 3.24806C45.1431 3.88242 45.5 4.74252 45.501 5.63965V71.3604ZM67.7588 71.3604C67.7578 72.2575 67.401 73.1176 66.7666 73.7519C66.1322 74.3863 65.2721 74.7431 64.375 74.7441H51.1406C50.2435 74.7431 49.3834 74.3863 48.749 73.7519C48.1147 73.1176 47.7578 72.2575 47.7568 71.3604V5.63965C47.7578 4.74252 48.1147 3.88242 48.749 3.24806C49.3834 2.61369 50.2435 2.25686 51.1406 2.25586H64.375C65.2721 2.25686 66.1322 2.61369 66.7666 3.24806C67.401 3.88242 67.7578 4.74252 67.7588 5.63965V71.3604ZM59.8633 13.5352H55.6523C55.3532 13.5352 55.0663 13.654 54.8548 13.8655C54.6432 14.077 54.5244 14.3639 54.5244 14.6631C54.5244 14.9622 54.6432 15.2491 54.8548 15.4607C55.0663 15.6722 55.3532 15.791 55.6523 15.791H59.8633C60.1624 15.791 60.4493 15.6722 60.6609 15.4607C60.8724 15.2491 60.9912 14.9622 60.9912 14.6631C60.9912 14.3639 60.8724 14.077 60.6609 13.8655C60.4493 13.654 60.1624 13.5352 59.8633 13.5352ZM59.8633 9.02344H55.6523C55.3532 9.02344 55.0663 9.14227 54.8548 9.3538C54.6432 9.56533 54.5244 9.85222 54.5244 10.1514C54.5244 10.4505 54.6432 10.7374 54.8548 10.9489C55.0663 11.1605 55.3532 11.2793 55.6523 11.2793H59.8633C60.1624 11.2793 60.4493 11.1605 60.6609 10.9489C60.8724 10.7374 60.9912 10.4505 60.9912 10.1514C60.9912 9.85222 60.8724 9.56533 60.6609 9.3538C60.4493 9.14227 60.1624 9.02344 59.8633 9.02344ZM57.7578 60.3066C56.8655 60.3066 55.9932 60.5712 55.2512 61.067C54.5093 61.5628 53.931 62.2674 53.5895 63.0918C53.248 63.9162 53.1587 64.8234 53.3328 65.6986C53.5069 66.5737 53.9366 67.3776 54.5675 68.0086C55.1985 68.6396 56.0024 69.0693 56.8776 69.2434C57.7528 69.4175 58.66 69.3281 59.4844 68.9866C60.3088 68.6452 61.0134 68.0669 61.5092 67.3249C62.0049 66.583 62.2695 65.7107 62.2695 64.8184C62.2682 63.6222 61.7924 62.4754 60.9466 61.6296C60.1008 60.7838 58.954 60.308 57.7578 60.3066ZM57.7578 67.0742C57.3116 67.0742 56.8755 66.9419 56.5045 66.694C56.1335 66.4462 55.8444 66.0938 55.6737 65.6816C55.5029 65.2694 55.4583 64.8159 55.5453 64.3783C55.6323 63.9407 55.8472 63.5387 56.1627 63.2232C56.4782 62.9077 56.8801 62.6929 57.3177 62.6058C57.7553 62.5188 58.2089 62.5635 58.6211 62.7342C59.0333 62.905 59.3856 63.1941 59.6335 63.5651C59.8814 63.936 60.0137 64.3722 60.0137 64.8184C60.013 65.4164 59.7751 65.9898 59.3522 66.4127C58.9293 66.8357 58.3559 67.0735 57.7578 67.0742ZM64.375 51.584H51.1406C50.8415 51.584 50.5546 51.7028 50.3431 51.9143C50.1315 52.1259 50.0127 52.4128 50.0127 52.7119C50.0127 53.0111 50.1315 53.298 50.3431 53.5095C50.5546 53.721 50.8415 53.8398 51.1406 53.8398H64.375C64.6741 53.8398 64.961 53.721 65.1726 53.5095C65.3841 53.298 65.5029 53.0111 65.5029 52.7119C65.5029 52.4128 65.3841 52.1259 65.1726 51.9143C64.961 51.7028 64.6741 51.584 64.375 51.584ZM40.6133 4.51172H30.3867C29.689 4.51251 29.02 4.79005 28.5266 5.28344C28.0332 5.77684 27.7557 6.44579 27.7549 7.14355V35.5674C27.7557 36.2651 28.0332 36.9341 28.5266 37.4275C29.02 37.9209 29.689 38.1984 30.3867 38.1992H40.6133C41.311 38.1984 41.98 37.9209 42.4734 37.4275C42.9668 36.9341 43.2443 36.2651 43.2451 35.5674V7.14355C43.2443 6.44579 42.9668 5.77684 42.4734 5.28344C41.98 4.79005 41.311 4.51251 40.6133 4.51172ZM40.9893 35.5674C40.9891 35.6671 40.9495 35.7626 40.879 35.8331C40.8085 35.9036 40.713 35.9432 40.6133 35.9434H30.3867C30.287 35.9432 30.1915 35.9036 30.121 35.8331C30.0505 35.7626 30.0109 35.6671 30.0107 35.5674V7.14355C30.0109 7.04388 30.0505 6.94831 30.121 6.87783C30.1915 6.80734 30.287 6.76769 30.3867 6.76758H40.6133C40.713 6.76769 40.8085 6.80734 40.879 6.87783C40.9495 6.94831 40.9891 7.04388 40.9893 7.14355V35.5674ZM42.1172 51.584H28.8828C28.5837 51.584 28.2968 51.7028 28.0852 51.9143C27.8737 52.1259 27.7549 52.4128 27.7549 52.7119C27.7549 53.0111 27.8737 53.298 28.0852 53.5095C28.2968 53.721 28.5837 53.8398 28.8828 53.8398H42.1172C42.4163 53.8398 42.7032 53.721 42.9148 53.5095C43.1263 53.298 43.2451 53.0111 43.2451 52.7119C43.2451 52.4128 43.1263 52.1259 42.9148 51.9143C42.7032 51.7028 42.4163 51.584 42.1172 51.584ZM35.5 60.3066C34.6077 60.3066 33.7354 60.5712 32.9934 61.067C32.2515 61.5628 31.6732 62.2674 31.3317 63.0918C30.9902 63.9162 30.9009 64.8234 31.075 65.6986C31.2491 66.5737 31.6788 67.3776 32.3097 68.0086C32.9407 68.6396 33.7446 69.0693 34.6198 69.2434C35.495 69.4175 36.4021 69.3281 37.2266 68.9866C38.051 68.6452 38.7556 68.0669 39.2514 67.3249C39.7471 66.583 40.0117 65.7107 40.0117 64.8184C40.0104 63.6222 39.5346 62.4754 38.6888 61.6296C37.843 60.7838 36.6962 60.308 35.5 60.3066ZM35.5 67.0742C35.0538 67.0742 34.6177 66.9419 34.2467 66.694C33.8757 66.4462 33.5866 66.0938 33.4159 65.6816C33.2451 65.2694 33.2004 64.8159 33.2875 64.3783C33.3745 63.9407 33.5894 63.5387 33.9049 63.2232C34.2204 62.9077 34.6223 62.6929 35.0599 62.6058C35.4975 62.5188 35.9511 62.5635 36.3633 62.7342C36.7755 62.905 37.1278 63.1941 37.3757 63.5651C37.6236 63.936 37.7559 64.3722 37.7559 64.8184C37.7552 65.4164 37.5173 65.9898 37.0944 66.4127C36.6715 66.8357 36.0981 67.0735 35.5 67.0742ZM42.1172 44.8164H28.8828C28.5837 44.8164 28.2968 44.9352 28.0852 45.1468C27.8737 45.3583 27.7549 45.6452 27.7549 45.9443C27.7549 46.2435 27.8737 46.5304 28.0852 46.7419C28.2968 46.9534 28.5837 47.0723 28.8828 47.0723H42.1172C42.4163 47.0723 42.7032 46.9534 42.9148 46.7419C43.1263 46.5304 43.2451 46.2435 43.2451 45.9443C43.2451 45.6452 43.1263 45.3583 42.9148 45.1468C42.7032 44.9352 42.4163 44.8164 42.1172 44.8164ZM37.6055 13.5352H33.3945C33.0954 13.5352 32.8085 13.654 32.597 13.8655C32.3854 14.077 32.2666 14.3639 32.2666 14.6631C32.2666 14.9622 32.3854 15.2491 32.597 15.4607C32.8085 15.6722 33.0954 15.791 33.3945 15.791H37.6055C37.9046 15.791 38.1915 15.6722 38.403 15.4607C38.6146 15.2491 38.7334 14.9622 38.7334 14.6631C38.7334 14.3639 38.6146 14.077 38.403 13.8655C38.1915 13.654 37.9046 13.5352 37.6055 13.5352ZM37.6055 9.02344H33.3945C33.0954 9.02344 32.8085 9.14227 32.597 9.3538C32.3854 9.56533 32.2666 9.85222 32.2666 10.1514C32.2666 10.4505 32.3854 10.7374 32.597 10.9489C32.8085 11.1605 33.0954 11.2793 33.3945 11.2793H37.6055C37.9046 11.2793 38.1915 11.1605 38.403 10.9489C38.6146 10.7374 38.7334 10.4505 38.7334 10.1514C38.7334 9.85222 38.6146 9.56533 38.403 9.3538C38.1915 9.14227 37.9046 9.02344 37.6055 9.02344Z" fill="#3C81E8"/>
</svg>
