<svg width="77" height="77" viewBox="0 0 77 77" fill="none" xmlns="http://www.w3.org/2000/svg">
<path d="M4.8125 6.61719C4.81303 6.13872 5.00334 5.68 5.34167 5.34167C5.68 5.00334 6.13872 4.81303 6.61719 4.8125H37.8984C38.3769 4.81303 38.8356 5.00334 39.174 5.34167C39.5123 5.68 39.7026 6.13872 39.7031 6.61719V12.0312H42.1094V6.61719C42.1081 5.50076 41.6641 4.43042 40.8746 3.64099C40.0852 2.85155 39.0149 2.4075 37.8984 2.40625H6.61719C5.50076 2.4075 4.43042 2.85155 3.64099 3.64099C2.85155 4.43042 2.4075 5.50076 2.40625 6.61719V15.6406H4.8125V6.61719ZM4.8125 70.3828V18.0469H2.40625V70.3828C2.4075 71.4992 2.85155 72.5696 3.64099 73.359C4.43042 74.1485 5.50076 74.5925 6.61719 74.5938H31.2812V72.1875H6.61719C6.13872 72.187 5.68 71.9967 5.34167 71.6583C5.00334 71.32 4.81303 70.8613 4.8125 70.3828Z" fill="#FFA000"/>
<path d="M20.4531 12.9336C20.4514 11.4185 19.8488 9.96586 18.7774 8.89449C17.706 7.82313 16.2534 7.22047 14.7383 7.21875H14.1367C12.6216 7.22047 11.169 7.82313 10.0976 8.89449C9.02625 9.96586 8.4236 11.4185 8.42188 12.9336V20.7539C8.4236 22.269 9.02625 23.7216 10.0976 24.793C11.169 25.8644 12.6216 26.467 14.1367 26.4688H14.7383C16.2534 26.467 17.706 25.8644 18.7774 24.793C19.8488 23.7216 20.4514 22.269 20.4531 20.7539V12.9336ZM14.1367 9.625H14.7383C15.6155 9.62599 16.4565 9.97489 17.0767 10.5952C17.697 11.2154 18.0459 12.0564 18.0469 12.9336V15.6406H10.8281V12.9336C10.8291 12.0564 11.178 11.2154 11.7983 10.5952C12.4185 9.97489 13.2595 9.62599 14.1367 9.625ZM14.7383 24.0625H14.1367C13.2595 24.0615 12.4185 23.7126 11.7983 23.0923C11.178 22.4721 10.8291 21.6311 10.8281 20.7539V18.0469H18.0469V20.7539C18.0459 21.6311 17.697 22.4721 17.0767 23.0923C16.4565 23.7126 15.6155 24.0615 14.7383 24.0625ZM20.4531 34.5898C20.4514 33.0747 19.8488 31.6221 18.7774 30.5507C17.706 29.4794 16.2534 28.8767 14.7383 28.875H14.1367C12.6216 28.8767 11.169 29.4794 10.0976 30.5507C9.02625 31.6221 8.4236 33.0747 8.42188 34.5898V42.4102C8.4236 43.9253 9.02625 45.3779 10.0976 46.4493C11.169 47.5206 12.6216 48.1233 14.1367 48.125H14.7383C16.2534 48.1233 17.706 47.5206 18.7774 46.4493C19.8488 45.3779 20.4514 43.9253 20.4531 42.4102V34.5898ZM14.1367 31.2812H14.7383C15.6155 31.2822 16.4565 31.6311 17.0767 32.2514C17.697 32.8717 18.0459 33.7127 18.0469 34.5898V37.2969H10.8281V34.5898C10.8291 33.7127 11.178 32.8717 11.7983 32.2514C12.4185 31.6311 13.2595 31.2822 14.1367 31.2812ZM14.7383 45.7188H14.1367C13.2595 45.7178 12.4185 45.3689 11.7983 44.7486C11.178 44.1283 10.8291 43.2873 10.8281 42.4102V39.7031H18.0469V42.4102C18.0459 43.2873 17.697 44.1283 17.0767 44.7486C16.4565 45.3689 15.6155 45.7178 14.7383 45.7188ZM14.7383 50.5312H14.1367C12.6216 50.533 11.169 51.1356 10.0976 52.207C9.02625 53.2784 8.4236 54.731 8.42188 56.2461V64.0664C8.4236 65.5815 9.02625 67.0341 10.0976 68.1055C11.169 69.1769 12.6216 69.7795 14.1367 69.7812H14.7383C16.2534 69.7795 17.706 69.1769 18.7774 68.1055C19.8488 67.0341 20.4514 65.5815 20.4531 64.0664V56.2461C20.4514 54.731 19.8488 53.2784 18.7774 52.207C17.706 51.1356 16.2534 50.533 14.7383 50.5312ZM14.1367 52.9375H14.7383C15.6155 52.9385 16.4565 53.2874 17.0767 53.9077C17.697 54.5279 18.0459 55.3689 18.0469 56.2461V58.9531H10.8281V56.2461C10.8291 55.3689 11.178 54.5279 11.7983 53.9077C12.4185 53.2874 13.2595 52.9385 14.1367 52.9375ZM14.7383 67.375H14.1367C13.2595 67.374 12.4185 67.0251 11.7983 66.4048C11.178 65.7846 10.8291 64.9436 10.8281 64.0664V61.3594H18.0469V64.0664C18.0459 64.9436 17.697 65.7846 17.0767 66.4048C16.4565 67.0251 15.6155 67.374 14.7383 67.375ZM73.0898 14.4375H36.0938V12.9336C36.092 11.4185 35.4894 9.96586 34.418 8.89449C33.3466 7.82313 31.894 7.22047 30.3789 7.21875H29.7773C28.2622 7.22047 26.8096 7.82313 25.7382 8.89449C24.6669 9.96586 24.0642 11.4185 24.0625 12.9336V20.7539C24.0642 22.269 24.6669 23.7216 25.7382 24.793C26.8096 25.8644 28.2622 26.467 29.7773 26.4688H30.3789C31.1723 26.4681 31.9569 26.3023 32.6827 25.9818C32.8856 26.4809 33.2326 26.9082 33.6794 27.2092C34.1263 27.5102 34.6526 27.6713 35.1914 27.6719H35.5199L34.3824 30.5155C33.3156 29.4634 31.8772 28.874 30.3789 28.875H29.7773C28.2622 28.8767 26.8096 29.4794 25.7382 30.5507C24.6669 31.6221 24.0642 33.0747 24.0625 34.5898V42.4102C24.0642 43.9253 24.6669 45.3779 25.7382 46.4493C26.8096 47.5206 28.2622 48.1233 29.7773 48.125H30.3789C31.5651 48.1264 32.722 47.7566 33.6875 47.0674V51.5889C32.722 50.8997 31.5651 50.5299 30.3789 50.5312H29.7773C28.2622 50.533 26.8096 51.1356 25.7382 52.207C24.6669 53.2784 24.0642 54.731 24.0625 56.2461V64.0664C24.0642 65.5815 24.6669 67.0341 25.7382 68.1055C26.8096 69.1769 28.2622 69.7795 29.7773 69.7812H30.3789C31.5651 69.7826 32.722 69.4128 33.6875 68.7236V70.3828C33.6887 71.4992 34.1328 72.5696 34.9222 73.359C35.7117 74.1485 36.782 74.5925 37.8984 74.5938H70.3828C71.4992 74.5925 72.5696 74.1485 73.359 73.359C74.1485 72.5696 74.5925 71.4992 74.5938 70.3828V40.9062H72.1875V70.3828C72.187 70.8613 71.9967 71.32 71.6583 71.6583C71.32 71.9967 70.8613 72.187 70.3828 72.1875H37.8984C37.42 72.187 36.9612 71.9967 36.6229 71.6583C36.2846 71.32 36.0943 70.8613 36.0938 70.3828V32.7161L38.1115 27.6719H70.1698L72.1875 32.7161V38.5H74.5938V32.4844C74.5938 32.3313 74.5645 32.1797 74.5077 32.0376L72.7614 27.6719H73.0898C73.8075 27.6711 74.4956 27.3856 75.0031 26.8781C75.5106 26.3706 75.7961 25.6825 75.7969 24.9648V17.1445C75.7961 16.4268 75.5106 15.7388 75.0031 15.2313C74.4956 14.7238 73.8075 14.4383 73.0898 14.4375ZM29.7773 31.2812H30.3789C31.2561 31.2822 32.0971 31.6311 32.7173 32.2514C33.3376 32.8717 33.6865 33.7127 33.6875 34.5898V37.2969H26.4688V34.5898C26.4697 33.7127 26.8186 32.8717 27.4389 32.2514C28.0592 31.6311 28.9002 31.2822 29.7773 31.2812ZM30.3789 45.7188H29.7773C28.9002 45.7178 28.0592 45.3689 27.4389 44.7486C26.8186 44.1283 26.4697 43.2873 26.4688 42.4102V39.7031H33.6875V42.4102C33.6865 43.2873 33.3376 44.1283 32.7173 44.7486C32.0971 45.3689 31.2561 45.7178 30.3789 45.7188ZM29.7773 52.9375H30.3789C31.2561 52.9385 32.0971 53.2874 32.7173 53.9077C33.3376 54.5279 33.6865 55.3689 33.6875 56.2461V58.9531H26.4688V56.2461C26.4697 55.3689 26.8186 54.5279 27.4389 53.9077C28.0592 53.2874 28.9002 52.9385 29.7773 52.9375ZM30.3789 67.375H29.7773C28.9002 67.374 28.0592 67.0251 27.4389 66.4048C26.8186 65.7846 26.4697 64.9436 26.4688 64.0664V61.3594H33.6875V64.0664C33.6865 64.9436 33.3376 65.7846 32.7173 66.4048C32.0971 67.0251 31.2561 67.374 30.3789 67.375ZM29.7773 9.625H30.3789C31.2561 9.62599 32.0971 9.97489 32.7173 10.5952C33.3376 11.2154 33.6865 12.0564 33.6875 12.9336V14.8947C33.3927 15.0925 33.1393 15.3458 32.9416 15.6406H26.4688V12.9336C26.4697 12.0564 26.8186 11.2154 27.4389 10.5952C28.0592 9.97489 28.9002 9.62599 29.7773 9.625ZM29.7773 24.0625C28.9002 24.0615 28.0592 23.7126 27.4389 23.0923C26.8186 22.4721 26.4697 21.6311 26.4688 20.7539V18.0469H32.4844V23.3071C31.8932 23.7986 31.1477 24.066 30.3789 24.0625H29.7773ZM73.3906 24.9648C73.3905 25.0446 73.3588 25.121 73.3024 25.1774C73.246 25.2338 73.1696 25.2655 73.0898 25.2656H35.1914C35.1117 25.2655 35.0352 25.2338 34.9788 25.1774C34.9224 25.121 34.8907 25.0446 34.8906 24.9648V17.1445C34.8907 17.0648 34.9224 16.9883 34.9788 16.9319C35.0352 16.8756 35.1117 16.8438 35.1914 16.8438H73.0898C73.1696 16.8438 73.246 16.8756 73.3024 16.9319C73.3588 16.9883 73.3905 17.0648 73.3906 17.1445V24.9648Z" fill="#FFA000"/>
<path d="M38.5 50.5312C38.5 53.6247 39.4173 56.6486 41.1359 59.2207C42.8545 61.7928 45.2973 63.7975 48.1552 64.9813C51.0132 66.1651 54.158 66.4748 57.192 65.8713C60.2259 65.2678 63.0128 63.7782 65.2002 61.5908C67.3876 59.4035 68.8772 56.6166 69.4807 53.5826C70.0842 50.5486 69.7745 47.4038 68.5907 44.5458C67.4069 41.6879 65.4022 39.2452 62.8301 37.5265C60.258 35.8079 57.234 34.8906 54.1406 34.8906C49.9939 34.8953 46.0184 36.5447 43.0862 39.4768C40.154 42.409 38.5047 46.3845 38.5 50.5312ZM67.375 50.5312C67.375 53.1488 66.5988 55.7075 65.1446 57.8839C63.6904 60.0603 61.6235 61.7565 59.2052 62.7582C56.7869 63.7599 54.1259 64.022 51.5587 63.5113C48.9915 63.0007 46.6334 61.7402 44.7825 59.8894C42.9316 58.0385 41.6712 55.6804 41.1605 53.1131C40.6499 50.5459 40.912 47.8849 41.9137 45.4667C42.9153 43.0484 44.6116 40.9815 46.788 39.5273C48.9644 38.0731 51.5231 37.2969 54.1406 37.2969C57.6494 37.3009 61.0133 38.6965 63.4943 41.1775C65.9754 43.6586 67.371 47.0225 67.375 50.5312Z" fill="#FFA000"/>
<path d="M49.3281 42.1094V45.7188H45.7188C45.3997 45.7188 45.0936 45.8455 44.868 46.0711C44.6424 46.2968 44.5156 46.6028 44.5156 46.9219V54.1406C44.5156 54.4597 44.6424 54.7657 44.868 54.9914C45.0936 55.217 45.3997 55.3438 45.7188 55.3438H49.3281V58.9531C49.3281 59.2722 49.4549 59.5782 49.6805 59.8039C49.9061 60.0295 50.2122 60.1562 50.5312 60.1562H57.75C58.0691 60.1562 58.3751 60.0295 58.6007 59.8039C58.8264 59.5782 58.9531 59.2722 58.9531 58.9531V55.3438H62.5625C62.8816 55.3438 63.1876 55.217 63.4132 54.9914C63.6389 54.7657 63.7656 54.4597 63.7656 54.1406V46.9219C63.7656 46.6028 63.6389 46.2968 63.4132 46.0711C63.1876 45.8455 62.8816 45.7188 62.5625 45.7188H58.9531V42.1094C58.9531 41.7903 58.8264 41.4843 58.6007 41.2586C58.3751 41.033 58.0691 40.9062 57.75 40.9062H50.5312C50.2122 40.9062 49.9061 41.033 49.6805 41.2586C49.4549 41.4843 49.3281 41.7903 49.3281 42.1094ZM51.7344 46.9219V43.3125H56.5469V46.9219C56.5469 47.241 56.6736 47.547 56.8993 47.7726C57.1249 47.9982 57.4309 48.125 57.75 48.125H61.3594V52.9375H57.75C57.4309 52.9375 57.1249 53.0643 56.8993 53.2899C56.6736 53.5155 56.5469 53.8215 56.5469 54.1406V57.75H51.7344V54.1406C51.7344 53.8215 51.6076 53.5155 51.382 53.2899C51.1564 53.0643 50.8503 52.9375 50.5312 52.9375H46.9219V48.125H50.5312C50.8503 48.125 51.1564 47.9982 51.382 47.7726C51.6076 47.547 51.7344 47.241 51.7344 46.9219Z" fill="#FFA000"/>
</svg>
