<svg width="77" height="75" viewBox="0 0 77 75" fill="none" xmlns="http://www.w3.org/2000/svg">
<path fill-rule="evenodd" clip-rule="evenodd" d="M38.4808 0.406261C38.4728 0.407783 38.4647 0.409387 38.4567 0.411073C38.3952 0.414402 38.3341 0.422447 38.2739 0.435136C38.2553 0.437913 38.2369 0.441122 38.2185 0.444761C38.2089 0.447847 38.1992 0.451056 38.1896 0.454386C38.1613 0.462175 38.1332 0.471004 38.1054 0.480854C38.0958 0.483941 38.0861 0.487149 38.0765 0.490479C38.0603 0.49814 38.0443 0.506163 38.0284 0.514542C38.0081 0.523609 37.988 0.533238 37.9683 0.543417L19.6567 8.41185C19.3967 8.45836 19.1593 8.5891 18.981 8.78392C18.8027 8.97873 18.6935 9.2268 18.6701 9.48985C18.6692 9.49947 18.6684 9.5091 18.6677 9.51873C18.6677 9.52194 18.6677 9.52515 18.6677 9.52835C18.6603 9.60518 18.6603 9.68253 18.6677 9.75935V32.8906L0.991421 40.4896C0.830544 40.5181 0.677169 40.5792 0.540649 40.6689C0.404128 40.7587 0.287324 40.8753 0.197359 41.0117C0.190804 41.0213 0.184387 41.0309 0.178109 41.0406C0.1765 41.0422 0.174896 41.0438 0.173297 41.0454C0.171688 41.047 0.170084 41.0486 0.168484 41.0502C0.0771285 41.1866 0.0146315 41.3401 -0.0151629 41.5015C-0.0449574 41.6629 -0.0414192 41.8287 -0.00476597 41.9887V65.7552C-0.00479485 65.76 -0.00479485 65.7648 -0.00476597 65.7696C-0.00479485 65.7744 -0.00479485 65.7793 -0.00476597 65.7841C-0.00426239 65.8138 -0.00265712 65.8435 4.65252e-05 65.8731C0.0172994 66.0954 0.0959575 66.3084 0.227247 66.4886C0.358536 66.6687 0.537293 66.8089 0.743578 66.8934L19.1418 74.7979C19.3489 74.9404 19.5954 75.0145 19.8468 75.0096C20.0976 75.0159 20.3441 74.9435 20.5518 74.8027L38.5 67.0907L56.4435 74.7979C56.6506 74.9404 56.8971 75.0145 57.1485 75.0096C57.3993 75.0159 57.6458 74.9435 57.8535 74.8027L76.2565 66.8934C76.4909 66.7983 76.6893 66.6318 76.8236 66.4176C76.958 66.2033 77.0214 65.9522 77.0049 65.6999V41.9839C77.043 41.816 77.0447 41.642 77.0098 41.4734C76.975 41.3049 76.9043 41.1458 76.8027 41.0069C76.7129 40.8734 76.5972 40.7592 76.4625 40.6711C76.3277 40.5831 76.1767 40.523 76.0183 40.4944L58.3757 32.9099V9.73529C58.3821 9.65512 58.3805 9.57451 58.3709 9.49467C58.348 9.23118 58.239 8.98257 58.0607 8.78727C57.8823 8.59197 57.6446 8.46088 57.3843 8.41426L39.0583 0.533792C38.9347 0.471265 38.8012 0.430563 38.6637 0.413479C38.642 0.412092 38.6204 0.41129 38.5987 0.411073C38.5595 0.407541 38.5202 0.405935 38.4808 0.406261ZM38.5193 2.9256L41.414 4.16964L25.8023 10.8783L22.9148 9.63664L38.5193 2.9256ZM44.4603 5.47623L48.19 7.07879L32.1596 13.9751C31.8788 14.0822 31.6483 14.2905 31.5133 14.559C31.3784 14.8276 31.3488 15.1369 31.4305 15.4261V22.486L30.4439 21.0014C30.2813 20.7571 30.035 20.5807 29.7513 20.5053C29.4677 20.43 29.1663 20.4609 28.9039 20.5923L27.4554 21.319V12.7888L44.4603 5.47623ZM51.2363 8.3902L54.1262 9.63182L38.5193 16.3429L35.6246 15.1012L51.2363 8.3902ZM21.074 11.4654L25.0491 13.1714V23.2704C25.0489 23.4759 25.1013 23.6781 25.2014 23.8576C25.3015 24.037 25.4459 24.1879 25.6208 24.2957C25.7957 24.4036 25.9954 24.4648 26.2007 24.4736C26.406 24.4824 26.6101 24.4385 26.7936 24.346L29.0315 23.2175L31.558 27.029C31.6713 27.2578 31.8545 27.4447 32.081 27.5625C32.3075 27.6804 32.5656 27.7231 32.8181 27.6845C33.0705 27.6459 33.304 27.5281 33.485 27.3479C33.666 27.1678 33.785 26.9347 33.8247 26.6825C33.8264 26.6761 33.828 26.6697 33.8295 26.6633C33.8342 26.6289 33.8374 26.5944 33.8391 26.5598C33.8392 26.5534 33.8392 26.547 33.8391 26.5405C33.8411 26.5013 33.8411 26.4619 33.8391 26.4226V16.9516L37.3162 18.4507V39.8904L21.074 32.9123V11.4654ZM55.9694 11.4654V32.8906L39.7224 39.8736V18.4483L55.9694 11.4654ZM19.8468 35.0009L22.7415 36.2474L7.12977 42.9584L4.23986 41.7119L19.8468 35.0009ZM57.1725 35.0105L60.0432 36.2474L44.4315 42.9584L41.5584 41.7216L57.1725 35.0105ZM25.7926 37.5564L29.5199 39.1589L13.4871 46.0504C13.256 46.1502 13.0621 46.32 12.9326 46.5359C12.8031 46.7517 12.7446 47.0027 12.7652 47.2535C12.7644 47.2784 12.7644 47.3033 12.7652 47.3281V54.5709L11.7786 53.0791C11.6159 52.8342 11.3692 52.6574 11.085 52.582C10.8008 52.5067 10.4989 52.538 10.2362 52.67L8.78286 53.3991V44.8665L25.7926 37.5564ZM63.0943 37.5564L66.824 39.1589L50.7888 46.0504C50.5617 46.1479 50.3702 46.3128 50.2402 46.5229C50.1102 46.733 50.048 46.978 50.0621 47.2247C50.0606 47.2591 50.0606 47.2937 50.0621 47.3281V54.5661L49.0755 53.0815C48.9128 52.8366 48.6661 52.6598 48.3819 52.5844C48.0977 52.5091 47.7958 52.5404 47.5331 52.6724L46.0845 53.3991V44.8665L63.0943 37.5564ZM32.5638 40.4679L35.4585 41.7119L19.8516 48.4254L16.9617 47.1789L32.5638 40.4679ZM69.8655 40.4679L72.7602 41.7119L57.1533 48.4254L54.2586 47.1789L69.8655 40.4679ZM2.40148 43.5383L6.37661 45.2467V55.3482C6.37723 55.5533 6.43027 55.7548 6.53069 55.9336C6.6311 56.1124 6.77557 56.2626 6.95036 56.3699C7.12515 56.4772 7.32446 56.538 7.52938 56.5466C7.73429 56.5552 7.93799 56.5112 8.12114 56.4189L10.3638 55.2976L12.9625 59.2198C13.1049 59.4368 13.3136 59.6019 13.5575 59.6905C13.8014 59.7791 14.0675 59.7865 14.3159 59.7115C14.5643 59.6365 14.7819 59.4832 14.9361 59.2745C15.0903 59.0658 15.1728 58.8128 15.1715 58.5533V49.0269L18.6485 50.5212V71.9657L2.40148 64.9852V43.5407V43.5383ZM39.7032 43.5383L43.6783 45.2467V55.3482C43.6789 55.5533 43.732 55.7548 43.8324 55.9336C43.9328 56.1124 44.0773 56.2626 44.252 56.3699C44.4268 56.4772 44.6261 56.538 44.8311 56.5466C45.036 56.5552 45.2397 56.5112 45.4228 56.4189L47.6606 55.2976L50.1968 59.1236C50.3098 59.3396 50.4859 59.5163 50.7015 59.6301C50.9172 59.7438 51.1624 59.7894 51.4045 59.7607C51.6467 59.732 51.8744 59.6304 52.0575 59.4693C52.2406 59.3083 52.3704 59.0954 52.4298 58.8589C52.437 58.835 52.4434 58.811 52.4491 58.7867C52.4508 58.7763 52.4524 58.7659 52.4539 58.7554C52.4607 58.7156 52.4655 58.6754 52.4683 58.6351C52.4683 58.6311 52.4683 58.6271 52.4683 58.6231C52.4703 58.583 52.4703 58.5428 52.4683 58.5028V49.0269L55.9454 50.5212V71.9657L39.7032 64.9828V43.5383ZM74.5986 43.5383V64.9828L58.3516 71.9681V50.5236L74.5986 43.5407V43.5383ZM37.2969 43.5431V64.9828L21.0547 71.9681V50.5236L37.2969 43.5431ZM66.4077 58.5437C66.2582 58.5509 66.1113 58.586 65.9746 58.6471L61.3209 60.6443C61.1756 60.7067 61.0439 60.7972 60.9335 60.9104C60.8231 61.0237 60.7361 61.1576 60.6774 61.3046C60.6188 61.4515 60.5896 61.6085 60.5917 61.7667C60.5937 61.9248 60.6269 62.0811 60.6893 62.2264C60.7517 62.3718 60.8421 62.5034 60.9554 62.6138C61.0687 62.7243 61.2026 62.8113 61.3495 62.8699C61.4964 62.9286 61.6535 62.9577 61.8116 62.9557C61.9698 62.9536 62.126 62.9205 62.2714 62.8581L66.9227 60.8561C67.1818 60.7463 67.3942 60.5491 67.5229 60.2989C67.6517 60.0487 67.6887 59.7612 67.6275 59.4866C67.5662 59.2119 67.4107 58.9674 67.1878 58.7956C66.965 58.6237 66.6889 58.5354 66.4077 58.5461V58.5437ZM69.6321 62.1579V62.1627C69.4829 62.1684 69.336 62.2018 69.199 62.2613L61.3305 65.5266C61.0351 65.6495 60.8005 65.8847 60.6784 66.1805C60.5564 66.4762 60.5568 66.8084 60.6797 67.1039C60.8025 67.3994 61.0377 67.6339 61.3335 67.756C61.6293 67.8781 61.9615 67.8776 62.257 67.7548L70.1254 64.4751C70.3875 64.3687 70.6037 64.1735 70.7362 63.9236C70.8686 63.6737 70.9088 63.3851 70.8496 63.1085C70.7905 62.8319 70.6357 62.5851 70.4127 62.4112C70.1896 62.2374 69.9148 62.1477 69.6321 62.1579Z" fill="#E8653C"/>
</svg>
