<svg width="77" height="77" viewBox="0 0 77 77" fill="none" xmlns="http://www.w3.org/2000/svg">
<path d="M4.80808 40.9063L10.8281 40.9064V50.5313H13.2343V39.7033C13.2343 39.3842 13.1076 39.0782 12.8819 38.8525C12.6563 38.6269 12.3503 38.5002 12.0312 38.5002L4.8082 38.5L4.80844 33.6858L12.0272 33.6862C12.3463 33.6862 12.6524 33.5594 12.878 33.3338C13.1036 33.1082 13.2304 32.8021 13.2304 32.4831L13.2311 18.0456C13.2311 17.7265 13.1044 17.4205 12.8788 17.1948C12.6532 16.9692 12.3472 16.8425 12.0281 16.8424L4.80933 16.8421L4.80957 12.0296L20.4502 12.0304C20.7693 12.0304 21.0753 11.9036 21.3009 11.678C21.5266 11.4524 21.6533 11.1463 21.6533 10.8272L21.6536 4.81162L26.4661 4.81187L26.4658 10.8275C26.4658 11.1466 26.5926 11.4526 26.8182 11.6782C27.0438 11.9039 27.3499 12.0306 27.6689 12.0306L43.3096 12.0315L43.3097 9.62526L28.8722 9.62437L28.8724 4.81195L72.1849 4.81422L72.1827 50.533H74.5889L74.5913 3.61109C74.5913 3.29201 74.4645 2.98599 74.2389 2.76036C74.0133 2.53473 73.7072 2.40797 73.3881 2.40797L3.6069 2.40445C3.28781 2.40445 2.98179 2.53121 2.75616 2.75684C2.53053 2.98247 2.40377 3.28849 2.40377 3.60757L2.40277 22.8594H4.80902L4.80918 19.2483L10.8248 19.2487L10.8242 31.2799L4.80859 31.2796L4.80887 25.2656H2.40262L2.40137 50.5295H4.80762L4.80808 40.9063ZM19.2474 4.81148L19.2472 9.62412L4.80966 9.62332L4.8099 4.81074L19.2474 4.81148Z" fill="#219653"/>
<path d="M54.1094 38.2143L55.6856 39.5775C55.9023 39.7649 56.1788 39.8688 56.4653 39.8706C56.7518 39.8723 57.0295 39.7718 57.2485 39.587L58.841 38.2435C60.7463 36.5839 62.5151 34.774 64.1305 32.8312C67.8823 28.3098 69.7963 24.1135 69.8194 20.3588C69.863 13.2192 63.9617 7.37434 56.6644 7.32954C56.6364 7.3294 56.6085 7.32925 56.5805 7.32925C49.3215 7.32925 43.3946 13.0847 43.3511 20.1968C43.358 21.6384 43.5966 23.0697 44.0578 24.4356L46.3455 23.6895C45.9646 22.5691 45.766 21.3948 45.7573 20.2114C45.7928 14.421 50.6415 9.7355 56.5807 9.7355C56.6036 9.7355 56.6268 9.73566 56.6498 9.73579C62.6203 9.77237 67.4487 14.5312 67.4131 20.3441C67.3936 23.5281 65.6662 27.2124 62.2787 31.2947C60.7553 33.1288 59.0869 34.8375 57.2896 36.4041L56.4823 37.0852L55.6834 36.3943C53.9056 34.8056 52.2583 33.0767 50.7572 31.2243C49.2707 29.3875 48.0981 27.6082 47.2719 25.9358L45.1146 27.0018C46.0194 28.8332 47.2885 30.7632 48.8867 32.7381C50.4784 34.7002 52.2248 36.5315 54.1094 38.2143Z" fill="#219653"/>
<path d="M56.5465 26.6078C56.5592 26.6078 56.5717 26.608 56.5843 26.608C58.1798 26.6127 59.7118 25.9835 60.8433 24.8587C61.9748 23.7339 62.6131 22.2057 62.6179 20.6103C62.6226 19.0148 61.9934 17.4828 60.8686 16.3513C59.7438 15.2198 58.2156 14.5815 56.6201 14.5767C56.6075 14.5767 56.5949 14.5766 56.5822 14.5766C54.9868 14.5719 53.4548 15.2011 52.3233 16.3259C51.1918 17.4507 50.5535 18.9789 50.5487 20.5743C50.544 22.1698 51.1732 23.7018 52.298 24.8333C53.4228 25.9648 54.951 26.6031 56.5465 26.6078ZM54.0467 18.0244C54.7207 17.355 55.6327 16.9804 56.5826 16.9828C56.5902 16.9828 56.5978 16.983 56.6054 16.983C57.4404 16.9882 58.2477 17.2827 58.8899 17.8164C59.5321 18.3501 59.9693 19.0899 60.1271 19.9098C60.285 20.7297 60.1536 21.579 59.7555 22.313C59.3573 23.0469 58.717 23.6201 57.9437 23.9349C57.1703 24.2497 56.3117 24.2865 55.5142 24.0392C54.7167 23.792 54.0296 23.2758 53.5699 22.5787C53.1103 21.8816 52.9066 21.0467 52.9936 20.2163C53.0805 19.3858 53.4527 18.6112 54.0467 18.0244ZM30.0739 40.9058L30.075 18.0465C30.075 17.7274 29.9482 17.4214 29.7226 17.1957C29.497 16.9701 29.191 16.8433 28.8719 16.8433L19.2469 16.8427C18.9279 16.8427 18.6218 16.9695 18.3961 17.1951C18.1705 17.4208 18.0437 17.7268 18.0437 18.0459L18.0422 49.3271H20.4485L20.45 19.2491L27.6687 19.2496L27.6677 40.9058H30.0739ZM40.903 19.2502L40.9032 16.8439L36.0907 16.8436C35.7716 16.8436 35.4655 16.9704 35.2399 17.196C35.0142 17.4216 34.8875 17.7277 34.8875 18.0467L34.8866 36.0936C34.8866 36.4127 35.0134 36.7187 35.239 36.9443C35.4646 37.17 35.7706 37.2967 36.0897 37.2967L46.9178 37.2973L46.9179 34.8911L37.2929 34.8905L37.2937 19.2499L40.903 19.2502Z" fill="#219653"/>
<path d="M70.3829 52.9375H69.222L63.6999 44.6543C63.1787 43.8707 62.4718 43.2283 61.6422 42.7842C60.8125 42.3402 59.8858 42.1084 58.9448 42.1094H35.7055C33.3451 42.1116 31.0578 42.9281 29.2296 44.421L18.7425 53.0014L5.97697 54.9653C4.98083 55.1138 4.07156 55.6163 3.41577 56.3807C2.75998 57.1451 2.4016 58.1202 2.4063 59.1273V67.0742C2.40712 67.7919 2.69258 68.48 3.20007 68.9875C3.70756 69.495 4.39563 69.7804 5.11333 69.7813H13.6468C14.1445 71.1887 15.0663 72.4072 16.2852 73.2691C17.5042 74.131 18.9603 74.5938 20.4532 74.5938C21.946 74.5938 23.4022 74.131 24.6211 73.2691C25.84 72.4072 26.7618 71.1887 27.2595 69.7813H32.4844V67.375H27.6719C27.6719 65.4605 26.9114 63.6244 25.5576 62.2706C24.2038 60.9168 22.3677 60.1563 20.4532 60.1563C18.5386 60.1563 16.7025 60.9168 15.3487 62.2706C13.995 63.6244 13.2344 65.4605 13.2344 67.375H5.11333C5.03358 67.3749 4.95713 67.3432 4.90074 67.2868C4.84436 67.2304 4.81264 67.154 4.81255 67.0742V63.7656H7.82036C8.93678 63.7644 10.0071 63.3203 10.7966 62.5309C11.586 61.7415 12.03 60.6711 12.0313 59.5547V56.4685L19.3421 55.3438H44.9043L46.9219 60.388V67.375H34.8907V69.7813H52.1468C52.6445 71.1887 53.5663 72.4072 54.7852 73.2691C56.0042 74.131 57.4603 74.5938 58.9532 74.5938C60.446 74.5938 61.9022 74.131 63.1211 73.2691C64.34 72.4072 65.2618 71.1887 65.7595 69.7813H71.8868C72.6045 69.7804 73.2925 69.495 73.8 68.9875C74.3075 68.48 74.593 67.7919 74.5938 67.0742V57.1484C74.5925 56.032 74.1485 54.9617 73.3591 54.1722C72.5696 53.3828 71.4993 52.9388 70.3829 52.9375ZM20.4532 62.5625C21.405 62.5625 22.3354 62.8448 23.1269 63.3736C23.9183 63.9024 24.5351 64.654 24.8993 65.5333C25.2636 66.4127 25.3589 67.3803 25.1732 68.3139C24.9875 69.2474 24.5292 70.1049 23.8561 70.778C23.1831 71.451 22.3256 71.9093 21.392 72.095C20.4585 72.2807 19.4909 72.1854 18.6115 71.8212C17.7321 71.4569 16.9805 70.8401 16.4517 70.0487C15.9229 69.2573 15.6407 68.3268 15.6407 67.375C15.6421 66.0991 16.1496 64.8759 17.0518 63.9736C17.954 63.0714 19.1773 62.564 20.4532 62.5625ZM61.6978 45.989L66.3301 52.9375H52.9375V44.5156H58.9448C59.4896 44.515 60.0261 44.6492 60.5065 44.9063C60.9868 45.1634 61.3961 45.5353 61.6978 45.989ZM50.5313 44.5156V52.9375H46.9219V44.5156H50.5313ZM9.62505 59.5547C9.62451 60.0332 9.4342 60.4919 9.09588 60.8302C8.75755 61.1685 8.29883 61.3588 7.82036 61.3594H4.81255V59.1273C4.81054 58.6957 4.96413 58.2778 5.24518 57.9502C5.52623 57.6226 5.91591 57.4073 6.34282 57.3437L9.62505 56.8386V59.5547ZM30.7533 46.2833C32.1514 45.1417 33.9005 44.5174 35.7055 44.5156H44.5157V52.9375H22.6205L30.7533 46.2833ZM58.9532 72.1875C58.0013 72.1875 57.0709 71.9053 56.2795 71.3764C55.4881 70.8476 54.8712 70.096 54.507 69.2167C54.1428 68.3373 54.0474 67.3697 54.2331 66.4361C54.4188 65.5026 54.8772 64.6451 55.5502 63.9721C56.2233 63.299 57.0808 62.8407 58.0143 62.655C58.9478 62.4693 59.9155 62.5646 60.7948 62.9288C61.6742 63.2931 62.4258 63.9099 62.9546 64.7013C63.4834 65.4927 63.7657 66.4232 63.7657 67.375C63.7642 68.6509 63.2567 69.8742 62.3545 70.7764C61.4523 71.6786 60.2291 72.1861 58.9532 72.1875ZM71.8868 67.375H66.1719C66.1719 65.4605 65.4114 63.6244 64.0576 62.2706C62.7038 60.9168 60.8677 60.1563 58.9532 60.1563C57.0386 60.1563 55.2025 60.9168 53.8487 62.2706C52.495 63.6244 51.7344 65.4605 51.7344 67.375H49.3282V60.1563C49.3282 60.0032 49.299 59.8516 49.2421 59.7095L47.4958 55.3438H70.3829C70.8613 55.3443 71.32 55.5346 71.6584 55.8729C71.9967 56.2113 72.187 56.67 72.1875 57.1484V57.75H69.1797C68.677 57.75 68.1842 57.89 67.7566 58.1543C67.3289 58.4186 66.9833 58.7968 66.7585 59.2464C66.5337 59.6961 66.4385 60.1994 66.4836 60.7001C66.5288 61.2008 66.7125 61.6791 67.0141 62.0813L68.3676 63.8861C68.6205 64.2215 68.9476 64.4938 69.3233 64.6816C69.6991 64.8695 70.1132 64.9678 70.5332 64.9688H72.1875V67.0742C72.1875 67.154 72.1557 67.2304 72.0993 67.2868C72.043 67.3432 71.9665 67.3749 71.8868 67.375ZM72.1875 60.1563V62.5625H70.5332C70.4866 62.5624 70.4406 62.5514 70.3988 62.5306C70.3571 62.5097 70.3207 62.4794 70.2926 62.4422L68.9391 60.6375C68.9056 60.5928 68.8852 60.5397 68.8802 60.484C68.8752 60.4284 68.8857 60.3725 68.9107 60.3225C68.9357 60.2726 68.9741 60.2305 69.0216 60.2012C69.0691 60.1718 69.1239 60.1563 69.1797 60.1563H72.1875Z" fill="#219653"/>
<path d="M43.3125 57.75H39.7031V60.1562H43.3125V57.75Z" fill="#219653"/>
<path d="M21.6562 66.1719H19.25V68.5781H21.6562V66.1719Z" fill="#219653"/>
<path d="M60.1562 66.1719H57.75V68.5781H60.1562V66.1719Z" fill="#219653"/>
</svg>
