<svg width="77" height="77" viewBox="0 0 77 77" fill="none" xmlns="http://www.w3.org/2000/svg">
<path fill-rule="evenodd" clip-rule="evenodd" d="M29.9363 65.8174C31.1146 65.8174 32.1434 65.1774 32.6938 64.2261C32.9646 63.758 33.1197 63.2145 33.1197 62.6348C33.1197 62.0551 32.9646 61.5116 32.6938 61.0435C32.1434 60.0922 31.1146 59.4522 29.9363 59.4522C28.758 59.4522 27.7292 60.0922 27.1788 61.0435C26.908 61.5116 26.7529 62.0551 26.7529 62.6348C26.7529 63.2145 26.908 63.758 27.1788 64.2261C27.7292 65.1774 28.758 65.8174 29.9363 65.8174ZM29.9363 69C32.9029 69 35.3957 66.9715 36.1024 64.2261C36.2334 63.7175 36.303 63.1843 36.303 62.6348C36.303 62.0853 36.2334 61.5521 36.1024 61.0435C35.3957 58.2981 32.9029 56.2696 29.9363 56.2696C26.9697 56.2696 24.4769 58.2981 23.7702 61.0435C23.6392 61.5521 23.5696 62.0853 23.5696 62.6348C23.5696 63.1843 23.6392 63.7175 23.7702 64.2261C24.4769 66.9715 26.9697 69 29.9363 69Z" fill="#4A78EF"/>
<path fill-rule="evenodd" clip-rule="evenodd" d="M5 9.5913C5 10.4702 5.71245 11.1826 6.5913 11.1826H15.3674L17.2447 20.5669L24.6307 51.4957H23.5696C20.0533 51.4957 17.2029 54.3455 17.2029 57.8609C17.2029 61.3763 20.0533 64.2261 23.5696 64.2261H23.7702C23.6392 63.7175 23.5696 63.1843 23.5696 62.6348C23.5696 62.0853 23.6392 61.5521 23.7702 61.0435H23.5696C21.8115 61.0435 20.3862 59.6186 20.3862 57.8609C20.3862 56.1032 21.8115 54.6783 23.5696 54.6783H46.9142H56.4643C59.7765 54.6783 62.4231 53.0149 64.136 51.3983C65.5075 50.1038 66.2005 48.2992 66.6528 46.4683C67.7555 42.0054 69.2953 35.6644 70.2229 31.5025C70.574 29.9274 71.07 28.3898 71.4948 26.833C71.883 25.41 72.0451 24.1689 71.9893 23.0854C71.9006 21.3607 71.254 20.0268 70.1485 19.1086C69.1054 18.2422 67.814 17.8815 66.6676 17.7138C65.5326 17.5477 64.3525 17.5478 63.4084 17.5478L63.3426 17.5478L20.0931 18.5773L18.2988 9.60768C18.1118 8.67287 17.291 8 16.3376 8H6.5913C5.71245 8 5 8.71245 5 9.5913ZM20.868 21.7424L27.6337 50.723C27.7393 51.1755 28.1428 51.4957 28.6075 51.4957H56.4643C58.2684 51.4957 59.7739 50.8722 60.9073 50.1143C62.4545 49.0796 63.1772 47.2655 63.6233 45.4585C64.9801 39.9618 66.9404 31.8565 67.6369 28.3749L68.8102 23.2489C68.7607 22.2882 68.4457 21.8319 68.1143 21.5566C67.7205 21.2295 67.0996 20.9935 66.2067 20.8628C65.3268 20.7341 64.3674 20.7305 63.3805 20.7304L20.868 21.7424Z" fill="#4A78EF"/>
<path d="M46.9142 64.2261C47.7933 64.2261 48.5059 63.5136 48.5059 62.6348C48.5059 61.7559 47.7933 61.0435 46.9142 61.0435H36.8336H36.1024C36.2334 61.5521 36.303 62.0853 36.303 62.6348C36.303 63.1843 36.2334 63.7175 36.1024 64.2261H36.8336H46.9142Z" fill="#4A78EF"/>
<path fill-rule="evenodd" clip-rule="evenodd" d="M58.5865 65.8174C60.3446 65.8174 61.7699 64.3925 61.7699 62.6348C61.7699 60.8771 60.3446 59.4522 58.5865 59.4522C56.8284 59.4522 55.4032 60.8771 55.4032 62.6348C55.4032 64.3925 56.8284 65.8174 58.5865 65.8174ZM58.5865 69C62.1027 69 64.9532 66.1502 64.9532 62.6348C64.9532 59.1194 62.1027 56.2696 58.5865 56.2696C55.0703 56.2696 52.2198 59.1194 52.2198 62.6348C52.2198 66.1502 55.0703 69 58.5865 69Z" fill="#4A78EF"/>
<path d="M26.2224 27.0957C26.2224 25.9238 27.1725 24.9739 28.3446 24.9739H33.6502C34.8223 24.9739 35.7724 25.9238 35.7724 27.0957C35.7724 28.2675 34.8223 29.2174 33.6502 29.2174H28.3446C27.1725 29.2174 26.2224 28.2675 26.2224 27.0957Z" fill="#4A78EF"/>
<path d="M26.2224 33.4609C26.2224 32.2891 27.1725 31.3391 28.3446 31.3391H33.6502C34.8223 31.3391 35.7724 32.2891 35.7724 33.4609C35.7724 34.6327 34.8223 35.5826 33.6502 35.5826H28.3446C27.1725 35.5826 26.2224 34.6327 26.2224 33.4609Z" fill="#4A78EF"/>
<path d="M40.0169 27.0957C40.0169 25.9238 40.9671 24.9739 42.1392 24.9739H46.3836C47.5557 24.9739 48.5059 25.9238 48.5059 27.0957C48.5059 28.2675 47.5557 29.2174 46.3836 29.2174H42.1392C40.9671 29.2174 40.0169 28.2675 40.0169 27.0957Z" fill="#4A78EF"/>
<path d="M40.0169 33.4609C40.0169 32.2891 40.9671 31.3391 42.1392 31.3391H46.3836C47.5557 31.3391 48.5059 32.2891 48.5059 33.4609C48.5059 34.6327 47.5557 35.5826 46.3836 35.5826H42.1392C40.9671 35.5826 40.0169 34.6327 40.0169 33.4609Z" fill="#4A78EF"/>
<path d="M52.7504 27.0957C52.7504 25.9238 53.7005 24.9739 54.8726 24.9739H60.1782C61.3503 24.9739 62.3004 25.9238 62.3004 27.0957C62.3004 28.2675 61.3503 29.2174 60.1782 29.2174H54.8726C53.7005 29.2174 52.7504 28.2675 52.7504 27.0957Z" fill="#4A78EF"/>
<path d="M52.7504 33.4609C52.7504 32.2891 53.7005 31.3391 54.8726 31.3391H60.1782C61.3503 31.3391 62.3004 32.2891 62.3004 33.4609C62.3004 34.6327 61.3503 35.5826 60.1782 35.5826H54.8726C53.7005 35.5826 52.7504 34.6327 52.7504 33.4609Z" fill="#4A78EF"/>
</svg>
